AsbirSansItalic-ItalicTextThin.ufo
<glyph name="exclam" format="2">
  <advance width="554"/>
  <unicode hex="0021"/>
  <outline>
    <contour>
      <point x="234" y="434" type="line"/>
      <point x="280" y="434" type="line"/>
      <point x="455" y="1490" type="line"/>
      <point x="409" y="1490" type="line"/>
    </contour>
    <contour>
      <point x="186" y="-9" type="curve" smooth="yes"/>
      <point x="214" y="-9"/>
      <point x="240" y="13"/>
      <point x="244" y="41" type="curve" smooth="yes"/>
      <point x="249" y="71"/>
      <point x="228" y="97"/>
      <point x="197" y="97" type="curve" smooth="yes"/>
      <point x="170" y="97"/>
      <point x="144" y="75"/>
      <point x="139" y="47" type="curve" smooth="yes"/>
      <point x="134" y="17"/>
      <point x="156" y="-9"/>
    </contour>
  </outline>
</glyph>
<glyph name="numbersign" format="2">
  <advance width="1298"/>
  <unicode hex="0023"/>
  <outline>
    <contour>
      <point x="782" y="0" type="line"/>
      <point x="830" y="0" type="line"/>
      <point x="1100" y="1490" type="line"/>
      <point x="1054" y="1490" type="line"/>
    </contour>
    <contour>
      <point x="72" y="462" type="line"/>
      <point x="1184" y="462" type="line"/>
      <point x="1192" y="510" type="line"/>
      <point x="82" y="510" type="line"/>
    </contour>
    <contour>
      <point x="258" y="0" type="line"/>
      <point x="306" y="0" type="line"/>
      <point x="576" y="1490" type="line"/>
      <point x="530" y="1490" type="line"/>
    </contour>
    <contour>
      <point x="166" y="980" type="line"/>
      <point x="1278" y="980" type="line"/>
      <point x="1288" y="1026" type="line"/>
      <point x="176" y="1026" type="line"/>
    </contour>
  </outline>
</glyph>
<glyph name="ampersand" format="2">
  <advance width="1289"/>
  <unicode hex="0026"/>
  <outline>
    <contour>
      <point x="457" y="-20" type="curve" smooth="yes"/>
      <point x="656" y="-20"/>
      <point x="810" y="76"/>
      <point x="902" y="174" type="curve"/>
      <point x="918" y="191" type="line"/>
      <point x="998" y="282"/>
      <point x="1069" y="409"/>
      <point x="1110" y="535" type="curve"/>
      <point x="1065" y="543" type="line"/>
      <point x="964" y="242"/>
      <point x="751" y="26"/>
      <point x="459" y="26" type="curve" smooth="yes"/>
      <point x="250" y="26"/>
      <point x="113" y="178"/>
      <point x="145" y="369" type="curve" smooth="yes"/>
      <point x="165" y="490"/>
      <point x="241" y="579"/>
      <point x="442" y="713" type="curve" smooth="yes"/>
      <point x="687" y="877" type="line" smooth="yes"/>
      <point x="860" y="993"/>
      <point x="935" y="1094"/>
      <point x="954" y="1213" type="curve" smooth="yes"/>
      <point x="983" y="1388"/>
      <point x="877" y="1510"/>
      <point x="706" y="1510" type="curve" smooth="yes"/>
      <point x="532" y="1510"/>
      <point x="372" y="1381"/>
      <point x="343" y="1207" type="curve" smooth="yes"/>
      <point x="322" y="1078"/>
      <point x="383" y="998"/>
      <point x="491" y="825" type="curve" smooth="yes"/>
      <point x="1005" y="0" type="line"/>
      <point x="1063" y="0" type="line"/>
      <point x="530" y="851" type="line" smooth="yes"/>
      <point x="423" y="1023"/>
      <point x="370" y="1092"/>
      <point x="388" y="1201" type="curve" smooth="yes"/>
      <point x="413" y="1351"/>
      <point x="553" y="1464"/>
      <point x="705" y="1464" type="curve" smooth="yes"/>
      <point x="846" y="1464"/>
      <point x="934" y="1367"/>
      <point x="909" y="1220" type="curve" smooth="yes"/>
      <point x="891" y="1112"/>
      <point x="819" y="1020"/>
      <point x="664" y="916" type="curve" smooth="yes"/>
      <point x="416" y="751" type="line" smooth="yes"/>
      <point x="203" y="609"/>
      <point x="121" y="508"/>
      <point x="100" y="375" type="curve" smooth="yes"/>
      <point x="63" y="156"/>
      <point x="220" y="-20"/>
    </contour>
  </outline>
</glyph>
<glyph name="quotesingle" format="2">
  <advance width="563"/>
  <unicode hex="0027"/>
  <outline>
    <contour>
      <point x="341" y="1040" type="line"/>
      <point x="382" y="1040" type="line"/>
      <point x="461" y="1490" type="line"/>
      <point x="410" y="1490" type="line"/>
    </contour>
  </outline>
</glyph>
<glyph name="parenleft" format="2">
  <advance width="646"/>
  <unicode hex="0028"/>
  <outline>
    <contour>
      <point x="250" y="628" type="curve" smooth="yes"/>
      <point x="198" y="317"/>
      <point x="221" y="-3"/>
      <point x="312" y="-302" type="curve"/>
      <point x="360" y="-302" type="line"/>
      <point x="268" y="-3"/>
      <point x="244" y="314"/>
      <point x="296" y="628" type="curve" smooth="yes"/>
      <point x="349" y="940"/>
      <point x="474" y="1260"/>
      <point x="670" y="1560" type="curve"/>
      <point x="620" y="1560" type="line"/>
      <point x="431" y="1263"/>
      <point x="303" y="943"/>
    </contour>
  </outline>
</glyph>
<glyph name="parenright" format="2">
  <advance width="647"/>
  <unicode hex="0029"/>
  <outline>
    <contour>
      <point x="-1" y="-302" type="curve"/>
      <point x="49" y="-302" type="line"/>
      <point x="239" y="-3"/>
      <point x="367" y="317"/>
      <point x="419" y="628" type="curve" smooth="yes"/>
      <point x="471" y="943"/>
      <point x="449" y="1263"/>
      <point x="358" y="1560" type="curve"/>
      <point x="308" y="1560" type="line"/>
      <point x="403" y="1258"/>
      <point x="424" y="940"/>
      <point x="371" y="628" type="curve" smooth="yes"/>
      <point x="320" y="314"/>
      <point x="193" y="-3"/>
    </contour>
  </outline>
</glyph>
<glyph name="asterisk" format="2">
  <advance width="1024"/>
  <unicode hex="002A"/>
  <outline>
    <contour>
      <point x="504" y="652" type="line"/>
      <point x="550" y="652" type="line"/>
      <point x="614" y="1032" type="line"/>
      <point x="914" y="840" type="line"/>
      <point x="936" y="882" type="line"/>
      <point x="642" y="1068" type="line"/>
      <point x="1006" y="1260" type="line"/>
      <point x="984" y="1300" type="line"/>
      <point x="626" y="1112" type="line"/>
      <point x="690" y="1490" type="line"/>
      <point x="642" y="1490" type="line"/>
      <point x="578" y="1108" type="line"/>
      <point x="280" y="1300" type="line"/>
      <point x="256" y="1260" type="line"/>
      <point x="550" y="1074" type="line"/>
      <point x="186" y="882" type="line"/>
      <point x="210" y="840" type="line"/>
      <point x="568" y="1030" type="line"/>
    </contour>
  </outline>
</glyph>
<glyph name="plus" format="2">
  <advance width="1304"/>
  <unicode hex="002B"/>
  <outline>
    <contour>
      <point x="563" y="160" type="line"/>
      <point x="609" y="160" type="line"/>
      <point x="749" y="1004" type="line"/>
      <point x="703" y="1004" type="line"/>
    </contour>
    <contour>
      <point x="230" y="558" type="line"/>
      <point x="1074" y="558" type="line"/>
      <point x="1082" y="606" type="line"/>
      <point x="238" y="606" type="line"/>
    </contour>
  </outline>
</glyph>
<glyph name="hyphen" format="2">
  <advance width="898"/>
  <unicode hex="002D"/>
  <outline>
    <contour>
      <point x="745" y="662" type="line"/>
      <point x="189" y="662" type="line"/>
      <point x="181" y="616" type="line"/>
      <point x="737" y="616" type="line"/>
    </contour>
  </outline>
</glyph>
<glyph name="period" format="2">
  <advance width="554"/>
  <unicode hex="002E"/>
  <outline>
    <contour>
      <point x="186" y="-9" type="curve" smooth="yes"/>
      <point x="214" y="-9"/>
      <point x="240" y="13"/>
      <point x="244" y="41" type="curve" smooth="yes"/>
      <point x="249" y="71"/>
      <point x="228" y="97"/>
      <point x="197" y="97" type="curve" smooth="yes"/>
      <point x="170" y="97"/>
      <point x="144" y="75"/>
      <point x="139" y="47" type="curve" smooth="yes"/>
      <point x="134" y="17"/>
      <point x="156" y="-9"/>
    </contour>
  </outline>
</glyph>
<glyph name="slash" format="2">
  <advance width="662"/>
  <unicode hex="002F"/>
  <outline>
    <contour>
      <point x="762" y="1560" type="line"/>
      <point x="710" y="1560" type="line"/>
      <point x="-64" y="-224" type="line"/>
      <point x="-14" y="-224" type="line"/>
    </contour>
  </outline>
</glyph>
<glyph name="zero" format="2">
  <advance width="1208"/>
  <unicode hex="0030"/>
  <anchor x="635" y="745" name="center"/>
  <anchor x="759" y="1490" name="top"/>
  <outline>
    <contour>
      <point x="510" y="-20" type="curve" smooth="yes"/>
      <point x="793" y="-20"/>
      <point x="1014" y="271"/>
      <point x="1092" y="744" type="curve" smooth="yes"/>
      <point x="1171" y="1219"/>
      <point x="1046" y="1510"/>
      <point x="763" y="1510" type="curve" smooth="yes"/>
      <point x="478" y="1510"/>
      <point x="257" y="1219"/>
      <point x="178" y="744" type="curve" smooth="yes"/>
      <point x="100" y="271"/>
      <point x="225" y="-20"/>
    </contour>
    <contour>
      <point x="517" y="26" type="curve" smooth="yes"/>
      <point x="262" y="26"/>
      <point x="150" y="297"/>
      <point x="224" y="744" type="curve" smooth="yes"/>
      <point x="298" y="1193"/>
      <point x="500" y="1464"/>
      <point x="755" y="1464" type="curve" smooth="yes"/>
      <point x="1008" y="1464"/>
      <point x="1120" y="1193"/>
      <point x="1046" y="744" type="curve" smooth="yes"/>
      <point x="972" y="297"/>
      <point x="770" y="26"/>
    </contour>
  </outline>
</glyph>
<glyph name="one" format="2">
  <advance width="744"/>
  <unicode hex="0031"/>
  <outline>
    <contour>
      <point x="466.0" y="0" type="line"/>
      <point x="512.0" y="0" type="line"/>
      <point x="780.2" y="1490" type="line"/>
      <point x="740.2" y="1490" type="line"/>
      <point x="669.72" y="1304"/>
      <point x="492.91999999999996" y="1244"/>
      <point x="363.91999999999996" y="1244" type="curve" smooth="yes"/>
      <point x="361.91999999999996" y="1244" type="line"/>
      <point x="353.64" y="1198" type="line"/>
      <point x="461.64" y="1198"/>
      <point x="612.66" y="1237"/>
      <point x="713.62" y="1359" type="curve"/>
      <point x="710.98" y="1361" type="line"/>
    </contour>
  </outline>
</glyph>
<glyph name="two" format="2">
  <advance width="1273"/>
  <unicode hex="0032"/>
  <anchor x="744" y="637" name="cross"/>
  <anchor x="791" y="1490" name="top"/>
  <outline>
    <contour>
      <point x="98" y="0" type="line"/>
      <point x="996" y="0" type="line"/>
      <point x="1004" y="46" type="line"/>
      <point x="181" y="46" type="line"/>
      <point x="182" y="52" type="line"/>
      <point x="709" y="574" type="line" smooth="yes"/>
      <point x="993" y="855"/>
      <point x="1067" y="961"/>
      <point x="1094" y="1126" type="curve" smooth="yes"/>
      <point x="1131" y="1347"/>
      <point x="993" y="1510"/>
      <point x="768" y="1510" type="curve" smooth="yes"/>
      <point x="536" y="1510"/>
      <point x="345" y="1333"/>
      <point x="309" y="1118" type="curve"/>
      <point x="355" y="1118" type="line"/>
      <point x="392" y="1307"/>
      <point x="562" y="1464"/>
      <point x="768" y="1464" type="curve" smooth="yes"/>
      <point x="968" y="1464"/>
      <point x="1081" y="1321"/>
      <point x="1048" y="1126" type="curve" smooth="yes"/>
      <point x="1024" y="977"/>
      <point x="942" y="867"/>
      <point x="674" y="602" type="curve" smooth="yes"/>
      <point x="104" y="38" type="line"/>
    </contour>
  </outline>
</glyph>
<glyph name="three" format="2">
  <advance width="1223"/>
  <unicode hex="0033"/>
  <anchor x="788" y="1490" name="top"/>
  <outline>
    <contour>
      <point x="538" y="-20" type="curve" smooth="yes"/>
      <point x="799" y="-20"/>
      <point x="1009" y="158"/>
      <point x="1047" y="386" type="curve" smooth="yes"/>
      <point x="1078" y="576"/>
      <point x="977" y="715"/>
      <point x="782" y="764" type="curve"/>
      <point x="783" y="770" type="line"/>
      <point x="968" y="818"/>
      <point x="1098" y="954"/>
      <point x="1126" y="1128" type="curve" smooth="yes"/>
      <point x="1162.994" y="1347"/>
      <point x="1022" y="1510"/>
      <point x="789" y="1510" type="curve" smooth="yes"/>
      <point x="554" y="1510"/>
      <point x="356.994" y="1347"/>
      <point x="318" y="1118" type="curve"/>
      <point x="366" y="1118" type="line"/>
      <point x="399" y="1321"/>
      <point x="580" y="1463"/>
      <point x="789" y="1464" type="curve" smooth="yes"/>
      <point x="998" y="1463"/>
      <point x="1112" y="1320"/>
      <point x="1080" y="1128" type="curve" smooth="yes"/>
      <point x="1046" y="922"/>
      <point x="852" y="792"/>
      <point x="628" y="792" type="curve" smooth="yes"/>
      <point x="606" y="792" type="line"/>
      <point x="598" y="744" type="line"/>
      <point x="620" y="744" type="line" smooth="yes"/>
      <point x="883" y="744"/>
      <point x="1036" y="601"/>
      <point x="1001" y="386" type="curve" smooth="yes"/>
      <point x="968" y="188"/>
      <point x="774" y="26"/>
      <point x="537" y="26" type="curve" smooth="yes"/>
      <point x="314" y="26"/>
      <point x="174" y="172"/>
      <point x="207" y="372" type="curve"/>
      <point x="161" y="372" type="line"/>
      <point x="123.005" y="145"/>
      <point x="287" y="-20"/>
    </contour>
  </outline>
</glyph>
<glyph name="four" format="2">
  <advance width="1218"/>
  <unicode hex="0034"/>
  <outline>
    <contour>
      <point x="215.0" y="350" type="line"/>
      <point x="1131.0" y="350" type="line"/>
      <point x="1139.28" y="396" type="line"/>
      <point x="288.28" y="396" type="line"/>
      <point x="289.36" y="402" type="line"/>
      <point x="1154.2" y="1490" type="line"/>
      <point x="1100.2" y="1490" type="line"/>
      <point x="221.12" y="384" type="line"/>
    </contour>
    <contour>
      <point x="836.0" y="0" type="line"/>
      <point x="882.0" y="0" type="line"/>
      <point x="1049.4" y="930" type="line"/>
      <point x="1003.4" y="930" type="line"/>
      <point x="904.04" y="378" type="line"/>
      <point x="901.52" y="364" type="line"/>
    </contour>
  </outline>
</glyph>
<glyph name="five" format="2">
  <advance width="1127"/>
  <unicode hex="0035"/>
  <outline>
    <contour>
      <point x="443" y="-20" type="curve" smooth="yes"/>
      <point x="701" y="-20"/>
      <point x="919" y="186"/>
      <point x="964" y="462" type="curve" smooth="yes"/>
      <point x="1012" y="751"/>
      <point x="839" y="940"/>
      <point x="600" y="940" type="curve" smooth="yes"/>
      <point x="480" y="940"/>
      <point x="372" y="895"/>
      <point x="287" y="826" type="curve"/>
      <point x="281" y="826" type="line"/>
      <point x="459" y="1442" type="line"/>
      <point x="1079" y="1442" type="line"/>
      <point x="1087" y="1490" type="line"/>
      <point x="425" y="1490" type="line"/>
      <point x="222" y="786" type="line"/>
      <point x="290" y="774" type="line"/>
      <point x="370" y="844"/>
      <point x="482" y="894"/>
      <point x="600" y="894" type="curve" smooth="yes"/>
      <point x="813" y="894"/>
      <point x="962" y="727"/>
      <point x="918" y="462" type="curve" smooth="yes"/>
      <point x="878" y="215"/>
      <point x="677" y="26"/>
      <point x="442" y="26" type="curve" smooth="yes"/>
      <point x="234" y="26"/>
      <point x="128" y="169"/>
      <point x="162" y="372" type="curve"/>
      <point x="116" y="372" type="line"/>
      <point x="78" y="143"/>
      <point x="212" y="-20"/>
    </contour>
  </outline>
</glyph>
<glyph name="six" format="2">
  <advance width="1154"/>
  <unicode hex="0036"/>
  <outline>
    <contour>
      <point x="493" y="-20" type="curve" smooth="yes"/>
      <point x="743" y="-20"/>
      <point x="947" y="198"/>
      <point x="988" y="446" type="curve" smooth="yes"/>
      <point x="1032" y="710"/>
      <point x="872" y="910"/>
      <point x="639" y="910" type="curve" smooth="yes"/>
      <point x="466" y="910"/>
      <point x="286" y="803"/>
      <point x="214" y="654" type="curve"/>
      <point x="208" y="654" type="line"/>
      <point x="295" y="1177"/>
      <point x="490" y="1464"/>
      <point x="760" y="1464" type="curve" smooth="yes"/>
      <point x="956" y="1464"/>
      <point x="1047" y="1321"/>
      <point x="1027" y="1118" type="curve"/>
      <point x="1073" y="1118" type="line"/>
      <point x="1097" y="1350"/>
      <point x="982" y="1510"/>
      <point x="760" y="1510" type="curve" smooth="yes"/>
      <point x="402" y="1510"/>
      <point x="232" y="1076"/>
      <point x="166" y="674" type="curve" smooth="yes"/>
      <point x="88" y="207"/>
      <point x="240" y="-20"/>
    </contour>
    <contour>
      <point x="492" y="26" type="curve" smooth="yes"/>
      <point x="308" y="26"/>
      <point x="200" y="163"/>
      <point x="194" y="424" type="curve" smooth="yes"/>
      <point x="189" y="658"/>
      <point x="408" y="864"/>
      <point x="635" y="864" type="curve" smooth="yes"/>
      <point x="851" y="864"/>
      <point x="981" y="681"/>
      <point x="942" y="446" type="curve" smooth="yes"/>
      <point x="904" y="215"/>
      <point x="707" y="26"/>
    </contour>
  </outline>
</glyph>
<glyph name="seven" format="2">
  <advance width="1121"/>
  <unicode hex="0037"/>
  <outline>
    <contour>
      <point x="140" y="0" type="line"/>
      <point x="192" y="0" type="line"/>
      <point x="1139" y="1442" type="line"/>
      <point x="1147" y="1490" type="line"/>
      <point x="283" y="1490" type="line"/>
      <point x="275" y="1444" type="line"/>
      <point x="1083" y="1444" type="line"/>
      <point x="1082" y="1438" type="line"/>
    </contour>
  </outline>
</glyph>
<glyph name="eight" format="2">
  <advance width="1220"/>
  <unicode hex="0038"/>
  <outline>
    <contour>
      <point x="513" y="-20" type="curve" smooth="yes"/>
      <point x="770" y="-20"/>
      <point x="1006" y="160"/>
      <point x="1044" y="384" type="curve" smooth="yes"/>
      <point x="1073" y="561"/>
      <point x="969" y="728"/>
      <point x="793" y="768" type="curve"/>
      <point x="794" y="774" type="line"/>
      <point x="959" y="826"/>
      <point x="1090" y="969"/>
      <point x="1117" y="1132" type="curve" smooth="yes"/>
      <point x="1153" y="1345"/>
      <point x="992" y="1510"/>
      <point x="766" y="1510" type="curve" smooth="yes"/>
      <point x="538" y="1510"/>
      <point x="326" y="1343"/>
      <point x="291" y="1132" type="curve" smooth="yes"/>
      <point x="264" y="968"/>
      <point x="351" y="827"/>
      <point x="496" y="774" type="curve"/>
      <point x="495" y="768" type="line"/>
      <point x="305" y="726"/>
      <point x="147" y="561"/>
      <point x="118" y="384" type="curve" smooth="yes"/>
      <point x="80" y="160"/>
      <point x="258" y="-20"/>
    </contour>
    <contour>
      <point x="512" y="26" type="curve" smooth="yes"/>
      <point x="281" y="26"/>
      <point x="131" y="189"/>
      <point x="164" y="386" type="curve" smooth="yes"/>
      <point x="197" y="585"/>
      <point x="416" y="748"/>
      <point x="648" y="748" type="curve" smooth="yes"/>
      <point x="881" y="748"/>
      <point x="1029" y="585"/>
      <point x="996" y="386" type="curve" smooth="yes"/>
      <point x="963" y="189"/>
      <point x="745" y="26"/>
    </contour>
    <contour>
      <point x="638" y="788" type="curve" smooth="yes"/>
      <point x="437" y="788"/>
      <point x="307" y="946"/>
      <point x="337" y="1132" type="curve" smooth="yes"/>
      <point x="368" y="1318"/>
      <point x="565" y="1464"/>
      <point x="766" y="1464" type="curve" smooth="yes"/>
      <point x="968" y="1464"/>
      <point x="1102" y="1318"/>
      <point x="1071" y="1132" type="curve" smooth="yes"/>
      <point x="1041" y="946"/>
      <point x="840" y="788"/>
    </contour>
  </outline>
</glyph>
<glyph name="nine" format="2">
  <advance width="1154"/>
  <unicode hex="0039"/>
  <outline>
    <contour>
      <point x="464" y="-20" type="curve" smooth="yes"/>
      <point x="825" y="-20"/>
      <point x="984" y="416"/>
      <point x="1050" y="818" type="curve" smooth="yes"/>
      <point x="1128" y="1286"/>
      <point x="969" y="1510"/>
      <point x="715" y="1510" type="curve" smooth="yes"/>
      <point x="466" y="1510"/>
      <point x="269" y="1295"/>
      <point x="228" y="1048" type="curve" smooth="yes"/>
      <point x="185" y="783"/>
      <point x="351" y="582"/>
      <point x="587" y="582" type="curve" smooth="yes"/>
      <point x="758" y="582"/>
      <point x="931" y="689"/>
      <point x="1002" y="838" type="curve"/>
      <point x="1008" y="838" type="line"/>
      <point x="921" y="314"/>
      <point x="734" y="26"/>
      <point x="463" y="26" type="curve" smooth="yes"/>
      <point x="268" y="26"/>
      <point x="170" y="172"/>
      <point x="189" y="376" type="curve"/>
      <point x="143" y="376" type="line"/>
      <point x="120" y="143"/>
      <point x="243" y="-20"/>
    </contour>
    <contour>
      <point x="589" y="628" type="curve" smooth="yes"/>
      <point x="374" y="628"/>
      <point x="235" y="812"/>
      <point x="274" y="1048" type="curve" smooth="yes"/>
      <point x="312" y="1277"/>
      <point x="500" y="1463"/>
      <point x="715" y="1464" type="curve" smooth="yes"/>
      <point x="899" y="1463"/>
      <point x="1017" y="1329"/>
      <point x="1024" y="1068" type="curve" smooth="yes"/>
      <point x="1028" y="835"/>
      <point x="816" y="628"/>
    </contour>
  </outline>
</glyph>
<glyph name="less" format="2">
  <advance width="1304"/>
  <unicode hex="003C"/>
  <outline>
    <contour>
      <point x="214" y="558" type="line"/>
      <point x="926" y="40" type="line"/>
      <point x="934" y="96" type="line"/>
      <point x="260" y="584" type="line"/>
      <point x="268" y="570" type="line"/>
      <point x="272" y="594" type="line"/>
      <point x="260" y="578" type="line"/>
      <point x="1094" y="1068" type="line"/>
      <point x="1104" y="1122" type="line"/>
      <point x="222" y="606" type="line"/>
    </contour>
  </outline>
</glyph>
<glyph name="equal" format="2">
  <advance width="1304"/>
  <unicode hex="003D"/>
  <outline>
    <contour>
      <point x="338" y="754" type="line"/>
      <point x="1030" y="754" type="line"/>
      <point x="1038" y="800" type="line"/>
      <point x="346" y="800" type="line"/>
    </contour>
    <contour>
      <point x="274" y="364" type="line"/>
      <point x="966" y="364" type="line"/>
      <point x="974" y="410" type="line"/>
      <point x="282" y="410" type="line"/>
    </contour>
  </outline>
</glyph>
<glyph name="greater" format="2">
  <advance width="1304"/>
  <unicode hex="003E"/>
  <outline>
    <contour>
      <point x="1090" y="558" type="line"/>
      <point x="1098" y="606" type="line"/>
      <point x="386" y="1122" type="line"/>
      <point x="378" y="1068" type="line"/>
      <point x="1050" y="578" type="line"/>
      <point x="1044" y="594" type="line"/>
      <point x="1040" y="570" type="line"/>
      <point x="1050" y="584" type="line"/>
      <point x="218" y="96" type="line"/>
      <point x="208" y="40" type="line"/>
    </contour>
  </outline>
</glyph>
<glyph name="question" format="2">
  <advance width="981"/>
  <unicode hex="003F"/>
  <outline>
    <contour>
      <point x="405" y="442" type="line"/>
      <point x="453" y="442" type="line"/>
      <point x="470" y="544" type="line" smooth="yes"/>
      <point x="490" y="662"/>
      <point x="539" y="722"/>
      <point x="693" y="821" type="curve" smooth="yes"/>
      <point x="873" y="936"/>
      <point x="941" y="1021"/>
      <point x="962" y="1146" type="curve" smooth="yes"/>
      <point x="997" y="1356"/>
      <point x="849" y="1510"/>
      <point x="636" y="1510" type="curve" smooth="yes"/>
      <point x="413" y="1510"/>
      <point x="226" y="1341"/>
      <point x="189" y="1118" type="curve"/>
      <point x="235" y="1118" type="line"/>
      <point x="268" y="1315"/>
      <point x="438" y="1464"/>
      <point x="636" y="1464" type="curve" smooth="yes"/>
      <point x="823" y="1464"/>
      <point x="947" y="1335"/>
      <point x="917" y="1150" type="curve" smooth="yes"/>
      <point x="899" y="1045"/>
      <point x="838" y="965"/>
      <point x="673" y="862" type="curve" smooth="yes"/>
      <point x="506" y="756"/>
      <point x="444" y="678"/>
      <point x="422" y="544" type="curve" smooth="yes"/>
    </contour>
    <contour>
      <point x="355" y="-9" type="curve" smooth="yes"/>
      <point x="384" y="-9"/>
      <point x="411" y="15"/>
      <point x="416" y="44" type="curve" smooth="yes"/>
      <point x="421" y="73"/>
      <point x="401" y="97"/>
      <point x="372" y="97" type="curve" smooth="yes"/>
      <point x="343" y="97"/>
      <point x="315" y="73"/>
      <point x="310" y="44" type="curve" smooth="yes"/>
      <point x="305" y="15"/>
      <point x="326" y="-9"/>
    </contour>
  </outline>
</glyph>
<glyph name="at" format="2">
  <advance width="2008"/>
  <unicode hex="0040"/>
  <outline>
    <contour>
      <point x="846" y="-396" type="curve" smooth="yes"/>
      <point x="1015" y="-396"/>
      <point x="1187" y="-343"/>
      <point x="1344" y="-244" type="curve"/>
      <point x="1320" y="-206" type="line"/>
      <point x="1173" y="-300"/>
      <point x="1006" y="-350"/>
      <point x="846" y="-350" type="curve" smooth="yes"/>
      <point x="398" y="-350"/>
      <point x="106" y="38"/>
      <point x="186" y="518" type="curve" smooth="yes"/>
      <point x="265" y="998"/>
      <point x="701" y="1386"/>
      <point x="1149" y="1386" type="curve" smooth="yes"/>
      <point x="1594" y="1386"/>
      <point x="1887" y="998"/>
      <point x="1808" y="518" type="curve" smooth="yes"/>
      <point x="1768" y="279"/>
      <point x="1599" y="102"/>
      <point x="1421" y="102" type="curve" smooth="yes"/>
      <point x="1334" y="102"/>
      <point x="1324" y="137"/>
      <point x="1348" y="280" type="curve" smooth="yes"/>
      <point x="1465" y="986" type="line"/>
      <point x="1419" y="986" type="line"/>
      <point x="1381" y="754" type="line"/>
      <point x="1375" y="754" type="line"/>
      <point x="1329" y="902"/>
      <point x="1212" y="1000"/>
      <point x="1058" y="1000" type="curve" smooth="yes"/>
      <point x="828" y="1000"/>
      <point x="609" y="785"/>
      <point x="565" y="518" type="curve" smooth="yes"/>
      <point x="520" y="250"/>
      <point x="668" y="34"/>
      <point x="898" y="34" type="curve" smooth="yes"/>
      <point x="1052" y="34"/>
      <point x="1202" y="134"/>
      <point x="1296" y="280" type="curve"/>
      <point x="1302" y="280" type="line"/>
      <point x="1275" y="113"/>
      <point x="1305" y="56"/>
      <point x="1421" y="56" type="curve" smooth="yes"/>
      <point x="1628" y="56"/>
      <point x="1810" y="253"/>
      <point x="1854" y="518" type="curve" smooth="yes"/>
      <point x="1938" y="1024"/>
      <point x="1620" y="1432"/>
      <point x="1149" y="1432" type="curve" smooth="yes"/>
      <point x="675" y="1432"/>
      <point x="224" y="1024"/>
      <point x="140" y="518" type="curve" smooth="yes"/>
      <point x="56" y="15"/>
      <point x="372" y="-396"/>
    </contour>
    <contour>
      <point x="897" y="80" type="curve" smooth="yes"/>
      <point x="696" y="80"/>
      <point x="571" y="276"/>
      <point x="611" y="518" type="curve" smooth="yes"/>
      <point x="651" y="759"/>
      <point x="857" y="954"/>
      <point x="1058" y="954" type="curve" smooth="yes"/>
      <point x="1258" y="954"/>
      <point x="1382" y="759"/>
      <point x="1342" y="518" type="curve" smooth="yes"/>
      <point x="1302" y="275"/>
      <point x="1098" y="80"/>
    </contour>
  </outline>
</glyph>
<glyph name="A" format="2">
  <advance width="1310"/>
  <unicode hex="0041"/>
  <anchor x="562" y="0" name="bottom"/>
  <anchor x="1151" y="0" name="ogonek"/>
  <anchor x="720" y="1490" name="tonos"/>
  <anchor x="809" y="1490" name="top"/>
  <outline>
    <contour>
      <point x="-27" y="0" type="line"/>
      <point x="25" y="0" type="line"/>
      <point x="646" y="1154" type="line" smooth="yes"/>
      <point x="704" y="1261"/>
      <point x="760" y="1367"/>
      <point x="817" y="1474" type="curve"/>
      <point x="799" y="1474" type="line"/>
      <point x="820" y="1367"/>
      <point x="842" y="1261"/>
      <point x="864" y="1154" type="curve" smooth="yes"/>
      <point x="1105" y="0" type="line"/>
      <point x="1151" y="0" type="line"/>
      <point x="840" y="1490" type="line"/>
      <point x="777" y="1490" type="line"/>
    </contour>
    <contour>
      <point x="274" y="496" type="line"/>
      <point x="1014" y="496" type="line"/>
      <point x="1022" y="542" type="line"/>
      <point x="282" y="542" type="line"/>
    </contour>
  </outline>
</glyph>
<glyph name="B" format="2">
  <advance width="1310"/>
  <unicode hex="0042"/>
  <anchor x="543" y="0" name="bottom"/>
  <anchor x="266" y="390" name="cross"/>
  <anchor x="772" y="1490" name="top"/>
  <anchor x="384" y="1490" name="topl"/>
  <outline>
    <contour>
      <point x="139" y="0" type="line"/>
      <point x="655" y="0" type="line" smooth="yes"/>
      <point x="911" y="0"/>
      <point x="1084" y="149"/>
      <point x="1122" y="379" type="curve" smooth="yes"/>
      <point x="1157" y="586"/>
      <point x="1045" y="741"/>
      <point x="900" y="755" type="curve"/>
      <point x="900" y="759" type="line"/>
      <point x="1050" y="795"/>
      <point x="1156" y="934"/>
      <point x="1185" y="1109" type="curve" smooth="yes"/>
      <point x="1224" y="1344"/>
      <point x="1099" y="1490"/>
      <point x="849" y="1490" type="curve" smooth="yes"/>
      <point x="386" y="1490" type="line"/>
    </contour>
    <contour>
      <point x="193" y="46" type="line"/>
      <point x="307" y="734" type="line"/>
      <point x="777" y="734" type="line" smooth="yes"/>
      <point x="987" y="734"/>
      <point x="1111" y="590"/>
      <point x="1077" y="385" type="curve" smooth="yes"/>
      <point x="1044" y="182"/>
      <point x="878" y="46"/>
      <point x="660" y="46" type="curve" smooth="yes"/>
    </contour>
    <contour>
      <point x="315" y="780" type="line"/>
      <point x="425" y="1444" type="line"/>
      <point x="844" y="1444" type="line" smooth="yes"/>
      <point x="1061" y="1444"/>
      <point x="1175" y="1325"/>
      <point x="1140" y="1115" type="curve" smooth="yes"/>
      <point x="1110" y="936"/>
      <point x="984" y="780"/>
      <point x="781" y="780" type="curve" smooth="yes"/>
    </contour>
  </outline>
</glyph>
<glyph name="C" format="2">
  <advance width="1480"/>
  <unicode hex="0043"/>
  <anchor x="673" y="0" name="cedilla"/>
  <anchor x="791" y="745" name="center"/>
  <anchor x="920" y="1490" name="top"/>
  <anchor x="1413" y="1024" name="topr"/>
  <outline>
    <contour>
      <point x="673" y="-20" type="curve" smooth="yes"/>
      <point x="1022" y="-20"/>
      <point x="1249" y="256"/>
      <point x="1321" y="466" type="curve"/>
      <point x="1274" y="466" type="line"/>
      <point x="1200" y="263"/>
      <point x="984" y="26"/>
      <point x="675" y="26" type="curve" smooth="yes"/>
      <point x="411" y="26"/>
      <point x="209" y="212"/>
      <point x="209" y="564" type="curve" smooth="yes"/>
      <point x="209" y="1021"/>
      <point x="500" y="1464"/>
      <point x="919" y="1464" type="curve" smooth="yes"/>
      <point x="1226" y="1464"/>
      <point x="1360" y="1228"/>
      <point x="1367" y="1024" type="curve"/>
      <point x="1413" y="1024" type="line"/>
      <point x="1412" y="1236"/>
      <point x="1272" y="1510"/>
      <point x="920" y="1510" type="curve" smooth="yes"/>
      <point x="453" y="1510"/>
      <point x="163" y="1023"/>
      <point x="163" y="563" type="curve" smooth="yes"/>
      <point x="163" y="209"/>
      <point x="357" y="-20"/>
    </contour>
  </outline>
</glyph>
<glyph name="D" format="2">
  <advance width="1460"/>
  <unicode hex="0044"/>
  <anchor x="497" y="0" name="bottom"/>
  <anchor x="403" y="745" name="cross"/>
  <anchor x="786" y="1490" name="top"/>
  <anchor x="386" y="1490" name="topl"/>
  <outline>
    <contour>
      <point x="529" y="0" type="line" smooth="yes"/>
      <point x="967" y="0"/>
      <point x="1267" y="275"/>
      <point x="1345" y="750" type="curve" smooth="yes"/>
      <point x="1422" y="1214"/>
      <point x="1225" y="1490"/>
      <point x="814" y="1490" type="curve" smooth="yes"/>
      <point x="410" y="1490" type="line"/>
      <point x="402" y="1444" type="line"/>
      <point x="814" y="1444" type="line" smooth="yes"/>
      <point x="1201" y="1444"/>
      <point x="1371" y="1185"/>
      <point x="1299" y="750" type="curve" smooth="yes"/>
      <point x="1226" y="309"/>
      <point x="943" y="46"/>
      <point x="529" y="46" type="curve" smooth="yes"/>
      <point x="171" y="46" type="line"/>
      <point x="163" y="0" type="line"/>
    </contour>
    <contour>
      <point x="432" y="1490" type="line"/>
      <point x="386" y="1490" type="line"/>
      <point x="139" y="0" type="line"/>
      <point x="185" y="0" type="line"/>
    </contour>
  </outline>
</glyph>
<glyph name="E" format="2">
  <advance width="1196"/>
  <unicode hex="0045"/>
  <anchor x="547" y="0" name="bottom"/>
  <anchor x="547" y="0" name="cedilla"/>
  <anchor x="955" y="0" name="ogonek"/>
  <anchor x="386" y="1490" name="tonos"/>
  <anchor x="794" y="1490" name="top"/>
  <outline>
    <contour>
      <point x="139" y="0" type="line"/>
      <point x="955" y="0" type="line"/>
      <point x="963" y="46" type="line"/>
      <point x="195" y="46" type="line"/>
      <point x="307" y="722" type="line"/>
      <point x="1011" y="722" type="line"/>
      <point x="1018" y="768" type="line"/>
      <point x="314" y="768" type="line"/>
      <point x="426" y="1442" type="line"/>
      <point x="1172" y="1442" type="line"/>
      <point x="1180" y="1490" type="line"/>
      <point x="386" y="1490" type="line"/>
    </contour>
  </outline>
</glyph>
<glyph name="F" format="2">
  <advance width="1196"/>
  <unicode hex="0046"/>
  <anchor x="162" y="0" name="bottom"/>
  <anchor x="230" y="410" name="cross"/>
  <anchor x="139" y="0" name="lfthook"/>
  <anchor x="786" y="1490" name="top"/>
  <outline>
    <contour>
      <point x="139" y="0" type="line"/>
      <point x="185" y="0" type="line"/>
      <point x="305" y="722" type="line"/>
      <point x="987" y="722" type="line"/>
      <point x="994" y="768" type="line"/>
      <point x="312" y="768" type="line"/>
      <point x="424" y="1444" type="line"/>
      <point x="1176" y="1444" type="line"/>
      <point x="1184" y="1490" type="line"/>
      <point x="386" y="1490" type="line"/>
    </contour>
  </outline>
</glyph>
<glyph name="G" format="2">
  <advance width="1536"/>
  <unicode hex="0047"/>
  <anchor x="756.0" y="0" name="bottom"/>
  <anchor x="1123.72" y="354" name="cross"/>
  <anchor x="1024.2" y="1490" name="top"/>
  <anchor x="1520.32" y="1024" name="topr"/>
  <outline>
    <contour>
      <point x="766.4" y="-20" type="curve" smooth="yes"/>
      <point x="1115.4" y="-20"/>
      <point x="1376.48" y="236"/>
      <point x="1447.04" y="628" type="curve" smooth="yes"/>
      <point x="1448.48" y="636" type="line"/>
      <point x="1417.48" y="636" type="line"/>
      <point x="1350.16" y="262"/>
      <point x="1099.68" y="26"/>
      <point x="774.68" y="26" type="curve" smooth="yes"/>
      <point x="423.68" y="26"/>
      <point x="251.42" y="319"/>
      <point x="327.91999999999996" y="744" type="curve" smooth="yes"/>
      <point x="405.5" y="1175"/>
      <point x="686.52" y="1464"/>
      <point x="1029.52" y="1464" type="curve" smooth="yes"/>
      <point x="1334.52" y="1464"/>
      <point x="1474.86" y="1227"/>
      <point x="1473.32" y="1024" type="curve"/>
      <point x="1520.32" y="1024" type="line"/>
      <point x="1522.48" y="1236"/>
      <point x="1384.8" y="1510"/>
      <point x="1037.8" y="1510" type="curve" smooth="yes"/>
      <point x="667.8" y="1510"/>
      <point x="364.53999999999996" y="1203"/>
      <point x="281.91999999999996" y="744" type="curve" smooth="yes"/>
      <point x="200.01999999999998" y="289"/>
      <point x="389.4" y="-20"/>
    </contour>
    <contour>
      <point x="1308.0" y="0" type="line"/>
      <point x="1346.0" y="0" type="line"/>
      <point x="1466.96" y="672" type="line"/>
      <point x="904.96" y="672" type="line"/>
      <point x="896.68" y="626" type="line"/>
      <point x="1424.68" y="626" type="line"/>
      <point x="1386.62" y="459" type="line"/>
    </contour>
  </outline>
</glyph>
<glyph name="H" format="2">
  <advance width="1506"/>
  <unicode hex="0048"/>
  <anchor x="661" y="0" name="bottom"/>
  <anchor x="164" y="0" name="cedilla"/>
  <anchor x="1181" y="0" name="cyrtic"/>
  <anchor x="1135" y="0" name="lfthook"/>
  <anchor x="1181" y="0" name="right"/>
  <anchor x="386" y="1490" name="tonos"/>
  <anchor x="908" y="1490" name="top"/>
  <outline>
    <contour>
      <point x="139" y="0" type="line"/>
      <point x="187" y="0" type="line"/>
      <point x="309" y="738" type="line"/>
      <point x="1257" y="738" type="line"/>
      <point x="1135" y="0" type="line"/>
      <point x="1181" y="0" type="line"/>
      <point x="1428" y="1490" type="line"/>
      <point x="1382" y="1490" type="line"/>
      <point x="1265" y="784" type="line"/>
      <point x="317" y="784" type="line"/>
      <point x="434" y="1490" type="line"/>
      <point x="386" y="1490" type="line"/>
    </contour>
  </outline>
</glyph>
<glyph name="I" format="2">
  <advance width="510"/>
  <unicode hex="0049"/>
  <anchor x="162" y="0" name="bottom"/>
  <anchor x="289" y="768" name="cross"/>
  <anchor x="185" y="0" name="ogonek"/>
  <anchor x="193" y="0" name="right"/>
  <anchor x="386" y="1490" name="tonos"/>
  <anchor x="409" y="1490" name="top"/>
  <outline>
    <contour>
      <point x="477" y="1490" type="line"/>
      <point x="341" y="1490" type="line"/>
      <point x="330" y="1426" type="line"/>
      <point x="375" y="1426" type="line"/>
      <point x="150" y="64" type="line"/>
      <point x="105" y="64" type="line"/>
      <point x="94" y="0" type="line"/>
      <point x="230" y="0" type="line"/>
      <point x="241" y="64" type="line"/>
      <point x="196" y="64" type="line"/>
      <point x="421" y="1426" type="line"/>
      <point x="466" y="1426" type="line"/>
    </contour>
  </outline>
</glyph>
<glyph name="J" format="2">
  <advance width="1144"/>
  <unicode hex="004A"/>
  <anchor x="973" y="884" name="cross"/>
  <anchor x="1074" y="1490" name="top"/>
  <outline>
    <contour>
      <point x="464" y="-20" type="curve" smooth="yes"/>
      <point x="705" y="-20"/>
      <point x="875" y="140"/>
      <point x="917" y="396" type="curve" smooth="yes"/>
      <point x="1098" y="1490" type="line"/>
      <point x="1051" y="1490" type="line"/>
      <point x="870" y="396" type="line" smooth="yes"/>
      <point x="832" y="167"/>
      <point x="678" y="26"/>
      <point x="462" y="26" type="curve" smooth="yes"/>
      <point x="275" y="26"/>
      <point x="172" y="132"/>
      <point x="172" y="310" type="curve" smooth="yes"/>
      <point x="172" y="337"/>
      <point x="174" y="366"/>
      <point x="190" y="464" type="curve"/>
      <point x="144" y="464" type="line"/>
      <point x="128" y="365"/>
      <point x="126" y="335"/>
      <point x="126" y="307" type="curve" smooth="yes"/>
      <point x="126" y="103"/>
      <point x="252" y="-20"/>
    </contour>
  </outline>
</glyph>
<glyph name="K" format="2">
  <advance width="1224"/>
  <unicode hex="004B"/>
  <anchor x="569" y="0" name="bottom"/>
  <anchor x="816" y="1490" name="top"/>
  <outline>
    <contour>
      <point x="269" y="536" type="line"/>
      <point x="575" y="817" type="line"/>
      <point x="589" y="828" type="line"/>
      <point x="1312" y="1490" type="line"/>
      <point x="1246" y="1490" type="line"/>
      <point x="659" y="952" type="line" smooth="yes"/>
      <point x="518" y="822"/>
      <point x="399" y="713"/>
      <point x="258" y="584" type="curve"/>
    </contour>
    <contour>
      <point x="139" y="0" type="line"/>
      <point x="185" y="0" type="line"/>
      <point x="278" y="560" type="line"/>
      <point x="283.005" y="592" type="line"/>
      <point x="344" y="960" type="line"/>
      <point x="432" y="1490" type="line"/>
      <point x="386" y="1490" type="line"/>
    </contour>
    <contour>
      <point x="1012" y="0" type="line"/>
      <point x="1063" y="0" type="line"/>
      <point x="598" y="852" type="line"/>
      <point x="561" y="826" type="line"/>
    </contour>
  </outline>
</glyph>
<glyph name="L" format="2">
  <advance width="1152"/>
  <unicode hex="004C"/>
  <anchor x="535" y="0" name="bottom"/>
  <anchor x="414" y="745" name="cross"/>
  <anchor x="637" y="748" name="dot"/>
  <anchor x="780" y="1490" name="raccent"/>
  <anchor x="410" y="1490" name="top"/>
  <outline>
    <contour>
      <point x="139" y="0" type="line"/>
      <point x="931" y="0" type="line"/>
      <point x="939" y="46" type="line"/>
      <point x="195" y="46" type="line"/>
      <point x="434" y="1490" type="line"/>
      <point x="386" y="1490" type="line"/>
    </contour>
  </outline>
</glyph>
<glyph name="M" format="2">
  <advance width="1832"/>
  <unicode hex="004D"/>
  <anchor x="823" y="0" name="bottom"/>
  <anchor x="1475" y="0" name="cyrtic"/>
  <anchor x="1070" y="1490" name="top"/>
  <outline>
    <contour>
      <point x="139" y="0" type="line"/>
      <point x="185" y="0" type="line"/>
      <point x="373" y="1136" type="line" smooth="yes"/>
      <point x="391" y="1243"/>
      <point x="409" y="1357"/>
      <point x="426" y="1464" type="curve"/>
      <point x="412" y="1464" type="line"/>
      <point x="439" y="1351"/>
      <point x="466" y="1243"/>
      <point x="495" y="1136" type="curve" smooth="yes"/>
      <point x="800" y="0" type="line"/>
      <point x="846" y="0" type="line"/>
      <point x="1527" y="1136" type="line" smooth="yes"/>
      <point x="1591" y="1243"/>
      <point x="1655" y="1351"/>
      <point x="1718" y="1464" type="curve"/>
      <point x="1704" y="1464" type="line"/>
      <point x="1687" y="1357"/>
      <point x="1667" y="1243"/>
      <point x="1649" y="1136" type="curve" smooth="yes"/>
      <point x="1461" y="0" type="line"/>
      <point x="1507" y="0" type="line"/>
      <point x="1754" y="1490" type="line"/>
      <point x="1690" y="1490" type="line"/>
      <point x="979" y="304" type="line" smooth="yes"/>
      <point x="925" y="213"/>
      <point x="870" y="119"/>
      <point x="815" y="24" type="curve"/>
      <point x="839" y="24" type="line"/>
      <point x="816" y="119"/>
      <point x="793" y="213"/>
      <point x="768" y="304" type="curve" smooth="yes"/>
      <point x="450" y="1490" type="line"/>
      <point x="386" y="1490" type="line"/>
    </contour>
  </outline>
</glyph>
<glyph name="N" format="2">
  <advance width="1580"/>
  <unicode hex="004E"/>
  <anchor x="697" y="0" name="bottom"/>
  <anchor x="139" y="0" name="lfthook"/>
  <anchor x="1255" y="0" name="lfthook2"/>
  <anchor x="944" y="1490" name="top"/>
  <outline>
    <contour>
      <point x="139" y="0" type="line"/>
      <point x="185" y="0" type="line"/>
      <point x="372" y="1129" type="line" smooth="yes"/>
      <point x="389" y="1233"/>
      <point x="402" y="1337"/>
      <point x="420" y="1441" type="curve"/>
      <point x="408" y="1441" type="line"/>
      <point x="466" y="1337"/>
      <point x="520" y="1233"/>
      <point x="579" y="1129" type="curve" smooth="yes"/>
      <point x="1213" y="0" type="line"/>
      <point x="1255" y="0" type="line"/>
      <point x="1502" y="1490" type="line"/>
      <point x="1456" y="1490" type="line"/>
      <point x="1268" y="359" type="line" smooth="yes"/>
      <point x="1251" y="255"/>
      <point x="1238" y="152"/>
      <point x="1221" y="48" type="curve"/>
      <point x="1234" y="48" type="line"/>
      <point x="1176" y="152"/>
      <point x="1122" y="255"/>
      <point x="1063" y="359" type="curve" smooth="yes"/>
      <point x="428" y="1490" type="line"/>
      <point x="386" y="1490" type="line"/>
    </contour>
  </outline>
</glyph>
<glyph name="O" format="2">
  <advance width="1530"/>
  <unicode hex="004F"/>
  <anchor x="673" y="0" name="bottom"/>
  <anchor x="797" y="745" name="center"/>
  <anchor x="1428" y="926" name="ogonek"/>
  <anchor x="432" y="1490" name="tonos"/>
  <anchor x="920" y="1490" name="top"/>
  <anchor x="923" y="1510" name="tophorn"/>
  <outline>
    <contour>
      <point x="673" y="-20" type="curve" smooth="yes"/>
      <point x="1141" y="-20"/>
      <point x="1428" y="466"/>
      <point x="1428" y="926" type="curve" smooth="yes"/>
      <point x="1428" y="1280"/>
      <point x="1236" y="1510"/>
      <point x="920" y="1510" type="curve" smooth="yes"/>
      <point x="454" y="1510"/>
      <point x="163" y="1024"/>
      <point x="163" y="564" type="curve" smooth="yes"/>
      <point x="163" y="211"/>
      <point x="355" y="-20"/>
    </contour>
    <contour>
      <point x="675" y="26" type="curve" smooth="yes"/>
      <point x="382" y="26"/>
      <point x="209" y="240"/>
      <point x="209" y="567" type="curve" smooth="yes"/>
      <point x="209" y="998"/>
      <point x="480" y="1464"/>
      <point x="919" y="1464" type="curve" smooth="yes"/>
      <point x="1207" y="1464"/>
      <point x="1382" y="1251"/>
      <point x="1382" y="922" type="curve" smooth="yes"/>
      <point x="1382" y="491"/>
      <point x="1111" y="26"/>
    </contour>
  </outline>
</glyph>
<glyph name="P" format="2">
  <advance width="1241"/>
  <unicode hex="0050"/>
  <anchor x="344" y="1490" name="tonos"/>
  <anchor x="792" y="1490" name="top"/>
  <anchor x="386" y="1490" name="topl"/>
  <outline>
    <contour>
      <point x="139" y="0" type="line"/>
      <point x="185" y="0" type="line"/>
      <point x="424" y="1444" type="line"/>
      <point x="816" y="1444" type="line" smooth="yes"/>
      <point x="1038" y="1444"/>
      <point x="1169" y="1281"/>
      <point x="1131" y="1054" type="curve" smooth="yes"/>
      <point x="1094" y="826"/>
      <point x="909" y="666"/>
      <point x="687" y="666" type="curve" smooth="yes"/>
      <point x="273" y="666" type="line"/>
      <point x="266" y="620" type="line"/>
      <point x="680" y="620" type="line" smooth="yes"/>
      <point x="929" y="620"/>
      <point x="1135" y="799"/>
      <point x="1177" y="1054" type="curve" smooth="yes"/>
      <point x="1220" y="1308"/>
      <point x="1073" y="1490"/>
      <point x="824" y="1490" type="curve" smooth="yes"/>
      <point x="386" y="1490" type="line"/>
    </contour>
  </outline>
</glyph>
<glyph name="Q" format="2">
  <advance width="1530"/>
  <unicode hex="0051"/>
  <anchor x="673" y="0" name="bottom"/>
  <anchor x="797" y="745" name="center"/>
  <anchor x="1428" y="926" name="ogonek"/>
  <anchor x="432" y="1490" name="tonos"/>
  <anchor x="920" y="1490" name="top"/>
  <anchor x="923" y="1510" name="tophorn"/>
  <outline>
    <contour>
      <point x="812" y="466" type="line"/>
      <point x="1013" y="122" type="line"/>
      <point x="1021" y="110" type="line"/>
      <point x="1168" y="-140" type="line"/>
      <point x="1221" y="-140" type="line"/>
      <point x="1060" y="134" type="line"/>
      <point x="1052" y="146" type="line"/>
      <point x="865" y="466" type="line"/>
    </contour>
    <component base="O"/>
  </outline>
</glyph>
<glyph name="R" format="2">
  <advance width="1260"/>
  <unicode hex="0052"/>
  <anchor x="553" y="0" name="bottom"/>
  <anchor x="780" y="1490" name="top"/>
  <outline>
    <contour>
      <point x="139" y="0" type="line"/>
      <point x="185" y="0" type="line"/>
      <point x="424" y="1444" type="line"/>
      <point x="824" y="1444" type="line" smooth="yes"/>
      <point x="1046" y="1444"/>
      <point x="1171" y="1293"/>
      <point x="1133" y="1064" type="curve" smooth="yes"/>
      <point x="1096" y="838"/>
      <point x="905" y="688"/>
      <point x="683" y="688" type="curve" smooth="yes"/>
      <point x="277" y="688" type="line"/>
      <point x="269" y="642" type="line"/>
      <point x="683" y="642" type="line" smooth="yes"/>
      <point x="932" y="642"/>
      <point x="1137" y="811"/>
      <point x="1179" y="1064" type="curve" smooth="yes"/>
      <point x="1222" y="1320"/>
      <point x="1073" y="1490"/>
      <point x="824" y="1490" type="curve" smooth="yes"/>
      <point x="386" y="1490" type="line"/>
    </contour>
    <contour>
      <point x="1024" y="0" type="line"/>
      <point x="1073" y="0" type="line"/>
      <point x="819" y="678" type="line"/>
      <point x="770" y="678" type="line"/>
    </contour>
  </outline>
</glyph>
<glyph name="S" format="2">
  <advance width="1254"/>
  <unicode hex="0053"/>
  <anchor x="531" y="0" name="bottom"/>
  <anchor x="535" y="0" name="cedilla"/>
  <anchor x="782" y="1490" name="top"/>
  <outline>
    <contour>
      <point x="525" y="-22" type="curve" smooth="yes"/>
      <point x="816" y="-22"/>
      <point x="1027.005" y="145"/>
      <point x="1066" y="378" type="curve" smooth="yes"/>
      <point x="1096" y="561"/>
      <point x="997" y="671"/>
      <point x="754" y="753" type="curve" smooth="yes"/>
      <point x="593" y="807" type="line" smooth="yes"/>
      <point x="392" y="874"/>
      <point x="307" y="977"/>
      <point x="332" y="1128" type="curve" smooth="yes"/>
      <point x="364" y="1324"/>
      <point x="565" y="1466"/>
      <point x="792" y="1466" type="curve" smooth="yes"/>
      <point x="1023" y="1466"/>
      <point x="1141" y="1321"/>
      <point x="1122" y="1118" type="curve"/>
      <point x="1168" y="1118" type="line"/>
      <point x="1191.994" y="1347"/>
      <point x="1046" y="1512"/>
      <point x="791" y="1512" type="curve" smooth="yes"/>
      <point x="537" y="1512"/>
      <point x="322" y="1348"/>
      <point x="286" y="1128" type="curve" smooth="yes"/>
      <point x="257" y="956"/>
      <point x="352" y="840"/>
      <point x="575" y="765" type="curve" smooth="yes"/>
      <point x="735" y="711" type="line" smooth="yes"/>
      <point x="972" y="631"/>
      <point x="1046" y="538"/>
      <point x="1020" y="378" type="curve" smooth="yes"/>
      <point x="985" y="167"/>
      <point x="782" y="24"/>
      <point x="525" y="24" type="curve" smooth="yes"/>
      <point x="279" y="24"/>
      <point x="152" y="154"/>
      <point x="169" y="350" type="curve"/>
      <point x="123" y="350" type="line"/>
      <point x="101" y="130"/>
      <point x="254" y="-22"/>
    </contour>
  </outline>
</glyph>
<glyph name="T" format="2">
  <advance width="1263"/>
  <unicode hex="0054"/>
  <anchor x="538" y="0" name="bottom"/>
  <anchor x="562" y="0" name="bottomr"/>
  <anchor x="539" y="0" name="cedilla"/>
  <anchor x="665" y="768" name="cross"/>
  <anchor x="562" y="0" name="cyrtic"/>
  <anchor x="550" y="0" name="right"/>
  <anchor x="785" y="1490" name="top"/>
  <outline>
    <contour>
      <point x="275" y="1444" type="line"/>
      <point x="755" y="1444" type="line"/>
      <point x="516" y="0" type="line"/>
      <point x="562" y="0" type="line"/>
      <point x="801" y="1444" type="line"/>
      <point x="1281" y="1444" type="line"/>
      <point x="1289" y="1490" type="line"/>
      <point x="283" y="1490" type="line"/>
    </contour>
  </outline>
</glyph>
<glyph name="U" format="2">
  <advance width="1472"/>
  <unicode hex="0055"/>
  <anchor x="643" y="0" name="bottom"/>
  <anchor x="1263" y="504" name="ogonek"/>
  <anchor x="705" y="0" name="right"/>
  <anchor x="1378" y="1490" name="rtophorn"/>
  <anchor x="890" y="1490" name="top"/>
  <outline>
    <contour>
      <point x="643" y="-22" type="curve" smooth="yes"/>
      <point x="947" y="-22"/>
      <point x="1212" y="199"/>
      <point x="1263" y="502" type="curve" smooth="yes"/>
      <point x="1426" y="1490" type="line"/>
      <point x="1380" y="1490" type="line"/>
      <point x="1217" y="506" type="line" smooth="yes"/>
      <point x="1171" y="230"/>
      <point x="927" y="24"/>
      <point x="644" y="24" type="curve" smooth="yes"/>
      <point x="365" y="24"/>
      <point x="191" y="226"/>
      <point x="237" y="502" type="curve" smooth="yes"/>
      <point x="400" y="1490" type="line"/>
      <point x="354" y="1490" type="line"/>
      <point x="191" y="506" type="line" smooth="yes"/>
      <point x="141" y="204"/>
      <point x="336" y="-22"/>
    </contour>
  </outline>
</glyph>
<glyph name="V" format="2">
  <advance width="1310"/>
  <unicode hex="0056"/>
  <anchor x="562" y="0" name="bottom"/>
  <anchor x="809" y="1490" name="top"/>
  <outline>
    <contour>
      <point x="531" y="0" type="line"/>
      <point x="594" y="0" type="line"/>
      <point x="1398" y="1490" type="line"/>
      <point x="1346" y="1490" type="line"/>
      <point x="725" y="336" type="line" smooth="yes"/>
      <point x="667" y="229"/>
      <point x="610" y="123"/>
      <point x="554" y="16" type="curve"/>
      <point x="572" y="16" type="line"/>
      <point x="550" y="123"/>
      <point x="529" y="229"/>
      <point x="507" y="336" type="curve" smooth="yes"/>
      <point x="266" y="1490" type="line"/>
      <point x="220" y="1490" type="line"/>
    </contour>
  </outline>
</glyph>
<glyph name="W" format="2">
  <advance width="1902"/>
  <unicode hex="0057"/>
  <anchor x="858" y="0" name="bottom"/>
  <anchor x="1105" y="1490" name="top"/>
  <outline>
    <contour>
      <point x="395" y="0" type="line"/>
      <point x="465" y="0" type="line"/>
      <point x="949" y="1104" type="line" smooth="yes"/>
      <point x="1003" y="1227"/>
      <point x="1055" y="1349"/>
      <point x="1107" y="1472" type="curve"/>
      <point x="1097" y="1472" type="line"/>
      <point x="1107" y="1349"/>
      <point x="1120" y="1227"/>
      <point x="1133" y="1104" type="curve" smooth="yes"/>
      <point x="1251" y="0" type="line"/>
      <point x="1321" y="0" type="line"/>
      <point x="1990" y="1490" type="line"/>
      <point x="1942" y="1490" type="line"/>
      <point x="1431" y="352" type="line" smooth="yes"/>
      <point x="1381" y="240"/>
      <point x="1332" y="128"/>
      <point x="1284" y="16" type="curve"/>
      <point x="1294" y="16" type="line"/>
      <point x="1284" y="128"/>
      <point x="1273" y="240"/>
      <point x="1261" y="352" type="curve" smooth="yes"/>
      <point x="1140" y="1490" type="line"/>
      <point x="1070" y="1490" type="line"/>
      <point x="571" y="352" type="line" smooth="yes"/>
      <point x="522" y="240"/>
      <point x="474" y="128"/>
      <point x="428" y="16" type="curve"/>
      <point x="438" y="16" type="line"/>
      <point x="426" y="128"/>
      <point x="414" y="240"/>
      <point x="401" y="352" type="curve" smooth="yes"/>
      <point x="268" y="1490" type="line"/>
      <point x="220" y="1490" type="line"/>
    </contour>
  </outline>
</glyph>
<glyph name="X" format="2">
  <advance width="1270"/>
  <unicode hex="0058"/>
  <anchor x="542" y="0" name="bottom"/>
  <anchor x="667" y="756" name="cross"/>
  <anchor x="1085" y="0" name="cyrtic"/>
  <anchor x="789" y="1490" name="top"/>
  <outline>
    <contour>
      <point x="-27" y="0" type="line"/>
      <point x="33" y="0" type="line"/>
      <point x="471" y="496" type="line" smooth="yes"/>
      <point x="541" y="575"/>
      <point x="608" y="654"/>
      <point x="678" y="738" type="curve"/>
      <point x="658" y="738" type="line"/>
      <point x="700" y="654"/>
      <point x="743" y="575"/>
      <point x="786" y="496" type="curve" smooth="yes"/>
      <point x="1059" y="0" type="line"/>
      <point x="1111" y="0" type="line"/>
      <point x="686" y="773" type="line"/>
      <point x="680" y="739" type="line"/>
      <point x="1342" y="1490" type="line"/>
      <point x="1282" y="1490" type="line"/>
      <point x="871" y="1024" type="line" smooth="yes"/>
      <point x="798" y="942"/>
      <point x="728" y="862"/>
      <point x="656" y="775" type="curve"/>
      <point x="677" y="775" type="line"/>
      <point x="635" y="862"/>
      <point x="590" y="942"/>
      <point x="545" y="1024" type="curve" smooth="yes"/>
      <point x="288" y="1490" type="line"/>
      <point x="236" y="1490" type="line"/>
      <point x="649" y="741" type="line"/>
      <point x="654" y="773" type="line"/>
    </contour>
  </outline>
</glyph>
<glyph name="Y" format="2">
  <advance width="1312"/>
  <unicode hex="0059"/>
  <anchor x="563" y="0" name="bottom"/>
  <anchor x="635" y="438" name="cross"/>
  <anchor x="587" y="0" name="ogonek"/>
  <anchor x="220" y="1490" name="tonos"/>
  <anchor x="810" y="1490" name="top"/>
  <outline>
    <contour>
      <point x="541" y="0" type="line"/>
      <point x="587" y="0" type="line"/>
      <point x="704" y="706" type="line"/>
      <point x="1400" y="1490" type="line"/>
      <point x="1340" y="1490" type="line"/>
      <point x="898" y="992" type="line" smooth="yes"/>
      <point x="823" y="907"/>
      <point x="748" y="821"/>
      <point x="673" y="736" type="curve"/>
      <point x="691" y="736" type="line"/>
      <point x="644" y="821"/>
      <point x="598" y="907"/>
      <point x="550" y="992" type="curve" smooth="yes"/>
      <point x="272" y="1490" type="line"/>
      <point x="220" y="1490" type="line"/>
      <point x="658" y="706" type="line"/>
    </contour>
  </outline>
</glyph>
<glyph name="Z" format="2">
  <advance width="1240"/>
  <unicode hex="005A"/>
  <anchor x="527" y="0" name="bottom"/>
  <anchor x="997" y="0" name="bottomr"/>
  <anchor x="650" y="744" name="cross"/>
  <anchor x="774" y="1490" name="top"/>
  <outline>
    <contour>
      <point x="61" y="0" type="line"/>
      <point x="997" y="0" type="line"/>
      <point x="1005" y="46" type="line"/>
      <point x="127" y="46" type="line"/>
      <point x="1232" y="1442" type="line"/>
      <point x="1240" y="1490" type="line"/>
      <point x="314" y="1490" type="line"/>
      <point x="306" y="1442" type="line"/>
      <point x="1174" y="1442" type="line"/>
      <point x="69" y="46" type="line"/>
    </contour>
  </outline>
</glyph>
<glyph name="bracketleft" format="2">
  <advance width="646"/>
  <unicode hex="005B"/>
  <anchor x="294" y="651" name="cross"/>
  <outline>
    <contour>
      <point x="117" y="-280" type="line"/>
      <point x="349" y="-280" type="line"/>
      <point x="357" y="-234" type="line"/>
      <point x="171" y="-234" type="line"/>
      <point x="464" y="1536" type="line"/>
      <point x="650" y="1536" type="line"/>
      <point x="657" y="1582" type="line"/>
      <point x="425" y="1582" type="line"/>
    </contour>
  </outline>
</glyph>
<glyph name="backslash" format="2">
  <advance width="658"/>
  <unicode hex="005C"/>
  <outline>
    <contour>
      <point x="416" y="-224" type="line"/>
      <point x="462" y="-224" type="line"/>
      <point x="278" y="1560" type="line"/>
      <point x="232" y="1560" type="line"/>
    </contour>
  </outline>
</glyph>
<glyph name="bracketright" format="2">
  <advance width="646"/>
  <unicode hex="005D"/>
  <anchor x="382" y="651" name="cross"/>
  <outline>
    <contour>
      <point x="19" y="-280" type="line"/>
      <point x="251" y="-280" type="line"/>
      <point x="559" y="1582" type="line"/>
      <point x="327" y="1582" type="line"/>
      <point x="319" y="1534" type="line"/>
      <point x="505" y="1534" type="line"/>
      <point x="213" y="-234" type="line"/>
      <point x="27" y="-234" type="line"/>
    </contour>
  </outline>
</glyph>
<glyph name="asciicircum" format="2">
  <advance width="820"/>
  <unicode hex="005E"/>
  <outline>
    <contour>
      <point x="542" y="1414" type="line"/>
      <point x="536" y="1368" type="line"/>
      <point x="564" y="1368" type="line"/>
      <point x="570" y="1414" type="line"/>
    </contour>
    <contour>
      <point x="136" y="814" type="line"/>
      <point x="190" y="814" type="line"/>
      <point x="564" y="1396" type="line"/>
      <point x="542" y="1396" type="line"/>
      <point x="712" y="814" type="line"/>
      <point x="766" y="814" type="line"/>
      <point x="574" y="1442" type="line"/>
      <point x="538" y="1442" type="line"/>
    </contour>
  </outline>
</glyph>
<glyph name="underscore" format="2">
  <advance width="885"/>
  <unicode hex="005F"/>
  <anchor x="390" y="243" name="_bottom"/>
  <outline>
    <contour>
      <point x="792" y="0" type="line"/>
      <point x="-92" y="0" type="line"/>
      <point x="-100" y="-46" type="line"/>
      <point x="784" y="-46" type="line"/>
    </contour>
  </outline>
</glyph>
<glyph name="b" format="2">
  <advance width="1191"/>
  <unicode hex="0062"/>
  <anchor x="537" y="0" name="bottom"/>
  <anchor x="367" y="1304" name="cross"/>
  <anchor x="753" y="1304" name="top"/>
  <anchor x="352" y="1490" name="topbar"/>
  <outline>
    <contour>
      <point x="537" y="-24" type="curve" smooth="yes"/>
      <point x="870" y="-24"/>
      <point x="1072" y="366"/>
      <point x="1072" y="698" type="curve" smooth="yes"/>
      <point x="1072" y="953"/>
      <point x="945" y="1134"/>
      <point x="722" y="1134" type="curve" smooth="yes"/>
      <point x="546" y="1134"/>
      <point x="382" y="1018"/>
      <point x="294" y="832" type="curve"/>
      <point x="289" y="832" type="line"/>
      <point x="398" y="1490" type="line"/>
      <point x="352" y="1490" type="line"/>
      <point x="105" y="0" type="line"/>
      <point x="151" y="0" type="line"/>
      <point x="198" y="280" type="line"/>
      <point x="204" y="280" type="line"/>
      <point x="232" y="94"/>
      <point x="355" y="-24"/>
    </contour>
    <contour>
      <point x="538" y="22" type="curve" smooth="yes"/>
      <point x="340" y="22"/>
      <point x="231" y="184"/>
      <point x="231" y="414" type="curve" smooth="yes"/>
      <point x="231" y="724"/>
      <point x="417" y="1088"/>
      <point x="721" y="1088" type="curve" smooth="yes"/>
      <point x="917" y="1088"/>
      <point x="1026" y="927"/>
      <point x="1026" y="697" type="curve" smooth="yes"/>
      <point x="1026" y="388"/>
      <point x="841" y="22"/>
    </contour>
  </outline>
</glyph>
<glyph name="c" format="2">
  <advance width="1095"/>
  <unicode hex="0063"/>
  <anchor x="501" y="0" name="bottom"/>
  <anchor x="501" y="0" name="cedilla"/>
  <anchor x="594" y="559" name="center"/>
  <anchor x="687" y="1118" name="top"/>
  <anchor x="1026" y="898" name="topr"/>
  <outline>
    <contour>
      <point x="502" y="-16" type="curve" smooth="yes"/>
      <point x="749" y="-16"/>
      <point x="906" y="201"/>
      <point x="919" y="219" type="curve"/>
      <point x="881.709" y="245.933" type="line"/>
      <point x="868.72" y="227.948"/>
      <point x="725.504" y="30"/>
      <point x="502" y="30" type="curve" smooth="yes"/>
      <point x="295" y="30"/>
      <point x="166" y="186"/>
      <point x="166" y="428" type="curve" smooth="yes"/>
      <point x="166" y="745"/>
      <point x="372" y="1088"/>
      <point x="686" y="1088" type="curve" smooth="yes"/>
      <point x="904.47" y="1088"/>
      <point x="974.418" y="899.44"/>
      <point x="984.428" y="878.308" type="curve"/>
      <point x="1026" y="898" type="line"/>
      <point x="1017" y="917"/>
      <point x="936" y="1134"/>
      <point x="686" y="1134" type="curve" smooth="yes"/>
      <point x="359" y="1134"/>
      <point x="120" y="777"/>
      <point x="120" y="435" type="curve" smooth="yes"/>
      <point x="120" y="170"/>
      <point x="271" y="-16"/>
    </contour>
  </outline>
</glyph>
<glyph name="d" format="2">
  <advance width="1190"/>
  <unicode hex="0064"/>
  <anchor x="467" y="0" name="bottom"/>
  <anchor x="899" y="0" name="bottomr"/>
  <anchor x="1069" y="1304" name="cross"/>
  <anchor x="1276" y="1490" name="raccent"/>
  <anchor x="683" y="1304" name="top"/>
  <anchor x="1146" y="1490" name="topbar"/>
  <outline>
    <contour>
      <point x="467" y="-24" type="curve" smooth="yes"/>
      <point x="645" y="-24"/>
      <point x="804" y="94"/>
      <point x="894" y="280" type="curve"/>
      <point x="900" y="280" type="line"/>
      <point x="853" y="0" type="line"/>
      <point x="899" y="0" type="line"/>
      <point x="1146" y="1490" type="line"/>
      <point x="1100" y="1490" type="line"/>
      <point x="991" y="832" type="line"/>
      <point x="984" y="832" type="line"/>
      <point x="958" y="1018"/>
      <point x="832" y="1134"/>
      <point x="652" y="1134" type="curve" smooth="yes"/>
      <point x="317" y="1134"/>
      <point x="117" y="742"/>
      <point x="117" y="412" type="curve" smooth="yes"/>
      <point x="117" y="156"/>
      <point x="243" y="-24"/>
    </contour>
    <contour>
      <point x="468" y="22" type="curve" smooth="yes"/>
      <point x="271" y="22"/>
      <point x="163" y="184"/>
      <point x="163" y="414" type="curve" smooth="yes"/>
      <point x="163" y="725"/>
      <point x="349" y="1088"/>
      <point x="651" y="1088" type="curve" smooth="yes"/>
      <point x="848" y="1088"/>
      <point x="958" y="926"/>
      <point x="958" y="696" type="curve" smooth="yes"/>
      <point x="958" y="391"/>
      <point x="775" y="22"/>
    </contour>
  </outline>
</glyph>
<glyph name="e" format="2">
  <advance width="1129"/>
  <unicode hex="0065"/>
  <anchor x="500" y="0" name="bottom"/>
  <anchor x="504" y="0" name="cedilla"/>
  <anchor x="947" y="198" name="ogonek"/>
  <anchor x="698" y="1118" name="top"/>
  <outline>
    <contour>
      <point x="513" y="-16" type="curve" smooth="yes"/>
      <point x="678" y="-16"/>
      <point x="844" y="73"/>
      <point x="947" y="198" type="curve"/>
      <point x="911" y="227" type="line"/>
      <point x="816" y="112"/>
      <point x="666" y="30"/>
      <point x="513" y="30" type="curve" smooth="yes"/>
      <point x="309" y="30"/>
      <point x="165" y="182"/>
      <point x="165" y="408" type="curve" smooth="yes"/>
      <point x="165" y="806"/>
      <point x="396" y="1088"/>
      <point x="722" y="1088" type="curve" smooth="yes"/>
      <point x="895" y="1088"/>
      <point x="985" y="1012"/>
      <point x="985" y="860" type="curve" smooth="yes"/>
      <point x="985" y="592"/>
      <point x="656" y="581"/>
      <point x="159" y="581" type="curve"/>
      <point x="159" y="535" type="line"/>
      <point x="696" y="535"/>
      <point x="1031" y="559"/>
      <point x="1031" y="863" type="curve" smooth="yes"/>
      <point x="1031" y="1036"/>
      <point x="922" y="1134"/>
      <point x="722" y="1134" type="curve" smooth="yes"/>
      <point x="369" y="1134"/>
      <point x="119" y="833"/>
      <point x="119" y="408" type="curve" smooth="yes"/>
      <point x="119" y="160"/>
      <point x="282" y="-16"/>
    </contour>
  </outline>
</glyph>
<glyph name="f" format="2">
  <advance width="594"/>
  <unicode hex="0066"/>
  <anchor x="287" y="768" name="cross"/>
  <anchor x="550" y="1548" name="top"/>
  <anchor x="158" y="0" name="bottom"/>
  <outline>
    <contour>
      <point x="641" y="1118" type="line"/>
      <point x="103" y="1118" type="line"/>
      <point x="95" y="1072" type="line"/>
      <point x="633" y="1072" type="line"/>
    </contour>
    <component base="_part.f_base" xOffset="-66"/>
  </outline>
</glyph>
<glyph name="g" format="2">
  <advance width="1190"/>
  <unicode hex="0067"/>
  <anchor x="397" y="-436" name="bottom"/>
  <anchor x="968" y="558" name="cross"/>
  <anchor x="689" y="1118" name="top"/>
  <anchor x="1085" y="1118" name="topr"/>
  <outline>
    <contour>
      <point x="413" y="-442" type="curve" smooth="yes"/>
      <point x="670" y="-442"/>
      <point x="849" y="-301"/>
      <point x="895" y="-26" type="curve" smooth="yes"/>
      <point x="1085" y="1118" type="line"/>
      <point x="1039" y="1118" type="line"/>
      <point x="991" y="832" type="line"/>
      <point x="985" y="832" type="line"/>
      <point x="955" y="1018"/>
      <point x="836" y="1134"/>
      <point x="654" y="1134" type="curve" smooth="yes"/>
      <point x="318" y="1134"/>
      <point x="118" y="746"/>
      <point x="118" y="419" type="curve" smooth="yes"/>
      <point x="118" y="166"/>
      <point x="248" y="0"/>
      <point x="473" y="0" type="curve" smooth="yes"/>
      <point x="636" y="0"/>
      <point x="804" y="93"/>
      <point x="894" y="280" type="curve"/>
      <point x="900" y="280" type="line"/>
      <point x="850" y="-22" type="line" smooth="yes"/>
      <point x="809" y="-272"/>
      <point x="649" y="-396"/>
      <point x="415" y="-396" type="curve" smooth="yes"/>
      <point x="248" y="-396"/>
      <point x="126" y="-333"/>
      <point x="98" y="-201" type="curve"/>
      <point x="52" y="-217" type="line"/>
      <point x="84" y="-366"/>
      <point x="224" y="-442"/>
    </contour>
    <contour>
      <point x="474" y="46" type="curve" smooth="yes"/>
      <point x="276" y="46"/>
      <point x="163" y="192"/>
      <point x="163" y="420" type="curve" smooth="yes"/>
      <point x="163" y="725"/>
      <point x="349" y="1088"/>
      <point x="653" y="1088" type="curve" smooth="yes"/>
      <point x="850" y="1088"/>
      <point x="958" y="927"/>
      <point x="958" y="698" type="curve" smooth="yes"/>
      <point x="958" y="389"/>
      <point x="786" y="46"/>
    </contour>
  </outline>
</glyph>
<glyph name="h" format="2">
  <advance width="1196"/>
  <unicode hex="0068"/>
  <anchor x="505" y="0" name="bottom"/>
  <anchor x="128" y="0" name="cedilla"/>
  <anchor x="367" y="1304" name="cross"/>
  <anchor x="859" y="0" name="lfthook"/>
  <anchor x="375" y="1490" name="top"/>
  <outline>
    <contour>
      <point x="275" y="750" type="line" smooth="yes"/>
      <point x="307" y="946"/>
      <point x="487" y="1088"/>
      <point x="695" y="1088" type="curve" smooth="yes"/>
      <point x="898" y="1088"/>
      <point x="1017" y="953"/>
      <point x="983" y="750" type="curve" smooth="yes"/>
      <point x="859" y="0" type="line"/>
      <point x="905" y="0" type="line"/>
      <point x="1029" y="750" type="line" smooth="yes"/>
      <point x="1067" y="979"/>
      <point x="924" y="1134"/>
      <point x="695" y="1134" type="curve" smooth="yes"/>
      <point x="525" y="1134"/>
      <point x="361" y="1049"/>
      <point x="284" y="878" type="curve"/>
      <point x="296" y="878" type="line"/>
      <point x="398" y="1490" type="line"/>
      <point x="352" y="1490" type="line"/>
      <point x="105" y="0" type="line"/>
      <point x="151" y="0" type="line"/>
    </contour>
  </outline>
</glyph>
<glyph name="k" format="2">
  <advance width="998"/>
  <unicode hex="006B"/>
  <anchor x="445" y="0" name="bottom"/>
  <anchor x="375" y="1490" name="top"/>
  <outline>
    <contour>
      <point x="213" y="450" type="line"/>
      <point x="404" y="610" type="line"/>
      <point x="411" y="616" type="line"/>
      <point x="1002" y="1118" type="line"/>
      <point x="936" y="1118" type="line"/>
      <point x="245" y="531" type="line"/>
      <point x="227" y="531" type="line"/>
    </contour>
    <contour>
      <point x="105" y="0" type="line"/>
      <point x="151" y="0" type="line"/>
      <point x="398" y="1490" type="line"/>
      <point x="352" y="1490" type="line"/>
    </contour>
    <contour>
      <point x="776" y="0" type="line"/>
      <point x="835" y="0" type="line"/>
      <point x="427" y="645" type="line"/>
      <point x="387" y="616" type="line"/>
    </contour>
  </outline>
</glyph>
<glyph name="l" format="2">
  <advance width="442"/>
  <unicode hex="006C"/>
  <anchor x="129" y="0" name="bottom"/>
  <anchor x="151" y="0" name="bottomr"/>
  <anchor x="274" y="745" name="centerr"/>
  <anchor x="256" y="768" name="cross"/>
  <anchor x="536" y="1490" name="raccent"/>
  <anchor x="375" y="1490" name="top"/>
  <outline>
    <contour>
      <point x="398" y="1490" type="line"/>
      <point x="352" y="1490" type="line"/>
      <point x="105" y="0" type="line"/>
      <point x="151" y="0" type="line"/>
    </contour>
  </outline>
</glyph>
<glyph name="m" format="2">
  <advance width="1774"/>
  <unicode hex="006D"/>
  <anchor x="794" y="0" name="bottom"/>
  <anchor x="1437" y="0" name="lfthook"/>
  <anchor x="980" y="1118" name="top"/>
  <outline>
    <contour>
      <point x="105" y="0" type="line"/>
      <point x="151" y="0" type="line"/>
      <point x="275" y="748" type="line" smooth="yes"/>
      <point x="308" y="945"/>
      <point x="477" y="1088"/>
      <point x="667" y="1088" type="curve" smooth="yes"/>
      <point x="840" y="1088"/>
      <point x="932" y="968"/>
      <point x="896" y="752" type="curve" smooth="yes"/>
      <point x="771" y="0" type="line"/>
      <point x="817" y="0" type="line"/>
      <point x="941" y="748" type="line" smooth="yes"/>
      <point x="977" y="964"/>
      <point x="1144" y="1088"/>
      <point x="1327" y="1088" type="curve" smooth="yes"/>
      <point x="1505" y="1088"/>
      <point x="1598" y="968"/>
      <point x="1562" y="752" type="curve" smooth="yes"/>
      <point x="1437" y="0" type="line"/>
      <point x="1483" y="0" type="line"/>
      <point x="1607" y="748" type="line" smooth="yes"/>
      <point x="1647" y="985"/>
      <point x="1539" y="1134"/>
      <point x="1328" y="1134" type="curve" smooth="yes"/>
      <point x="1154" y="1134"/>
      <point x="994" y="1027"/>
      <point x="925" y="840" type="curve"/>
      <point x="943" y="836" type="line"/>
      <point x="945" y="1023"/>
      <point x="835" y="1134"/>
      <point x="668" y="1134" type="curve" smooth="yes"/>
      <point x="522" y="1134"/>
      <point x="355" y="1053"/>
      <point x="277" y="856" type="curve"/>
      <point x="293" y="854" type="line"/>
      <point x="337" y="1118" type="line"/>
      <point x="291" y="1118" type="line"/>
    </contour>
  </outline>
</glyph>
<glyph name="n" format="2">
  <advance width="1197"/>
  <unicode hex="006E"/>
  <anchor x="506" y="0" name="bottom"/>
  <anchor x="906" y="0" name="bottomr"/>
  <anchor x="106" y="0" name="lfthook"/>
  <anchor x="693" y="1118" name="top"/>
  <anchor x="337" y="1118" name="topr"/>
  <outline>
    <contour>
      <point x="276" y="750" type="line" smooth="yes"/>
      <point x="308" y="946"/>
      <point x="496" y="1088"/>
      <point x="704" y="1088" type="curve" smooth="yes"/>
      <point x="907" y="1088"/>
      <point x="1018" y="953"/>
      <point x="984" y="750" type="curve" smooth="yes"/>
      <point x="860" y="0" type="line"/>
      <point x="906" y="0" type="line"/>
      <point x="1030" y="750" type="line" smooth="yes"/>
      <point x="1068" y="979"/>
      <point x="933" y="1134"/>
      <point x="704" y="1134" type="curve" smooth="yes"/>
      <point x="534" y="1134"/>
      <point x="362" y="1049"/>
      <point x="285" y="878" type="curve"/>
      <point x="297" y="878" type="line"/>
      <point x="337" y="1118" type="line"/>
      <point x="291" y="1118" type="line"/>
      <point x="106" y="0" type="line"/>
      <point x="152" y="0" type="line"/>
    </contour>
  </outline>
</glyph>
<glyph name="o" format="2">
  <advance width="1186"/>
  <unicode hex="006F"/>
  <anchor x="501" y="0" name="bottom"/>
  <anchor x="594" y="559" name="center"/>
  <anchor x="1056" y="556" name="ogonek"/>
  <anchor x="687" y="1118" name="top"/>
  <anchor x="689" y="1134" name="tophorn"/>
  <outline>
    <contour>
      <point x="501" y="-24" type="curve" smooth="yes"/>
      <point x="827" y="-24"/>
      <point x="1066" y="340"/>
      <point x="1066" y="679" type="curve" smooth="yes"/>
      <point x="1066" y="944"/>
      <point x="915" y="1134"/>
      <point x="686" y="1134" type="curve" smooth="yes"/>
      <point x="359" y="1134"/>
      <point x="119" y="772"/>
      <point x="119" y="432" type="curve" smooth="yes"/>
      <point x="119" y="166"/>
      <point x="270" y="-24"/>
    </contour>
    <contour>
      <point x="502" y="22" type="curve" smooth="yes"/>
      <point x="296" y="22"/>
      <point x="165" y="191"/>
      <point x="165" y="434" type="curve" smooth="yes"/>
      <point x="165" y="762"/>
      <point x="398" y="1088"/>
      <point x="685" y="1088" type="curve" smooth="yes"/>
      <point x="889" y="1088"/>
      <point x="1020" y="918"/>
      <point x="1020" y="677" type="curve" smooth="yes"/>
      <point x="1020" y="367"/>
      <point x="803" y="22"/>
    </contour>
  </outline>
</glyph>
<glyph name="p" format="2">
  <advance width="1191"/>
  <unicode hex="0070"/>
  <anchor x="60" y="-418" name="bottom"/>
  <anchor x="103" y="-162" name="cross"/>
  <anchor x="721" y="1118" name="top"/>
  <anchor x="337" y="1118" name="topr"/>
  <outline>
    <contour>
      <point x="36" y="-418" type="line"/>
      <point x="82" y="-418" type="line"/>
      <point x="198" y="280" type="line"/>
      <point x="204" y="280" type="line"/>
      <point x="232" y="94"/>
      <point x="355" y="-24"/>
      <point x="537" y="-24" type="curve" smooth="yes"/>
      <point x="870" y="-24"/>
      <point x="1072" y="366"/>
      <point x="1072" y="698" type="curve" smooth="yes"/>
      <point x="1072" y="953"/>
      <point x="945" y="1134"/>
      <point x="722" y="1134" type="curve" smooth="yes"/>
      <point x="546" y="1134"/>
      <point x="382" y="1018"/>
      <point x="294" y="832" type="curve"/>
      <point x="289" y="832" type="line"/>
      <point x="337" y="1118" type="line"/>
      <point x="291" y="1118" type="line"/>
    </contour>
    <contour>
      <point x="538" y="22" type="curve" smooth="yes"/>
      <point x="340" y="22"/>
      <point x="231" y="184"/>
      <point x="231" y="414" type="curve" smooth="yes"/>
      <point x="231" y="724"/>
      <point x="417" y="1088"/>
      <point x="721" y="1088" type="curve" smooth="yes"/>
      <point x="917" y="1088"/>
      <point x="1026" y="927"/>
      <point x="1026" y="697" type="curve" smooth="yes"/>
      <point x="1026" y="388"/>
      <point x="841" y="22"/>
    </contour>
  </outline>
</glyph>
<glyph name="q" format="2">
  <advance width="1190"/>
  <unicode hex="0071"/>
  <anchor x="806" y="-418" name="bottom"/>
  <anchor x="849" y="-162" name="cross"/>
  <anchor x="688" y="1118" name="top"/>
  <anchor x="1085" y="1118" name="topr"/>
  <outline>
    <contour>
      <point x="830" y="-418" type="line"/>
      <point x="1085" y="1118" type="line"/>
      <point x="1039" y="1118" type="line"/>
      <point x="991" y="832" type="line"/>
      <point x="984" y="832" type="line"/>
      <point x="958" y="1018"/>
      <point x="832" y="1134"/>
      <point x="652" y="1134" type="curve" smooth="yes"/>
      <point x="317" y="1134"/>
      <point x="117" y="742"/>
      <point x="117" y="412" type="curve" smooth="yes"/>
      <point x="117" y="156"/>
      <point x="243" y="-24"/>
      <point x="467" y="-24" type="curve" smooth="yes"/>
      <point x="645" y="-24"/>
      <point x="804" y="94"/>
      <point x="894" y="280" type="curve"/>
      <point x="900" y="280" type="line"/>
      <point x="784" y="-418" type="line"/>
    </contour>
    <contour>
      <point x="468" y="22" type="curve" smooth="yes"/>
      <point x="271" y="22"/>
      <point x="163" y="184"/>
      <point x="163" y="414" type="curve" smooth="yes"/>
      <point x="163" y="725"/>
      <point x="349" y="1088"/>
      <point x="651" y="1088" type="curve" smooth="yes"/>
      <point x="848" y="1088"/>
      <point x="958" y="926"/>
      <point x="958" y="696" type="curve" smooth="yes"/>
      <point x="958" y="391"/>
      <point x="775" y="22"/>
    </contour>
  </outline>
</glyph>
<glyph name="r" format="2">
  <advance width="667"/>
  <unicode hex="0072"/>
  <anchor x="130" y="0" name="bottom"/>
  <anchor x="152" y="0" name="bottomr"/>
  <anchor x="219" y="536" name="cross"/>
  <anchor x="521" y="1118" name="top"/>
  <outline>
    <contour>
      <point x="106" y="0" type="line"/>
      <point x="152" y="0" type="line"/>
      <point x="276" y="750" type="line" smooth="yes"/>
      <point x="308" y="945"/>
      <point x="475" y="1086"/>
      <point x="672" y="1086" type="curve" smooth="yes"/>
      <point x="684" y="1086"/>
      <point x="689" y="1086"/>
      <point x="696" y="1086" type="curve"/>
      <point x="703" y="1132" type="line"/>
      <point x="691" y="1132"/>
      <point x="691" y="1132"/>
      <point x="679" y="1132" type="curve" smooth="yes"/>
      <point x="526" y="1132"/>
      <point x="386" y="1056"/>
      <point x="314" y="940" type="curve"/>
      <point x="308" y="940" type="line"/>
      <point x="337" y="1118" type="line"/>
      <point x="291" y="1118" type="line"/>
    </contour>
  </outline>
</glyph>
<glyph name="s" format="2">
  <advance width="1011"/>
  <unicode hex="0073"/>
  <anchor x="425" y="0" name="bottom"/>
  <anchor x="423" y="0" name="cedilla"/>
  <anchor x="86" y="256" name="rthook"/>
  <anchor x="611" y="1118" name="top"/>
  <outline>
    <contour>
      <point x="411" y="-24" type="curve" smooth="yes"/>
      <point x="636" y="-24"/>
      <point x="834" y="116"/>
      <point x="834" y="327" type="curve" smooth="yes"/>
      <point x="834" y="441"/>
      <point x="760" y="522"/>
      <point x="622" y="558" type="curve" smooth="yes"/>
      <point x="454" y="602" type="line" smooth="yes"/>
      <point x="327" y="635"/>
      <point x="267" y="703"/>
      <point x="267" y="796" type="curve" smooth="yes"/>
      <point x="267" y="962"/>
      <point x="416" y="1088"/>
      <point x="615" y="1088" type="curve" smooth="yes"/>
      <point x="768" y="1088"/>
      <point x="852" y="1017"/>
      <point x="874" y="872" type="curve"/>
      <point x="919" y="881" type="line"/>
      <point x="918" y="887"/>
      <point x="919" y="881"/>
      <point x="918" y="887" type="curve" smooth="yes"/>
      <point x="891" y="1050"/>
      <point x="788" y="1134"/>
      <point x="616" y="1134" type="curve" smooth="yes"/>
      <point x="399" y="1134"/>
      <point x="220" y="993"/>
      <point x="220" y="795" type="curve" smooth="yes"/>
      <point x="220" y="680"/>
      <point x="296" y="596"/>
      <point x="441" y="558" type="curve" smooth="yes"/>
      <point x="608" y="514" type="line" smooth="yes"/>
      <point x="728" y="482"/>
      <point x="788" y="418"/>
      <point x="788" y="325" type="curve" smooth="yes"/>
      <point x="788" y="147"/>
      <point x="616" y="22"/>
      <point x="412" y="22" type="curve" smooth="yes"/>
      <point x="236" y="22"/>
      <point x="139" y="105"/>
      <point x="132" y="264" type="curve"/>
      <point x="86" y="258" type="line"/>
      <point x="87" y="245"/>
      <point x="86" y="256"/>
      <point x="87" y="244" type="curve" smooth="yes"/>
      <point x="101" y="75"/>
      <point x="215" y="-24"/>
    </contour>
  </outline>
</glyph>
<glyph name="t" format="2">
  <advance width="516"/>
  <unicode hex="0074"/>
  <anchor x="334.0" y="0" name="bottom"/>
  <anchor x="334.0" y="0" name="cedilla"/>
  <anchor x="476.72" y="4" name="lfthook"/>
  <anchor x="470.12" y="1384" name="top"/>
  <anchor x="667.16" y="1562" name="raccent"/>
  <outline>
    <contour>
      <point x="677.24" y="1118" type="line"/>
      <point x="422.24" y="1118" type="line"/>
      <point x="413.96" y="1072" type="line"/>
      <point x="668.96" y="1072" type="line"/>
    </contour>
    <component base="_part.t_base" yxScale="0.18" xOffset="-70.0"/>
  </outline>
</glyph>
<glyph name="u" format="2">
  <advance width="1197"/>
  <unicode hex="0075"/>
  <anchor x="506" y="0" name="bottom"/>
  <anchor x="906" y="0" name="ogonek"/>
  <anchor x="1045" y="1118" name="rtophorn"/>
  <anchor x="691" y="1118" name="top"/>
  <outline>
    <contour>
      <point x="501" y="-16" type="curve" smooth="yes"/>
      <point x="671" y="-16"/>
      <point x="835" y="69"/>
      <point x="912" y="240" type="curve"/>
      <point x="900" y="240" type="line"/>
      <point x="860" y="0" type="line"/>
      <point x="906" y="0" type="line"/>
      <point x="1091" y="1118" type="line"/>
      <point x="1045" y="1118" type="line"/>
      <point x="921" y="368" type="line" smooth="yes"/>
      <point x="889" y="172"/>
      <point x="709" y="30"/>
      <point x="501" y="30" type="curve" smooth="yes"/>
      <point x="298" y="30"/>
      <point x="179" y="165"/>
      <point x="213" y="368" type="curve" smooth="yes"/>
      <point x="337" y="1118" type="line"/>
      <point x="291" y="1118" type="line"/>
      <point x="167" y="368" type="line" smooth="yes"/>
      <point x="129" y="139"/>
      <point x="272" y="-16"/>
    </contour>
  </outline>
</glyph>
<glyph name="v" format="2">
  <advance width="1114"/>
  <unicode hex="0076"/>
  <anchor x="465" y="0" name="bottom"/>
  <anchor x="650" y="1118" name="top"/>
  <outline>
    <contour>
      <point x="435" y="0" type="line"/>
      <point x="495" y="0" type="line"/>
      <point x="1107" y="1118" type="line"/>
      <point x="1056" y="1118" type="line"/>
      <point x="628" y="336" type="line" smooth="yes"/>
      <point x="572" y="235"/>
      <point x="519" y="131"/>
      <point x="461" y="30" type="curve"/>
      <point x="474" y="30" type="line"/>
      <point x="450" y="131"/>
      <point x="431" y="235"/>
      <point x="409" y="336" type="curve" smooth="yes"/>
      <point x="239" y="1118" type="line"/>
      <point x="193" y="1118" type="line"/>
    </contour>
  </outline>
</glyph>
<glyph name="w" format="2">
  <advance width="1656"/>
  <unicode hex="0077"/>
  <anchor x="736" y="0" name="bottom"/>
  <anchor x="921" y="1118" name="top"/>
  <outline>
    <contour>
      <point x="323" y="0" type="line"/>
      <point x="387" y="0" type="line"/>
      <point x="813" y="864" type="line" smooth="yes"/>
      <point x="852" y="944"/>
      <point x="889" y="1018"/>
      <point x="927" y="1098" type="curve"/>
      <point x="909" y="1098" type="line"/>
      <point x="921" y="1018"/>
      <point x="932" y="944"/>
      <point x="945" y="864" type="curve" smooth="yes"/>
      <point x="1085" y="0" type="line"/>
      <point x="1149" y="0" type="line"/>
      <point x="1660" y="1118" type="line"/>
      <point x="1613" y="1118" type="line"/>
      <point x="1234" y="288" type="line" smooth="yes"/>
      <point x="1192" y="197"/>
      <point x="1156" y="115"/>
      <point x="1116" y="24" type="curve"/>
      <point x="1126" y="24" type="line"/>
      <point x="1113" y="115"/>
      <point x="1100" y="198"/>
      <point x="1086" y="288" type="curve" smooth="yes"/>
      <point x="951" y="1118" type="line"/>
      <point x="891" y="1118" type="line"/>
      <point x="482" y="288" type="line" smooth="yes"/>
      <point x="437" y="198"/>
      <point x="397" y="115"/>
      <point x="354" y="24" type="curve"/>
      <point x="364" y="24" type="line"/>
      <point x="354" y="115"/>
      <point x="345" y="197"/>
      <point x="334" y="288" type="curve" smooth="yes"/>
      <point x="229" y="1118" type="line"/>
      <point x="182" y="1118" type="line"/>
    </contour>
  </outline>
</glyph>
<glyph name="x" format="2">
  <advance width="1024"/>
  <unicode hex="0078"/>
  <anchor x="419" y="0" name="bottom"/>
  <anchor x="840" y="0" name="cyrtic"/>
  <anchor x="741" y="0" name="right"/>
  <anchor x="604" y="1118" name="top"/>
  <outline>
    <contour>
      <point x="-33" y="0" type="line"/>
      <point x="28" y="0" type="line"/>
      <point x="360" y="368" type="line" smooth="yes"/>
      <point x="416" y="430"/>
      <point x="469" y="491"/>
      <point x="526" y="553" type="curve"/>
      <point x="504" y="553" type="line"/>
      <point x="538" y="491"/>
      <point x="571" y="430"/>
      <point x="607" y="368" type="curve" smooth="yes"/>
      <point x="818" y="0" type="line"/>
      <point x="871" y="0" type="line"/>
      <point x="533" y="589" type="line"/>
      <point x="527" y="555" type="line"/>
      <point x="1037" y="1118" type="line"/>
      <point x="976" y="1118" type="line"/>
      <point x="689" y="800" type="line" smooth="yes"/>
      <point x="625" y="730"/>
      <point x="564" y="661"/>
      <point x="502" y="591" type="curve"/>
      <point x="524" y="591" type="line"/>
      <point x="484" y="661"/>
      <point x="446" y="730"/>
      <point x="406" y="800" type="curve" smooth="yes"/>
      <point x="224" y="1118" type="line"/>
      <point x="171" y="1118" type="line"/>
      <point x="494" y="555" type="line"/>
      <point x="500" y="589" type="line"/>
    </contour>
  </outline>
</glyph>
<glyph name="y" format="2">
  <advance width="1114"/>
  <unicode hex="0079"/>
  <anchor x="666" y="0" name="bottom"/>
  <anchor x="494" y="0" name="ogonek"/>
  <anchor x="649" y="1118" name="top"/>
  <outline>
    <contour>
      <point x="-24" y="-398" type="line"/>
      <point x="16" y="-417"/>
      <point x="58" y="-426"/>
      <point x="95" y="-426" type="curve" smooth="yes"/>
      <point x="205" y="-426"/>
      <point x="302" y="-352"/>
      <point x="379" y="-212" type="curve" smooth="yes"/>
      <point x="1107" y="1118" type="line"/>
      <point x="1055" y="1118" type="line"/>
      <point x="627" y="336" type="line" smooth="yes"/>
      <point x="568" y="229"/>
      <point x="513" y="123"/>
      <point x="457" y="16" type="curve"/>
      <point x="469" y="16" type="line"/>
      <point x="450" y="123"/>
      <point x="431" y="229"/>
      <point x="408" y="336" type="curve" smooth="yes"/>
      <point x="240" y="1118" type="line"/>
      <point x="193" y="1118" type="line"/>
      <point x="438" y="-14" type="line"/>
      <point x="339" y="-195" type="line" smooth="yes"/>
      <point x="251" y="-356"/>
      <point x="138" y="-419"/>
      <point x="10" y="-362" type="curve" smooth="yes"/>
      <point x="1" y="-358" type="line"/>
    </contour>
  </outline>
</glyph>
<glyph name="z" format="2">
  <advance width="1072"/>
  <unicode hex="007A"/>
  <anchor x="411" y="0" name="bottom"/>
  <anchor x="821" y="0" name="bottomr"/>
  <anchor x="519" y="558" name="cross"/>
  <anchor x="612" y="1118" name="top"/>
  <outline>
    <contour>
      <point x="65" y="0" type="line"/>
      <point x="821" y="0" type="line"/>
      <point x="829" y="46" type="line"/>
      <point x="135" y="46" type="line"/>
      <point x="136" y="52" type="line"/>
      <point x="968" y="1070" type="line"/>
      <point x="976" y="1118" type="line"/>
      <point x="292" y="1118" type="line"/>
      <point x="284" y="1072" type="line"/>
      <point x="907" y="1072" type="line"/>
      <point x="906" y="1066" type="line"/>
      <point x="73" y="46" type="line"/>
    </contour>
  </outline>
</glyph>
<glyph name="braceleft" format="2">
  <advance width="810"/>
  <unicode hex="007B"/>
  <outline>
    <contour>
      <point x="184" y="629" type="line"/>
      <point x="378" y="629"/>
      <point x="458" y="698"/>
      <point x="490" y="889" type="curve" smooth="yes"/>
      <point x="553" y="1271" type="line" smooth="yes"/>
      <point x="584" y="1457"/>
      <point x="662" y="1536"/>
      <point x="814" y="1536" type="curve"/>
      <point x="821" y="1582" type="line"/>
      <point x="641" y="1582"/>
      <point x="541" y="1482"/>
      <point x="506" y="1271" type="curve" smooth="yes"/>
      <point x="443" y="889" type="line" smooth="yes"/>
      <point x="416" y="723"/>
      <point x="359" y="675"/>
      <point x="191" y="675" type="curve"/>
    </contour>
    <contour>
      <point x="513" y="-280" type="curve"/>
      <point x="521" y="-234" type="line"/>
      <point x="369" y="-234"/>
      <point x="317" y="-154"/>
      <point x="348" y="31" type="curve" smooth="yes"/>
      <point x="411" y="413" type="line" smooth="yes"/>
      <point x="442" y="604"/>
      <point x="385" y="675"/>
      <point x="191" y="675" type="curve"/>
      <point x="184" y="629" type="line"/>
      <point x="352" y="629"/>
      <point x="391" y="579"/>
      <point x="364" y="413" type="curve" smooth="yes"/>
      <point x="301" y="31" type="line" smooth="yes"/>
      <point x="266" y="-179"/>
      <point x="333" y="-280"/>
    </contour>
    <contour>
      <point x="184" y="629" type="line"/>
      <point x="340" y="629" type="line"/>
      <point x="347" y="675" type="line"/>
      <point x="191" y="675" type="line"/>
    </contour>
  </outline>
</glyph>
<glyph name="bar" format="2">
  <advance width="558"/>
  <unicode hex="007C"/>
  <outline>
    <contour>
      <point x="536" y="1970" type="line"/>
      <point x="490" y="1970" type="line"/>
      <point x="84" y="-480" type="line"/>
      <point x="130" y="-480" type="line"/>
    </contour>
  </outline>
</glyph>
<glyph name="braceright" format="2">
  <advance width="810"/>
  <unicode hex="007D"/>
  <outline>
    <contour>
      <point x="650" y="629" type="curve"/>
      <point x="657" y="675" type="line"/>
      <point x="489" y="675"/>
      <point x="450" y="723"/>
      <point x="477" y="889" type="curve" smooth="yes"/>
      <point x="540" y="1271" type="line" smooth="yes"/>
      <point x="575" y="1482"/>
      <point x="507" y="1582"/>
      <point x="327" y="1582" type="curve"/>
      <point x="320" y="1536" type="line"/>
      <point x="472" y="1536"/>
      <point x="524" y="1457"/>
      <point x="493" y="1271" type="curve" smooth="yes"/>
      <point x="430" y="889" type="line" smooth="yes"/>
      <point x="398" y="698"/>
      <point x="456" y="629"/>
    </contour>
    <contour>
      <point x="19" y="-280" type="line"/>
      <point x="199" y="-280"/>
      <point x="300" y="-179"/>
      <point x="335" y="31" type="curve" smooth="yes"/>
      <point x="398" y="413" type="line" smooth="yes"/>
      <point x="425" y="579"/>
      <point x="482" y="629"/>
      <point x="650" y="629" type="curve"/>
      <point x="657" y="675" type="line"/>
      <point x="463" y="675"/>
      <point x="382" y="604"/>
      <point x="351" y="413" type="curve" smooth="yes"/>
      <point x="288" y="31" type="line" smooth="yes"/>
      <point x="257" y="-154"/>
      <point x="179" y="-234"/>
      <point x="27" y="-234" type="curve"/>
    </contour>
    <contour>
      <point x="650" y="629" type="line"/>
      <point x="657" y="675" type="line"/>
      <point x="501" y="675" type="line"/>
      <point x="494" y="629" type="line"/>
    </contour>
  </outline>
</glyph>
<glyph name="asciitilde" format="2">
  <advance width="1304"/>
  <unicode hex="007E"/>
  <outline>
    <contour>
      <point x="180" y="488" type="curve"/>
      <point x="226" y="482" type="line"/>
      <point x="256" y="576"/>
      <point x="352" y="643"/>
      <point x="468" y="642" type="curve" smooth="yes"/>
      <point x="556" y="643"/>
      <point x="605" y="608"/>
      <point x="658" y="568" type="curve" smooth="yes"/>
      <point x="707" y="529"/>
      <point x="762" y="483"/>
      <point x="850" y="482" type="curve" smooth="yes"/>
      <point x="980" y="483"/>
      <point x="1082" y="553"/>
      <point x="1132" y="674" type="curve"/>
      <point x="1088" y="686" type="line"/>
      <point x="1047" y="593"/>
      <point x="957" y="529"/>
      <point x="856" y="530" type="curve" smooth="yes"/>
      <point x="785" y="529"/>
      <point x="742" y="564"/>
      <point x="690" y="602" type="curve" smooth="yes"/>
      <point x="636" y="641"/>
      <point x="576" y="689"/>
      <point x="474" y="690" type="curve" smooth="yes"/>
      <point x="329" y="689"/>
      <point x="220" y="615"/>
    </contour>
  </outline>
</glyph>
<glyph name="exclamdown" format="2">
  <advance width="554"/>
  <unicode hex="00A1"/>
  <outline>
    <contour>
      <point x="101" y="-365" type="line"/>
      <point x="147" y="-365" type="line"/>
      <point x="321" y="691" type="line"/>
      <point x="275" y="691" type="line"/>
    </contour>
    <contour>
      <point x="354" y="1028" type="curve" smooth="yes"/>
      <point x="383" y="1028"/>
      <point x="411" y="1052"/>
      <point x="416" y="1081" type="curve" smooth="yes"/>
      <point x="421" y="1110"/>
      <point x="401" y="1134"/>
      <point x="372" y="1134" type="curve" smooth="yes"/>
      <point x="343" y="1134"/>
      <point x="315" y="1110"/>
      <point x="310" y="1081" type="curve" smooth="yes"/>
      <point x="305" y="1052"/>
      <point x="325" y="1028"/>
    </contour>
  </outline>
</glyph>
<glyph name="cent" format="2">
  <advance width="1095"/>
  <unicode hex="00A2"/>
  <anchor x="532" y="190" name="bottom"/>
  <anchor x="532" y="190" name="cedilla"/>
  <anchor x="625" y="749" name="center"/>
  <anchor x="718" y="1308" name="top"/>
  <anchor x="1057" y="1088" name="topr"/>
  <outline>
    <contour>
      <point x="458" y="0" type="line"/>
      <point x="504" y="0" type="line"/>
      <point x="751" y="1490" type="line"/>
      <point x="705" y="1490" type="line"/>
    </contour>
    <component base="c" xOffset="31" yOffset="190"/>
  </outline>
</glyph>
<glyph name="sterling" format="2">
  <advance width="1224"/>
  <unicode hex="00A3"/>
  <outline>
    <contour>
      <point x="47" y="8" type="line"/>
      <point x="203" y="8"/>
      <point x="309" y="124"/>
      <point x="331" y="317" type="curve" smooth="yes"/>
      <point x="417" y="1057" type="line" smooth="yes"/>
      <point x="445" y="1299"/>
      <point x="627" y="1460"/>
      <point x="848" y="1460" type="curve" smooth="yes"/>
      <point x="1058" y="1460"/>
      <point x="1159" y="1319"/>
      <point x="1126" y="1118" type="curve"/>
      <point x="1172" y="1118" type="line"/>
      <point x="1209" y="1344"/>
      <point x="1082" y="1506"/>
      <point x="847" y="1506" type="curve" smooth="yes"/>
      <point x="592" y="1506"/>
      <point x="402" y="1320"/>
      <point x="371" y="1055" type="curve" smooth="yes"/>
      <point x="285" y="315" type="line" smooth="yes"/>
      <point x="265" y="142"/>
      <point x="184" y="46"/>
      <point x="54" y="46" type="curve"/>
    </contour>
    <contour>
      <point x="38" y="0" type="line"/>
      <point x="782" y="0" type="line" smooth="yes"/>
      <point x="919" y="0"/>
      <point x="998" y="68"/>
      <point x="1021" y="205" type="curve" smooth="yes"/>
      <point x="1029" y="252" type="line"/>
      <point x="983" y="252" type="line"/>
      <point x="975" y="205" type="line" smooth="yes"/>
      <point x="956" y="93"/>
      <point x="902" y="46"/>
      <point x="790" y="46" type="curve" smooth="yes"/>
      <point x="46" y="46" type="line"/>
    </contour>
    <contour>
      <point x="158" y="722" type="line"/>
      <point x="943" y="722" type="line"/>
      <point x="950" y="768" type="line"/>
      <point x="165" y="768" type="line"/>
    </contour>
  </outline>
</glyph>
<glyph name="currency" format="2">
  <advance width="1394"/>
  <unicode hex="00A4"/>
  <outline>
    <contour>
      <point x="600" y="-20" type="curve" smooth="yes"/>
      <point x="927" y="-20"/>
      <point x="1221" y="250"/>
      <point x="1280" y="608" type="curve" smooth="yes"/>
      <point x="1337" y="961"/>
      <point x="1130" y="1233"/>
      <point x="800" y="1234" type="curve" smooth="yes"/>
      <point x="473" y="1233"/>
      <point x="183" y="970"/>
      <point x="122" y="608" type="curve" smooth="yes"/>
      <point x="64" y="259"/>
      <point x="276" y="-20"/>
    </contour>
    <contour>
      <point x="600" y="26" type="curve" smooth="yes"/>
      <point x="303" y="26"/>
      <point x="114" y="276"/>
      <point x="168" y="608" type="curve" smooth="yes"/>
      <point x="223" y="938"/>
      <point x="499" y="1187"/>
      <point x="798" y="1186" type="curve" smooth="yes"/>
      <point x="1099" y="1187"/>
      <point x="1290" y="942"/>
      <point x="1234" y="608" type="curve" smooth="yes"/>
      <point x="1178" y="283"/>
      <point x="902" y="26"/>
    </contour>
    <contour>
      <point x="1182" y="1000" type="line"/>
      <point x="1388" y="1182" type="line"/>
      <point x="1360" y="1218" type="line"/>
      <point x="1154" y="1038" type="line"/>
    </contour>
    <contour>
      <point x="1160" y="0" type="line"/>
      <point x="1192" y="32" type="line"/>
      <point x="1048" y="212" type="line"/>
      <point x="1014" y="180" type="line"/>
    </contour>
    <contour>
      <point x="40" y="0" type="line"/>
      <point x="244" y="180" type="line"/>
      <point x="216" y="216" type="line"/>
      <point x="14" y="36" type="line"/>
    </contour>
    <contour>
      <point x="352" y="1004" type="line"/>
      <point x="386" y="1036" type="line"/>
      <point x="242" y="1216" type="line"/>
      <point x="208" y="1184" type="line"/>
    </contour>
  </outline>
</glyph>
<glyph name="yen" format="2">
  <advance width="1070"/>
  <unicode hex="00A5"/>
  <outline>
    <contour>
      <point x="248" y="1490" type="line"/>
      <point x="198" y="1490" type="line"/>
      <point x="520" y="642" type="line"/>
      <point x="570" y="642" type="line"/>
    </contour>
    <contour>
      <point x="522" y="642" type="line"/>
      <point x="578" y="642" type="line"/>
      <point x="1182" y="1490" type="line"/>
      <point x="1124" y="1490" type="line"/>
    </contour>
    <contour>
      <point x="582" y="692" type="line"/>
      <point x="536" y="692" type="line"/>
      <point x="418" y="0" type="line"/>
      <point x="466" y="0" type="line"/>
    </contour>
    <contour>
      <point x="928" y="674" type="line"/>
      <point x="184" y="674" type="line"/>
      <point x="174" y="628" type="line"/>
      <point x="920" y="628" type="line"/>
    </contour>
    <contour>
      <point x="896" y="488" type="line"/>
      <point x="152" y="488" type="line"/>
      <point x="142" y="442" type="line"/>
      <point x="888" y="442" type="line"/>
    </contour>
  </outline>
</glyph>
<glyph name="brokenbar" format="2">
  <advance width="382"/>
  <unicode hex="00A6"/>
  <outline>
    <contour>
      <point x="142" y="386" type="line"/>
      <point x="28" y="-280" type="line"/>
      <point x="74" y="-280" type="line"/>
      <point x="188" y="386" type="line"/>
    </contour>
    <contour>
      <point x="368" y="1490" type="line"/>
      <point x="322" y="1490" type="line"/>
      <point x="210" y="826" type="line"/>
      <point x="258" y="826" type="line"/>
    </contour>
  </outline>
</glyph>
<glyph name="section" format="2">
  <advance width="1112"/>
  <unicode hex="00A7"/>
  <outline>
    <contour>
      <point x="415" y="-302" type="curve" smooth="yes"/>
      <point x="612" y="-302"/>
      <point x="784" y="-187"/>
      <point x="814" y="-3" type="curve" smooth="yes"/>
      <point x="833" y="112"/>
      <point x="780" y="180"/>
      <point x="653" y="269" type="curve"/>
      <point x="658" y="270" type="line"/>
      <point x="789" y="246"/>
      <point x="928" y="333"/>
      <point x="955" y="497" type="curve" smooth="yes"/>
      <point x="977" y="633"/>
      <point x="893" y="705"/>
      <point x="676" y="851" type="curve" smooth="yes"/>
      <point x="566" y="925" type="line" smooth="yes"/>
      <point x="421" y="1023"/>
      <point x="367" y="1081"/>
      <point x="386" y="1195" type="curve" smooth="yes"/>
      <point x="411" y="1345"/>
      <point x="541" y="1460"/>
      <point x="714" y="1460" type="curve" smooth="yes"/>
      <point x="885" y="1460"/>
      <point x="941" y="1349"/>
      <point x="955" y="1199" type="curve"/>
      <point x="1000" y="1209" type="line"/>
      <point x="984" y="1377"/>
      <point x="913" y="1506"/>
      <point x="716" y="1506" type="curve" smooth="yes"/>
      <point x="519" y="1506"/>
      <point x="370" y="1375"/>
      <point x="341" y="1201" type="curve" smooth="yes"/>
      <point x="320" y="1072"/>
      <point x="389" y="1004"/>
      <point x="471" y="935" type="curve"/>
      <point x="467" y="931" type="line"/>
      <point x="344" y="944"/>
      <point x="199" y="871"/>
      <point x="172" y="707" type="curve" smooth="yes"/>
      <point x="149" y="571"/>
      <point x="237" y="495"/>
      <point x="453" y="349" type="curve" smooth="yes"/>
      <point x="565" y="274" type="line" smooth="yes"/>
      <point x="760" y="144"/>
      <point x="784" y="92"/>
      <point x="769" y="3" type="curve" smooth="yes"/>
      <point x="742" y="-159"/>
      <point x="590" y="-256"/>
      <point x="417" y="-256" type="curve" smooth="yes"/>
      <point x="258" y="-256"/>
      <point x="149" y="-174"/>
      <point x="131" y="22" type="curve"/>
      <point x="85" y="13" type="line"/>
      <point x="105" y="-202"/>
      <point x="230" y="-302"/>
    </contour>
    <contour>
      <point x="569" y="327" type="curve" smooth="yes"/>
      <point x="477" y="389" type="line" smooth="yes"/>
      <point x="276" y="525"/>
      <point x="198" y="589"/>
      <point x="217" y="701" type="curve" smooth="yes"/>
      <point x="242" y="855"/>
      <point x="424" y="966"/>
      <point x="568" y="868" type="curve" smooth="yes"/>
      <point x="656" y="809" type="line" smooth="yes"/>
      <point x="857" y="673"/>
      <point x="928" y="615"/>
      <point x="910" y="503" type="curve" smooth="yes"/>
      <point x="884" y="349"/>
      <point x="711" y="232"/>
    </contour>
  </outline>
</glyph>
<glyph name="copyright" format="2">
  <advance width="1873"/>
  <unicode hex="00A9"/>
  <outline>
    <contour>
      <point x="556" y="744" type="curve" smooth="yes"/>
      <point x="516" y="506"/>
      <point x="686" y="312"/>
      <point x="925" y="312" type="curve" smooth="yes"/>
      <point x="1096" y="312"/>
      <point x="1238" y="413"/>
      <point x="1317" y="558" type="curve"/>
      <point x="1265" y="558" type="line"/>
      <point x="1195" y="439"/>
      <point x="1070" y="360"/>
      <point x="925" y="360" type="curve" smooth="yes"/>
      <point x="712" y="360"/>
      <point x="567" y="532"/>
      <point x="602" y="744" type="curve" smooth="yes"/>
      <point x="638" y="959"/>
      <point x="839" y="1130"/>
      <point x="1052" y="1130" type="curve" smooth="yes"/>
      <point x="1197" y="1130"/>
      <point x="1296" y="1050"/>
      <point x="1327" y="930" type="curve"/>
      <point x="1379" y="930" type="line"/>
      <point x="1348" y="1076"/>
      <point x="1223" y="1176"/>
      <point x="1052" y="1176" type="curve" smooth="yes"/>
      <point x="813" y="1176"/>
      <point x="595" y="983"/>
    </contour>
    <component base="circlewhite"/>
  </outline>
</glyph>
<glyph name="ordfeminine" format="2">
  <advance width="867"/>
  <unicode hex="00AA"/>
  <anchor x="443" y="656" name="bottom"/>
  <anchor x="727" y="656" name="ogonek"/>
  <anchor x="578" y="1495" name="top"/>
  <outline>
    <contour>
      <point x="377" y="638" type="curve" smooth="yes"/>
      <point x="511" y="638"/>
      <point x="632" y="711"/>
      <point x="704" y="819" type="curve"/>
      <point x="709" y="819" type="line"/>
      <point x="682" y="656" type="line"/>
      <point x="727" y="656" type="line"/>
      <point x="825" y="1252" type="line" smooth="yes"/>
      <point x="851" y="1408"/>
      <point x="749" y="1506"/>
      <point x="574" y="1506" type="curve" smooth="yes"/>
      <point x="433" y="1506"/>
      <point x="304" y="1442"/>
      <point x="242" y="1334" type="curve"/>
      <point x="282" y="1317" type="line"/>
      <point x="334" y="1408"/>
      <point x="442" y="1463"/>
      <point x="567" y="1463" type="curve" smooth="yes"/>
      <point x="718" y="1463"/>
      <point x="801" y="1380"/>
      <point x="781" y="1254" type="curve" smooth="yes"/>
      <point x="773" y="1209" type="line" smooth="yes"/>
      <point x="762" y="1144"/>
      <point x="649" y="1133"/>
      <point x="518" y="1119" type="curve" smooth="yes"/>
      <point x="249" y="1090"/>
      <point x="162" y="1007"/>
      <point x="141" y="884" type="curve" smooth="yes"/>
      <point x="115" y="727"/>
      <point x="228" y="638"/>
    </contour>
    <contour>
      <point x="386" y="682" type="curve" smooth="yes"/>
      <point x="255" y="682"/>
      <point x="167" y="762"/>
      <point x="187" y="883" type="curve" smooth="yes"/>
      <point x="205" y="989"/>
      <point x="291" y="1052"/>
      <point x="522" y="1077" type="curve" smooth="yes"/>
      <point x="625" y="1088"/>
      <point x="714" y="1103"/>
      <point x="761" y="1133" type="curve"/>
      <point x="740" y="1008" type="line" smooth="yes"/>
      <point x="708" y="816"/>
      <point x="554" y="682"/>
    </contour>
  </outline>
</glyph>
<glyph name="logicalnot" format="2">
  <advance width="1304"/>
  <unicode hex="00AC"/>
  <outline>
    <contour>
      <point x="898" y="315" type="line"/>
      <point x="944" y="315" type="line"/>
      <point x="1006" y="689" type="line"/>
      <point x="290" y="689" type="line"/>
      <point x="282" y="643" type="line"/>
      <point x="952" y="643" type="line"/>
    </contour>
  </outline>
</glyph>
<glyph name="registered" format="2">
  <advance width="1364"/>
  <unicode hex="00AE"/>
  <outline>
    <contour>
      <point x="646" y="346" type="curve" smooth="yes"/>
      <point x="968" y="346"/>
      <point x="1271" y="607"/>
      <point x="1325" y="928" type="curve" smooth="yes"/>
      <point x="1378" y="1249"/>
      <point x="1161" y="1510"/>
      <point x="839" y="1510" type="curve" smooth="yes"/>
      <point x="518" y="1510"/>
      <point x="214" y="1249"/>
      <point x="161" y="928" type="curve" smooth="yes"/>
      <point x="107" y="607"/>
      <point x="325" y="346"/>
    </contour>
    <contour>
      <point x="654" y="392" type="curve" smooth="yes"/>
      <point x="359" y="392"/>
      <point x="160" y="632"/>
      <point x="209" y="928" type="curve" smooth="yes"/>
      <point x="258" y="1224"/>
      <point x="536" y="1464"/>
      <point x="831" y="1464" type="curve" smooth="yes"/>
      <point x="1128" y="1464"/>
      <point x="1328" y="1224"/>
      <point x="1279" y="928" type="curve" smooth="yes"/>
      <point x="1230" y="632"/>
      <point x="951" y="392"/>
    </contour>
    <contour>
      <point x="880" y="666" type="line"/>
      <point x="934" y="666" type="line"/>
      <point x="840" y="908" type="line"/>
      <point x="790" y="908" type="line"/>
    </contour>
    <contour>
      <point x="510" y="666" type="line"/>
      <point x="556" y="666" type="line"/>
      <point x="637" y="1156" type="line"/>
      <point x="819" y="1156" type="line" smooth="yes"/>
      <point x="904" y="1156"/>
      <point x="938" y="1114"/>
      <point x="927" y="1042" type="curve" smooth="yes"/>
      <point x="915" y="972"/>
      <point x="866" y="926"/>
      <point x="781" y="926" type="curve" smooth="yes"/>
      <point x="577" y="926" type="line"/>
      <point x="570" y="880" type="line"/>
      <point x="776" y="880" type="line" smooth="yes"/>
      <point x="886" y="880"/>
      <point x="959" y="950"/>
      <point x="975" y="1042" type="curve" smooth="yes"/>
      <point x="990" y="1136"/>
      <point x="939" y="1202"/>
      <point x="829" y="1202" type="curve" smooth="yes"/>
      <point x="599" y="1202" type="line"/>
    </contour>
  </outline>
</glyph>
<glyph name="degree" format="2">
  <advance width="930"/>
  <unicode hex="00B0"/>
  <outline>
    <contour>
      <point x="572" y="904" type="curve" smooth="yes"/>
      <point x="739" y="905"/>
      <point x="874" y="1040"/>
      <point x="874" y="1208" type="curve" smooth="yes"/>
      <point x="874" y="1375"/>
      <point x="739" y="1510"/>
      <point x="572" y="1510" type="curve" smooth="yes"/>
      <point x="404" y="1510"/>
      <point x="269" y="1375"/>
      <point x="270" y="1208" type="curve" smooth="yes"/>
      <point x="269" y="1040"/>
      <point x="404" y="905"/>
    </contour>
    <contour>
      <point x="572" y="952" type="curve" smooth="yes"/>
      <point x="430" y="951"/>
      <point x="316" y="1065"/>
      <point x="316" y="1208" type="curve" smooth="yes"/>
      <point x="316" y="1349"/>
      <point x="430" y="1463"/>
      <point x="572" y="1464" type="curve" smooth="yes"/>
      <point x="713" y="1463"/>
      <point x="828" y="1349"/>
      <point x="828" y="1208" type="curve" smooth="yes"/>
      <point x="828" y="1065"/>
      <point x="713" y="951"/>
    </contour>
  </outline>
</glyph>
<glyph name="plusminus" format="2">
  <advance width="1304"/>
  <unicode hex="00B1"/>
  <outline>
    <contour>
      <point x="160" y="140" type="line"/>
      <point x="1004" y="140" type="line"/>
      <point x="1012" y="186" type="line"/>
      <point x="168" y="186" type="line"/>
    </contour>
    <contour>
      <point x="254" y="698" type="line"/>
      <point x="1096" y="698" type="line"/>
      <point x="1106" y="744" type="line"/>
      <point x="262" y="744" type="line"/>
    </contour>
    <contour>
      <point x="590" y="326" type="line"/>
      <point x="638" y="326" type="line"/>
      <point x="768" y="1118" type="line"/>
      <point x="722" y="1118" type="line"/>
    </contour>
  </outline>
</glyph>
<glyph name="two.sups" format="2">
  <advance width="879"/>
  <unicode hex="00B2"/>
  <anchor x="727.82" y="1249" name="cross"/>
  <anchor x="738.94" y="1683" name="top"/>
  <outline>
    <contour>
      <point x="308.88" y="916" type="line"/>
      <point x="904.88" y="916" type="line"/>
      <point x="912.98" y="961" type="line"/>
      <point x="388.98" y="961" type="line"/>
      <point x="389.88" y="966" type="line"/>
      <point x="700.26" y="1207" type="line" smooth="yes"/>
      <point x="879.28" y="1346"/>
      <point x="935.44" y="1408"/>
      <point x="950.9200000000001" y="1494" type="curve" smooth="yes"/>
      <point x="971.44" y="1608"/>
      <point x="876.9200000000001" y="1694"/>
      <point x="728.9200000000001" y="1694" type="curve" smooth="yes"/>
      <point x="574.9200000000001" y="1694"/>
      <point x="449.53999999999996" y="1603"/>
      <point x="428.65999999999997" y="1487" type="curve"/>
      <point x="476.65999999999997" y="1487" type="line"/>
      <point x="492.86" y="1577"/>
      <point x="592.8199999999999" y="1649"/>
      <point x="719.8199999999999" y="1649" type="curve" smooth="yes"/>
      <point x="840.8199999999999" y="1649"/>
      <point x="920.3" y="1585"/>
      <point x="903.9200000000001" y="1494" type="curve" smooth="yes"/>
      <point x="891.3199999999999" y="1424"/>
      <point x="840.96" y="1372"/>
      <point x="678.56" y="1242" type="curve" smooth="yes"/>
      <point x="315.18" y="951" type="line"/>
    </contour>
  </outline>
</glyph>
<glyph name="three.sups" format="2">
  <advance width="832"/>
  <unicode hex="00B3"/>
  <anchor x="724.94" y="1683" name="top"/>
  <outline>
    <contour>
      <point x="585.0799999999999" y="906" type="curve" smooth="yes"/>
      <point x="758.0799999999999" y="906"/>
      <point x="896.64" y="998"/>
      <point x="918.06" y="1117" type="curve" smooth="yes"/>
      <point x="936.06" y="1217"/>
      <point x="867.84" y="1288"/>
      <point x="749.8" y="1310" type="curve"/>
      <point x="750.7" y="1315" type="line"/>
      <point x="859.02" y="1339"/>
      <point x="939.72" y="1404"/>
      <point x="955.9200000000001" y="1494" type="curve" smooth="yes"/>
      <point x="975.9" y="1605"/>
      <point x="883.9200000000001" y="1694"/>
      <point x="726.9200000000001" y="1694" type="curve" smooth="yes"/>
      <point x="570.9200000000001" y="1694"/>
      <point x="439.97999999999996" y="1611"/>
      <point x="416.74" y="1493" type="curve"/>
      <point x="465.74" y="1493" type="line"/>
      <point x="483.47999999999996" y="1586"/>
      <point x="589.8199999999999" y="1649"/>
      <point x="717.8199999999999" y="1649" type="curve" smooth="yes"/>
      <point x="846.8199999999999" y="1649"/>
      <point x="923.94" y="1583"/>
      <point x="907.74" y="1493" type="curve" smooth="yes"/>
      <point x="890.1" y="1395"/>
      <point x="773.94" y="1333"/>
      <point x="634.94" y="1333" type="curve" smooth="yes"/>
      <point x="608.94" y="1333" type="line"/>
      <point x="600.84" y="1288" type="line"/>
      <point x="626.84" y="1288" type="line" smooth="yes"/>
      <point x="788.84" y="1288"/>
      <point x="888.42" y="1219"/>
      <point x="870.24" y="1118" type="curve" smooth="yes"/>
      <point x="853.3199999999999" y="1024"/>
      <point x="739.1800000000001" y="951"/>
      <point x="592.1800000000001" y="951" type="curve" smooth="yes"/>
      <point x="455.18" y="951"/>
      <point x="359.7" y="1015"/>
      <point x="373.9" y="1105" type="curve"/>
      <point x="324.9" y="1105" type="line"/>
      <point x="304.84000000000003" y="988"/>
      <point x="418.08" y="906"/>
    </contour>
  </outline>
</glyph>
<glyph name="micro" format="2">
  <advance width="1201"/>
  <unicode hex="00B5"/>
  <outline>
    <contour>
      <point x="37" y="-418" type="line"/>
      <point x="83" y="-418" type="line"/>
      <point x="213" y="368" type="line"/>
      <point x="177" y="368" type="line"/>
      <point x="130" y="86"/>
      <point x="345" y="-16"/>
      <point x="511" y="-16" type="curve" smooth="yes"/>
      <point x="677" y="-16"/>
      <point x="910" y="86"/>
      <point x="957" y="368" type="curve"/>
      <point x="921" y="368" type="line"/>
      <point x="893" y="198" type="line" smooth="yes"/>
      <point x="871" y="62"/>
      <point x="921" y="0"/>
      <point x="1044" y="0" type="curve" smooth="yes"/>
      <point x="1068" y="0" type="line"/>
      <point x="1076" y="46" type="line"/>
      <point x="1052" y="46" type="line" smooth="yes"/>
      <point x="956" y="46"/>
      <point x="921" y="89"/>
      <point x="939" y="198" type="curve" smooth="yes"/>
      <point x="1091" y="1118" type="line"/>
      <point x="1045" y="1118" type="line"/>
      <point x="921" y="368" type="line" smooth="yes"/>
      <point x="889" y="175"/>
      <point x="714" y="30"/>
      <point x="511" y="30" type="curve" smooth="yes"/>
      <point x="308" y="30"/>
      <point x="181" y="175"/>
      <point x="213" y="368" type="curve" smooth="yes"/>
      <point x="337" y="1118" type="line"/>
      <point x="291" y="1118" type="line"/>
    </contour>
  </outline>
</glyph>
<glyph name="paragraph" format="2">
  <advance width="1142"/>
  <unicode hex="00B6"/>
  <outline>
    <contour>
      <point x="1037" y="1442" type="line"/>
      <point x="1045" y="1490" type="line"/>
      <point x="793" y="1490" type="line" smooth="yes"/>
      <point x="476" y="1490"/>
      <point x="270" y="1289"/>
      <point x="223" y="1022" type="curve" smooth="yes"/>
      <point x="176" y="751"/>
      <point x="322" y="552"/>
      <point x="639" y="552" type="curve" smooth="yes"/>
      <point x="723" y="552" type="line"/>
      <point x="869" y="1442" type="line"/>
    </contour>
    <contour>
      <point x="771" y="0" type="line"/>
      <point x="817" y="0" type="line"/>
      <point x="1063" y="1490" type="line"/>
      <point x="1017" y="1490" type="line"/>
    </contour>
  </outline>
</glyph>
<glyph name="one.sups" format="2">
  <advance width="544"/>
  <unicode hex="00B9"/>
  <outline>
    <contour>
      <point x="681.94" y="1683" type="line"/>
      <point x="616.94" y="1683" type="line"/>
      <point x="389.97999999999996" y="1561" type="line"/>
      <point x="380.08" y="1506" type="line"/>
      <point x="618.48" y="1636" type="line"/>
      <point x="625.48" y="1636" type="line"/>
      <point x="495.88" y="916" type="line"/>
      <point x="543.88" y="916" type="line"/>
    </contour>
  </outline>
</glyph>
<glyph name="ordmasculine" format="2">
  <advance width="951"/>
  <unicode hex="00BA"/>
  <anchor x="492" y="656" name="bottom"/>
  <anchor x="561" y="1075" name="center"/>
  <anchor x="934" y="1073" name="ogonek"/>
  <anchor x="630" y="1495" name="top"/>
  <anchor x="632" y="1506" name="tophorn"/>
  <outline>
    <contour>
      <point x="489" y="638" type="curve" smooth="yes"/>
      <point x="702" y="638"/>
      <point x="892" y="824"/>
      <point x="934" y="1073" type="curve" smooth="yes"/>
      <point x="975" y="1320"/>
      <point x="845" y="1506"/>
      <point x="632" y="1506" type="curve" smooth="yes"/>
      <point x="419" y="1506"/>
      <point x="228" y="1321"/>
      <point x="187" y="1073" type="curve" smooth="yes"/>
      <point x="146" y="825"/>
      <point x="275" y="638"/>
    </contour>
    <contour>
      <point x="496" y="682" type="curve" smooth="yes"/>
      <point x="307" y="682"/>
      <point x="196" y="852"/>
      <point x="233" y="1073" type="curve" smooth="yes"/>
      <point x="269" y="1292"/>
      <point x="438" y="1462"/>
      <point x="625" y="1462" type="curve" smooth="yes"/>
      <point x="813" y="1462"/>
      <point x="924" y="1292"/>
      <point x="888" y="1073" type="curve" smooth="yes"/>
      <point x="851" y="852"/>
      <point x="685" y="682"/>
    </contour>
  </outline>
</glyph>
<glyph name="AE" format="2">
  <advance width="1964"/>
  <unicode hex="00C6"/>
  <anchor x="1410" y="1490" name="top"/>
  <outline>
    <contour>
      <point x="-27" y="0" type="line"/>
      <point x="27" y="0" type="line"/>
      <point x="1002" y="1442" type="line"/>
      <point x="1146" y="1442" type="line"/>
      <point x="907" y="0" type="line"/>
      <point x="1723" y="0" type="line"/>
      <point x="1731" y="46" type="line"/>
      <point x="963" y="46" type="line"/>
      <point x="1075" y="722" type="line"/>
      <point x="1779" y="722" type="line"/>
      <point x="1786" y="768" type="line"/>
      <point x="1082" y="768" type="line"/>
      <point x="1194" y="1442" type="line"/>
      <point x="1940" y="1442" type="line"/>
      <point x="1948" y="1490" type="line"/>
      <point x="980" y="1490" type="line"/>
    </contour>
    <contour>
      <point x="348" y="504" type="line"/>
      <point x="1016" y="504" type="line"/>
      <point x="1024" y="550" type="line"/>
      <point x="356" y="550" type="line"/>
    </contour>
  </outline>
</glyph>
<glyph name="multiply" format="2">
  <advance width="1304"/>
  <unicode hex="00D7"/>
  <outline>
    <contour>
      <point x="980" y="158" type="line"/>
      <point x="1016" y="186" type="line"/>
      <point x="332" y="1006" type="line"/>
      <point x="296" y="978" type="line"/>
    </contour>
    <contour>
      <point x="192" y="154" type="line"/>
      <point x="1150" y="974" type="line"/>
      <point x="1120" y="1010" type="line"/>
      <point x="162" y="190" type="line"/>
    </contour>
  </outline>
</glyph>
<glyph name="Thorn" format="2">
  <advance width="1210"/>
  <unicode hex="00DE"/>
  <outline>
    <contour>
      <point x="366" y="1490" type="line"/>
      <point x="120" y="0" type="line"/>
      <point x="162" y="0" type="line"/>
      <point x="410" y="1490" type="line"/>
    </contour>
    <contour>
      <point x="328" y="1132" type="line"/>
      <point x="318" y="1086" type="line"/>
      <point x="698" y="1086" type="line" smooth="yes"/>
      <point x="932" y="1085"/>
      <point x="1069" y="964"/>
      <point x="1030" y="744" type="curve" smooth="yes"/>
      <point x="991" y="521"/>
      <point x="827" y="407"/>
      <point x="594" y="408" type="curve" smooth="yes"/>
      <point x="212" y="408" type="line"/>
      <point x="200" y="360" type="line"/>
      <point x="582" y="360" type="line" smooth="yes"/>
      <point x="876" y="361"/>
      <point x="1041" y="519"/>
      <point x="1078" y="748" type="curve" smooth="yes"/>
      <point x="1112" y="958"/>
      <point x="988" y="1132"/>
      <point x="710" y="1132" type="curve" smooth="yes"/>
    </contour>
  </outline>
</glyph>
<glyph name="germandbls" format="2">
  <advance width="1178"/>
  <unicode hex="00DF"/>
  <outline>
    <contour>
      <point x="139" y="0" type="line"/>
      <point x="185" y="0" type="line"/>
      <point x="376" y="1152" type="line" smooth="yes"/>
      <point x="409" y="1348"/>
      <point x="545" y="1464"/>
      <point x="742" y="1464" type="curve" smooth="yes"/>
      <point x="939" y="1464"/>
      <point x="1037" y="1348"/>
      <point x="1004" y="1152" type="curve" smooth="yes"/>
      <point x="967" y="928"/>
      <point x="796" y="791"/>
      <point x="552" y="791" type="curve" smooth="yes"/>
      <point x="530" y="791" type="line"/>
      <point x="523" y="749" type="line"/>
      <point x="545" y="749" type="line" smooth="yes"/>
      <point x="827" y="749"/>
      <point x="982" y="606"/>
      <point x="945" y="386" type="curve" smooth="yes"/>
      <point x="912" y="182"/>
      <point x="735" y="46"/>
      <point x="503" y="46" type="curve" smooth="yes"/>
      <point x="401" y="46" type="line"/>
      <point x="393" y="0" type="line"/>
      <point x="495" y="0" type="line" smooth="yes"/>
      <point x="753" y="0"/>
      <point x="953" y="156"/>
      <point x="991" y="386" type="curve" smooth="yes"/>
      <point x="1025" y="590"/>
      <point x="910" y="737"/>
      <point x="707" y="771" type="curve"/>
      <point x="708" y="775" type="line"/>
      <point x="898" y="823"/>
      <point x="1018" y="960"/>
      <point x="1050" y="1152" type="curve" smooth="yes"/>
      <point x="1087" y="1373"/>
      <point x="971" y="1510"/>
      <point x="749" y="1510" type="curve" smooth="yes"/>
      <point x="527" y="1510"/>
      <point x="367" y="1373"/>
      <point x="330" y="1152" type="curve" smooth="yes"/>
    </contour>
  </outline>
</glyph>
<glyph name="ae" format="2">
  <advance width="1850"/>
  <unicode hex="00E6"/>
  <anchor x="994" y="1118" name="top"/>
  <outline>
    <contour>
      <point x="379" y="-24" type="curve" smooth="yes"/>
      <point x="653" y="-24"/>
      <point x="829" y="178"/>
      <point x="877" y="446" type="curve"/>
      <point x="877" y="451" type="line"/>
      <point x="937" y="802" type="line" smooth="yes"/>
      <point x="970" y="994"/>
      <point x="838" y="1134"/>
      <point x="625" y="1134" type="curve" smooth="yes"/>
      <point x="410" y="1134"/>
      <point x="228" y="986"/>
      <point x="195" y="784" type="curve"/>
      <point x="241" y="784" type="line"/>
      <point x="270" y="958"/>
      <point x="436" y="1088"/>
      <point x="627" y="1088" type="curve" smooth="yes"/>
      <point x="812" y="1088"/>
      <point x="920" y="971"/>
      <point x="892" y="802" type="curve" smooth="yes"/>
      <point x="838" y="478" type="line" smooth="yes"/>
      <point x="795" y="217"/>
      <point x="638" y="22"/>
      <point x="379" y="22" type="curve" smooth="yes"/>
      <point x="192" y="22"/>
      <point x="105" y="122"/>
      <point x="134" y="302" type="curve" smooth="yes"/>
      <point x="162" y="474"/>
      <point x="303" y="559"/>
      <point x="559" y="559" type="curve" smooth="yes"/>
      <point x="662" y="559"/>
      <point x="775" y="559"/>
      <point x="878" y="559" type="curve"/>
      <point x="885" y="605" type="line"/>
      <point x="776" y="605"/>
      <point x="668" y="605"/>
      <point x="559" y="605" type="curve" smooth="yes"/>
      <point x="276" y="605"/>
      <point x="121" y="505"/>
      <point x="87" y="302" type="curve" smooth="yes"/>
      <point x="54" y="102"/>
      <point x="166" y="-24"/>
    </contour>
    <contour>
      <point x="1234" y="-16" type="curve" smooth="yes"/>
      <point x="1417" y="-16"/>
      <point x="1544" y="47"/>
      <point x="1668" y="198" type="curve"/>
      <point x="1632" y="227" type="line"/>
      <point x="1514" y="83"/>
      <point x="1407" y="30"/>
      <point x="1234" y="30" type="curve" smooth="yes"/>
      <point x="989" y="30"/>
      <point x="886" y="142"/>
      <point x="886" y="408" type="curve" smooth="yes"/>
      <point x="886" y="413"/>
      <point x="886" y="418"/>
      <point x="886" y="422" type="curve" smooth="yes"/>
      <point x="886" y="817"/>
      <point x="1118" y="1088"/>
      <point x="1443" y="1088" type="curve" smooth="yes"/>
      <point x="1615" y="1088"/>
      <point x="1706" y="1015"/>
      <point x="1706" y="879" type="curve" smooth="yes"/>
      <point x="1706" y="673"/>
      <point x="1500" y="605"/>
      <point x="880" y="605" type="curve"/>
      <point x="880" y="559" type="line"/>
      <point x="1517" y="559"/>
      <point x="1752" y="645"/>
      <point x="1752" y="879" type="curve" smooth="yes"/>
      <point x="1752" y="1039"/>
      <point x="1636" y="1134"/>
      <point x="1443" y="1134" type="curve" smooth="yes"/>
      <point x="1089" y="1134"/>
      <point x="842" y="832"/>
      <point x="842" y="408" type="curve" smooth="yes"/>
      <point x="842" y="119"/>
      <point x="966" y="-16"/>
    </contour>
  </outline>
</glyph>
<glyph name="divide" format="2">
  <advance width="1304"/>
  <unicode hex="00F7"/>
  <outline>
    <contour>
      <point x="1082" y="606" type="line"/>
      <point x="238" y="606" type="line"/>
      <point x="230" y="558" type="line"/>
      <point x="1074" y="558" type="line"/>
    </contour>
    <contour>
      <point x="600" y="198" type="curve" smooth="yes"/>
      <point x="628" y="198"/>
      <point x="652" y="221"/>
      <point x="652" y="250" type="curve" smooth="yes"/>
      <point x="652" y="279"/>
      <point x="628" y="303"/>
      <point x="600" y="302" type="curve" smooth="yes"/>
      <point x="570" y="303"/>
      <point x="547" y="279"/>
      <point x="546" y="250" type="curve" smooth="yes"/>
      <point x="547" y="221"/>
      <point x="570" y="198"/>
    </contour>
    <contour>
      <point x="710" y="862" type="curve" smooth="yes"/>
      <point x="739" y="861"/>
      <point x="762" y="884"/>
      <point x="762" y="914" type="curve" smooth="yes"/>
      <point x="762" y="943"/>
      <point x="739" y="966"/>
      <point x="710" y="966" type="curve" smooth="yes"/>
      <point x="681" y="966"/>
      <point x="657" y="943"/>
      <point x="658" y="914" type="curve" smooth="yes"/>
      <point x="657" y="884"/>
      <point x="681" y="861"/>
    </contour>
  </outline>
</glyph>
<glyph name="thorn" format="2">
  <advance width="1190"/>
  <unicode hex="00FE"/>
  <outline>
    <contour>
      <point x="533" y="-24" type="curve" smooth="yes"/>
      <point x="796" y="-24"/>
      <point x="1005" y="225"/>
      <point x="1060" y="556" type="curve" smooth="yes"/>
      <point x="1114" y="884"/>
      <point x="986" y="1134"/>
      <point x="725" y="1134" type="curve" smooth="yes"/>
      <point x="547" y="1134"/>
      <point x="383" y="1018"/>
      <point x="295" y="832" type="curve"/>
      <point x="289" y="832" type="line"/>
      <point x="398" y="1490" type="line"/>
      <point x="352" y="1490" type="line"/>
      <point x="36" y="-418" type="line"/>
      <point x="82" y="-418" type="line"/>
      <point x="198" y="280" type="line"/>
      <point x="204" y="280" type="line"/>
      <point x="232" y="94"/>
      <point x="353" y="-24"/>
    </contour>
    <contour>
      <point x="541" y="22" type="curve" smooth="yes"/>
      <point x="303" y="22"/>
      <point x="193" y="253"/>
      <point x="244" y="556" type="curve" smooth="yes"/>
      <point x="293" y="858"/>
      <point x="482" y="1088"/>
      <point x="718" y="1088" type="curve" smooth="yes"/>
      <point x="953" y="1088"/>
      <point x="1063" y="858"/>
      <point x="1014" y="556" type="curve" smooth="yes"/>
      <point x="963" y="253"/>
      <point x="777" y="22"/>
    </contour>
  </outline>
</glyph>
<glyph name="Hbar" format="2">
  <advance width="1532"/>
  <unicode hex="0126"/>
  <anchor x="673" y="0" name="bottom"/>
  <anchor x="176" y="0" name="cedilla"/>
  <anchor x="1193" y="0" name="cyrtic"/>
  <anchor x="1147" y="0" name="lfthook"/>
  <anchor x="1193" y="0" name="right"/>
  <anchor x="398" y="1490" name="tonos"/>
  <anchor x="920" y="1490" name="top"/>
  <outline>
    <contour>
      <point x="1490" y="1080" type="line"/>
      <point x="216" y="1080" type="line"/>
      <point x="206" y="1032" type="line"/>
      <point x="1480" y="1032" type="line"/>
    </contour>
    <component base="H" xOffset="12"/>
  </outline>
</glyph>
<glyph name="idotless" format="2">
  <advance width="443"/>
  <unicode hex="0131"/>
  <anchor x="128" y="0" name="bottom"/>
  <anchor x="224" y="582" name="cross"/>
  <anchor x="152" y="0" name="ogonek"/>
  <anchor x="313" y="1118" name="top"/>
  <outline>
    <contour>
      <point x="106" y="0" type="line"/>
      <point x="152" y="0" type="line"/>
      <point x="337" y="1118" type="line"/>
      <point x="291" y="1118" type="line"/>
    </contour>
  </outline>
</glyph>
<glyph name="OE" format="2">
  <advance width="1886"/>
  <unicode hex="0152"/>
  <anchor x="1237" y="0" name="bottom"/>
  <anchor x="1237" y="0" name="cedilla"/>
  <anchor x="1645" y="0" name="ogonek"/>
  <anchor x="1076" y="1490" name="tonos"/>
  <anchor x="1484" y="1490" name="top"/>
  <outline>
    <contour>
      <point x="670" y="0" type="curve" smooth="yes"/>
      <point x="852" y="0" type="line"/>
      <point x="862" y="46" type="line"/>
      <point x="678" y="46" type="line" smooth="yes"/>
      <point x="328" y="47"/>
      <point x="153" y="324"/>
      <point x="224" y="744" type="curve" smooth="yes"/>
      <point x="295" y="1161"/>
      <point x="572" y="1446"/>
      <point x="908" y="1442" type="curve" smooth="yes"/>
      <point x="1090" y="1442" type="line"/>
      <point x="1100" y="1490" type="line"/>
      <point x="916" y="1490" type="line" smooth="yes"/>
      <point x="544" y="1489"/>
      <point x="252" y="1194"/>
      <point x="178" y="744" type="curve" smooth="yes"/>
      <point x="105" y="303"/>
      <point x="303" y="0"/>
    </contour>
    <component base="E" xOffset="690"/>
  </outline>
</glyph>
<glyph name="tbar" format="2">
  <advance width="492"/>
  <unicode hex="0167"/>
  <anchor x="310.0" y="0" name="bottom"/>
  <anchor x="310.0" y="0" name="cedilla"/>
  <anchor x="452.72" y="4" name="lfthook"/>
  <anchor x="446.12" y="1384" name="top"/>
  <anchor x="390.68" y="1526" name="raccent"/>
  <outline>
    <contour>
      <point x="586.1" y="745" type="line"/>
      <point x="144.1" y="745" type="line"/>
      <point x="135.82" y="699" type="line"/>
      <point x="577.8199999999999" y="699" type="line"/>
    </contour>
    <component base="t" yxScale="0.18"/>
  </outline>
</glyph>
<glyph name="Btopbar" format="2">
  <advance width="1337"/>
  <unicode hex="0182"/>
  <outline>
    <contour>
      <point x="140" y="0" type="line"/>
      <point x="698" y="0" type="line" smooth="yes"/>
      <point x="964" y="0"/>
      <point x="1139" y="146"/>
      <point x="1180" y="396" type="curve" smooth="yes"/>
      <point x="1217" y="623"/>
      <point x="1071" y="777"/>
      <point x="828" y="776" type="curve" smooth="yes"/>
      <point x="316" y="776" type="line"/>
      <point x="424" y="1442" type="line"/>
      <point x="1186" y="1442" type="line"/>
      <point x="1196" y="1490" type="line"/>
      <point x="386" y="1490" type="line"/>
    </contour>
    <contour>
      <point x="194" y="46" type="line"/>
      <point x="306" y="730" type="line"/>
      <point x="818" y="730" type="line" smooth="yes"/>
      <point x="1044" y="730"/>
      <point x="1167" y="602"/>
      <point x="1134" y="398" type="curve" smooth="yes"/>
      <point x="1096" y="180"/>
      <point x="939" y="47"/>
      <point x="706" y="46" type="curve" smooth="yes"/>
    </contour>
  </outline>
</glyph>
<glyph name="tonesix" format="2">
  <advance width="1269"/>
  <unicode hex="0185"/>
  <outline>
    <contour>
      <point x="149" y="617" type="line"/>
      <point x="520" y="1118" type="line"/>
      <point x="467" y="1118" type="line"/>
      <point x="113" y="639" type="line"/>
    </contour>
    <component base="softsigncyrillic" xOffset="203"/>
  </outline>
</glyph>
<glyph name="Dtopbar" format="2">
  <advance width="1210"/>
  <unicode hex="018B"/>
  <outline>
    <contour>
      <point x="1000" y="0" type="line"/>
      <point x="1248" y="1490" type="line"/>
      <point x="440" y="1490" type="line"/>
      <point x="430" y="1442" type="line"/>
      <point x="1192" y="1442" type="line"/>
      <point x="1084" y="776" type="line"/>
      <point x="572" y="776" type="line" smooth="yes"/>
      <point x="313" y="777"/>
      <point x="132" y="636"/>
      <point x="94" y="404" type="curve" smooth="yes"/>
      <point x="53" y="164"/>
      <point x="195" y="0"/>
      <point x="442" y="0" type="curve" smooth="yes"/>
    </contour>
    <contour>
      <point x="962" y="46" type="line"/>
      <point x="450" y="46" type="line" smooth="yes"/>
      <point x="217" y="47"/>
      <point x="104" y="180"/>
      <point x="142" y="408" type="curve" smooth="yes"/>
      <point x="173" y="602"/>
      <point x="340" y="730"/>
      <point x="562" y="730" type="curve" smooth="yes"/>
      <point x="1074" y="730" type="line"/>
    </contour>
  </outline>
</glyph>
<glyph name="deltaturn" format="2">
  <advance width="954"/>
  <unicode hex="018D"/>
  <outline>
    <contour>
      <point x="618" y="-376" type="line"/>
      <point x="624" y="-344" type="line"/>
      <point x="539" y="-225"/>
      <point x="436" y="-93"/>
      <point x="274" y="102" type="curve"/>
      <point x="327" y="94"/>
      <point x="367" y="90"/>
      <point x="402" y="90" type="curve" smooth="yes"/>
      <point x="656" y="90"/>
      <point x="872" y="295"/>
      <point x="918" y="590" type="curve" smooth="yes"/>
      <point x="920" y="610" type="line" smooth="yes"/>
      <point x="970" y="929"/>
      <point x="829" y="1135"/>
      <point x="574" y="1134" type="curve" smooth="yes"/>
      <point x="309" y="1135"/>
      <point x="97" y="937"/>
      <point x="54" y="614" type="curve" smooth="yes"/>
      <point x="50" y="592" type="line" smooth="yes"/>
      <point x="29" y="426"/>
      <point x="77" y="263"/>
      <point x="212" y="104" type="curve" smooth="yes"/>
      <point x="381" y="-98"/>
      <point x="469" y="-210"/>
      <point x="554" y="-330" type="curve"/>
      <point x="22" y="-328" type="line"/>
      <point x="14" y="-376" type="line"/>
    </contour>
    <contour>
      <point x="872" y="590" type="line" smooth="yes"/>
      <point x="831" y="325"/>
      <point x="631" y="137"/>
      <point x="402" y="136" type="curve" smooth="yes"/>
      <point x="352" y="137"/>
      <point x="295" y="145"/>
      <point x="224" y="162" type="curve"/>
      <point x="110" y="320"/>
      <point x="78" y="444"/>
      <point x="98" y="592" type="curve" smooth="yes"/>
      <point x="100" y="614" type="line" smooth="yes"/>
      <point x="139" y="903"/>
      <point x="335" y="1088"/>
      <point x="566" y="1088" type="curve" smooth="yes"/>
      <point x="801" y="1088"/>
      <point x="921" y="910"/>
      <point x="874" y="610" type="curve" smooth="yes"/>
    </contour>
  </outline>
</glyph>
<glyph name="Schwa" format="2">
  <advance width="1511"/>
  <unicode hex="018F"/>
  <outline>
    <contour>
      <point x="663" y="-20" type="curve" smooth="yes"/>
      <point x="1040" y="-20"/>
      <point x="1320" y="289"/>
      <point x="1395" y="744" type="curve" smooth="yes"/>
      <point x="1471" y="1203"/>
      <point x="1274" y="1510"/>
      <point x="904" y="1510" type="curve" smooth="yes"/>
      <point x="557" y="1510"/>
      <point x="325" y="1236"/>
      <point x="254" y="1024" type="curve"/>
      <point x="301" y="1024" type="line"/>
      <point x="369" y="1227"/>
      <point x="591" y="1464"/>
      <point x="896" y="1464" type="curve" smooth="yes"/>
      <point x="1239" y="1464"/>
      <point x="1421" y="1175"/>
      <point x="1349" y="744" type="curve" smooth="yes"/>
      <point x="1279" y="319"/>
      <point x="1021" y="26"/>
      <point x="670" y="26" type="curve" smooth="yes"/>
      <point x="345" y="26"/>
      <point x="163" y="262"/>
      <point x="225" y="636" type="curve"/>
      <point x="204" y="626" type="line"/>
      <point x="1347" y="626" type="line"/>
      <point x="1354" y="672" type="line"/>
      <point x="185" y="672" type="line"/>
      <point x="178" y="628" type="line" smooth="yes"/>
      <point x="113" y="236"/>
      <point x="315" y="-20"/>
    </contour>
  </outline>
</glyph>
<glyph name="Epsilon1" format="2">
  <advance width="1223"/>
  <unicode hex="0190"/>
  <anchor x="519" y="0" name="bottom"/>
  <anchor x="743" y="1490" name="top"/>
  <outline>
    <contour>
      <point x="493" y="-20" type="curve" smooth="yes"/>
      <point x="744" y="-20"/>
      <point x="962" y="145"/>
      <point x="1000" y="372" type="curve"/>
      <point x="954" y="372" type="line"/>
      <point x="919" y="172"/>
      <point x="723" y="26"/>
      <point x="500" y="26" type="curve" smooth="yes"/>
      <point x="263" y="26"/>
      <point x="131" y="188"/>
      <point x="164" y="386" type="curve" smooth="yes"/>
      <point x="199" y="601"/>
      <point x="408" y="744"/>
      <point x="663" y="744" type="curve" smooth="yes"/>
      <point x="685" y="744" type="line"/>
      <point x="693" y="792" type="line"/>
      <point x="671" y="792" type="line" smooth="yes"/>
      <point x="447" y="791"/>
      <point x="297" y="922"/>
      <point x="331" y="1128" type="curve" smooth="yes"/>
      <point x="363" y="1320"/>
      <point x="531" y="1464"/>
      <point x="740" y="1464" type="curve" smooth="yes"/>
      <point x="949" y="1464"/>
      <point x="1075" y="1321"/>
      <point x="1041" y="1118" type="curve"/>
      <point x="1089" y="1118" type="line"/>
      <point x="1126" y="1347"/>
      <point x="983" y="1510"/>
      <point x="748" y="1510" type="curve" smooth="yes"/>
      <point x="515" y="1510"/>
      <point x="321" y="1347"/>
      <point x="285" y="1128" type="curve" smooth="yes"/>
      <point x="256" y="954"/>
      <point x="341" y="822"/>
      <point x="502" y="774" type="curve"/>
      <point x="501" y="768" type="line"/>
      <point x="298" y="719"/>
      <point x="149" y="576"/>
      <point x="118" y="386" type="curve" smooth="yes"/>
      <point x="80" y="158"/>
      <point x="232" y="-20"/>
    </contour>
  </outline>
</glyph>
<glyph name="florin" format="2">
  <advance width="608"/>
  <unicode hex="0192"/>
  <outline>
    <contour>
      <point x="610" y="1070" type="line"/>
      <point x="412" y="1070" type="line"/>
      <point x="450" y="1300" type="line" smooth="yes"/>
      <point x="471" y="1431"/>
      <point x="583" y="1510"/>
      <point x="694" y="1510" type="curve" smooth="yes"/>
      <point x="723" y="1510"/>
      <point x="743" y="1504"/>
      <point x="766" y="1498" type="curve"/>
      <point x="786" y="1542" type="line"/>
      <point x="761" y="1551"/>
      <point x="737" y="1556"/>
      <point x="702" y="1556" type="curve" smooth="yes"/>
      <point x="563" y="1556"/>
      <point x="429" y="1457"/>
      <point x="402" y="1300" type="curve" smooth="yes"/>
      <point x="366" y="1070" type="line"/>
      <point x="168" y="1070" type="line"/>
      <point x="160" y="1024" type="line"/>
      <point x="358" y="1024" type="line"/>
      <point x="160" y="-162" type="line" smooth="yes"/>
      <point x="138" y="-294"/>
      <point x="26" y="-372"/>
      <point x="-84" y="-372" type="curve" smooth="yes"/>
      <point x="-113" y="-372"/>
      <point x="-134" y="-367"/>
      <point x="-158" y="-360" type="curve"/>
      <point x="-178" y="-404" type="line"/>
      <point x="-151" y="-413"/>
      <point x="-128" y="-419"/>
      <point x="-94" y="-418" type="curve" smooth="yes"/>
      <point x="47" y="-419"/>
      <point x="180" y="-320"/>
      <point x="206" y="-162" type="curve" smooth="yes"/>
      <point x="404" y="1024" type="line"/>
      <point x="602" y="1024" type="line"/>
    </contour>
  </outline>
</glyph>
<glyph name="Gamma1" format="2">
  <advance width="1058"/>
  <unicode hex="0194"/>
  <outline>
    <contour>
      <point x="116" y="1490" type="line"/>
      <point x="444" y="110" type="line" smooth="yes"/>
      <point x="508" y="-167"/>
      <point x="524" y="-253"/>
      <point x="516" y="-294" type="curve" smooth="yes"/>
      <point x="505" y="-352"/>
      <point x="449" y="-396"/>
      <point x="374" y="-396" type="curve" smooth="yes"/>
      <point x="299" y="-396"/>
      <point x="260" y="-353"/>
      <point x="270" y="-296" type="curve" smooth="yes"/>
      <point x="279" y="-253"/>
      <point x="325" y="-164"/>
      <point x="472" y="92" type="curve" smooth="yes"/>
      <point x="1266" y="1490" type="line"/>
      <point x="1212" y="1490" type="line"/>
      <point x="394" y="50" type="line" smooth="yes"/>
      <point x="259" y="-189"/>
      <point x="231" y="-244"/>
      <point x="224" y="-286" type="curve" smooth="yes"/>
      <point x="209" y="-371"/>
      <point x="268" y="-442"/>
      <point x="376" y="-442" type="curve" smooth="yes"/>
      <point x="476" y="-442"/>
      <point x="548" y="-378"/>
      <point x="562" y="-294" type="curve" smooth="yes"/>
      <point x="572" y="-244"/>
      <point x="558" y="-172"/>
      <point x="500" y="72" type="curve" smooth="yes"/>
      <point x="164" y="1490" type="line"/>
    </contour>
  </outline>
</glyph>
<glyph name="hv" format="2">
  <advance width="1881"/>
  <unicode hex="0195"/>
  <outline>
    <contour>
      <point x="105" y="0" type="line"/>
      <point x="153" y="0" type="line"/>
      <point x="277" y="750" type="line" smooth="yes"/>
      <point x="309" y="945"/>
      <point x="475" y="1085"/>
      <point x="673" y="1086" type="curve" smooth="yes"/>
      <point x="871" y="1085"/>
      <point x="985" y="948"/>
      <point x="953" y="750" type="curve" smooth="yes"/>
      <point x="911" y="494" type="line"/>
      <point x="957" y="494" type="line"/>
      <point x="999" y="750" type="line" smooth="yes"/>
      <point x="1035" y="975"/>
      <point x="904" y="1132"/>
      <point x="681" y="1132" type="curve" smooth="yes"/>
      <point x="528" y="1132"/>
      <point x="386" y="1057"/>
      <point x="313" y="940" type="curve"/>
      <point x="307" y="940" type="line"/>
      <point x="399" y="1490" type="line"/>
      <point x="353" y="1490" type="line"/>
    </contour>
    <contour>
      <point x="1133" y="-18" type="curve" smooth="yes"/>
      <point x="1444" y="-19"/>
      <point x="1643" y="321"/>
      <point x="1759" y="1016" type="curve" smooth="yes"/>
      <point x="1775" y="1118" type="line"/>
      <point x="1727" y="1118" type="line"/>
      <point x="1715" y="1032" type="line" smooth="yes"/>
      <point x="1602" y="363"/>
      <point x="1418" y="28"/>
      <point x="1139" y="28" type="curve" smooth="yes"/>
      <point x="958" y="28"/>
      <point x="899" y="148"/>
      <point x="947" y="440" type="curve" smooth="yes"/>
      <point x="977" y="622" type="line"/>
      <point x="931" y="622" type="line"/>
      <point x="899" y="440" type="line" smooth="yes"/>
      <point x="850" y="130"/>
      <point x="928" y="-19"/>
    </contour>
  </outline>
</glyph>
<glyph name="Khook" format="2">
  <advance width="1342"/>
  <unicode hex="0198"/>
  <outline>
    <contour>
      <point x="140" y="0" type="line"/>
      <point x="186" y="0" type="line"/>
      <point x="268" y="486" type="line"/>
      <point x="532" y="734" type="line"/>
      <point x="1106" y="0" type="line"/>
      <point x="1164" y="0" type="line"/>
      <point x="566" y="764" type="line"/>
      <point x="1240" y="1388" type="line"/>
      <point x="1305" y="1455"/>
      <point x="1370" y="1466"/>
      <point x="1438" y="1420" type="curve"/>
      <point x="1470" y="1450" type="line"/>
      <point x="1385" y="1518"/>
      <point x="1306" y="1508"/>
      <point x="1224" y="1432" type="curve" smooth="yes"/>
      <point x="284" y="562" type="line"/>
      <point x="280" y="562" type="line"/>
      <point x="434" y="1490" type="line"/>
      <point x="386" y="1490" type="line"/>
    </contour>
  </outline>
</glyph>
<glyph name="lambdabar" format="2">
  <advance width="1230"/>
  <unicode hex="019B"/>
  <outline>
    <contour>
      <point x="722" y="1436" type="line"/>
      <point x="296" y="1250" type="line"/>
      <point x="286" y="1198" type="line"/>
      <point x="712" y="1384" type="line"/>
    </contour>
    <contour>
      <point x="620" y="1054" type="line"/>
      <point x="628" y="1084" type="line"/>
      <point x="608" y="1128" type="line"/>
      <point x="18" y="0" type="line"/>
      <point x="72" y="0" type="line"/>
    </contour>
    <contour>
      <point x="406" y="1510" type="curve" smooth="yes"/>
      <point x="373" y="1511"/>
      <point x="338" y="1505"/>
      <point x="304" y="1496" type="curve"/>
      <point x="314" y="1454" type="line"/>
      <point x="346" y="1460"/>
      <point x="374" y="1465"/>
      <point x="398" y="1464" type="curve" smooth="yes"/>
      <point x="489" y="1462"/>
      <point x="537" y="1415"/>
      <point x="560" y="1298" type="curve" smooth="yes"/>
      <point x="616" y="1006" type="line"/>
      <point x="782" y="186" type="line" smooth="yes"/>
      <point x="812" y="35"/>
      <point x="843" y="-12"/>
      <point x="920" y="-12" type="curve" smooth="yes"/>
      <point x="943" y="-12"/>
      <point x="962" y="-9"/>
      <point x="980" y="-2" type="curve"/>
      <point x="970" y="42" type="line"/>
      <point x="952" y="38"/>
      <point x="935" y="35"/>
      <point x="924" y="34" type="curve" smooth="yes"/>
      <point x="872" y="35"/>
      <point x="850" y="76"/>
      <point x="820" y="226" type="curve" smooth="yes"/>
      <point x="604" y="1312" type="line" smooth="yes"/>
      <point x="575" y="1455"/>
      <point x="521" y="1507"/>
    </contour>
  </outline>
</glyph>
<glyph name="mcapturn" format="2">
  <advance width="1704"/>
  <unicode hex="019C"/>
  <outline>
    <contour>
      <point x="1432" y="228" type="line"/>
      <point x="1400" y="0" type="line"/>
      <point x="1440" y="0" type="line"/>
      <point x="1688" y="1490" type="line"/>
      <point x="1640" y="1490" type="line"/>
    </contour>
    <contour>
      <point x="1454" y="366" type="line"/>
      <point x="1421" y="172"/>
      <point x="1258" y="32"/>
      <point x="1094" y="32" type="curve" smooth="yes"/>
      <point x="892" y="32"/>
      <point x="810" y="164"/>
      <point x="844" y="366" type="curve" smooth="yes"/>
      <point x="1030" y="1490" type="line"/>
      <point x="984" y="1490" type="line"/>
      <point x="798" y="366" type="line" smooth="yes"/>
      <point x="761" y="146"/>
      <point x="865" y="-15"/>
      <point x="1086" y="-14" type="curve" smooth="yes"/>
      <point x="1284" y="-15"/>
      <point x="1463" y="138"/>
      <point x="1486" y="366" type="curve"/>
    </contour>
    <contour>
      <point x="798" y="366" type="line"/>
      <point x="764" y="171"/>
      <point x="602" y="32"/>
      <point x="436" y="32" type="curve" smooth="yes"/>
      <point x="233" y="32"/>
      <point x="153" y="163"/>
      <point x="186" y="366" type="curve" smooth="yes"/>
      <point x="372" y="1490" type="line"/>
      <point x="326" y="1490" type="line"/>
      <point x="140" y="366" type="line" smooth="yes"/>
      <point x="103" y="145"/>
      <point x="206" y="-15"/>
      <point x="428" y="-14" type="curve" smooth="yes"/>
      <point x="627" y="-15"/>
      <point x="805" y="138"/>
      <point x="830" y="366" type="curve"/>
    </contour>
  </outline>
</glyph>
<glyph name="Ohorn" format="2">
  <advance width="1530"/>
  <unicode hex="01A0"/>
  <anchor x="673" y="0" name="bottom"/>
  <anchor x="797" y="745" name="center"/>
  <anchor x="1428" y="926" name="ogonek"/>
  <anchor x="432" y="1490" name="tonos"/>
  <anchor x="920" y="1490" name="top"/>
  <anchor x="923" y="1510" name="tophorn"/>
  <outline>
    <contour>
      <point x="916" y="1472" type="line"/>
      <point x="1076" y="1470"/>
      <point x="1288" y="1444"/>
      <point x="1405" y="1444" type="curve" smooth="yes"/>
      <point x="1484" y="1444"/>
      <point x="1535" y="1488"/>
      <point x="1548" y="1567" type="curve" smooth="yes"/>
      <point x="1570" y="1698" type="line"/>
      <point x="1524" y="1698" type="line"/>
      <point x="1502" y="1567" type="line" smooth="yes"/>
      <point x="1493" y="1513"/>
      <point x="1467" y="1490"/>
      <point x="1413" y="1490" type="curve" smooth="yes"/>
      <point x="1100" y="1490"/>
      <point x="1083" y="1510"/>
      <point x="922" y="1510" type="curve"/>
    </contour>
    <component base="O"/>
  </outline>
</glyph>
<glyph name="ohorn" format="2">
  <advance width="1186"/>
  <unicode hex="01A1"/>
  <anchor x="501" y="0" name="bottom"/>
  <anchor x="594" y="559" name="center"/>
  <anchor x="1056" y="556" name="ogonek"/>
  <anchor x="687" y="1118" name="top"/>
  <anchor x="689" y="1134" name="tophorn"/>
  <outline>
    <contour>
      <point x="681" y="1096" type="line"/>
      <point x="794" y="1088"/>
      <point x="905" y="1076"/>
      <point x="1018" y="1073" type="curve" smooth="yes"/>
      <point x="1096" y="1071"/>
      <point x="1148" y="1116"/>
      <point x="1161" y="1195" type="curve" smooth="yes"/>
      <point x="1183" y="1326" type="line"/>
      <point x="1137" y="1326" type="line"/>
      <point x="1115" y="1195" type="line" smooth="yes"/>
      <point x="1106" y="1141"/>
      <point x="1079" y="1118"/>
      <point x="1025" y="1118" type="curve" smooth="yes"/>
      <point x="912" y="1118"/>
      <point x="800" y="1129"/>
      <point x="688" y="1134" type="curve"/>
    </contour>
    <component base="o"/>
  </outline>
</glyph>
<glyph name="OI" format="2">
  <advance width="1582"/>
  <unicode hex="01A2"/>
  <outline>
    <contour>
      <point x="1164" y="786" type="line"/>
      <point x="1118" y="786" type="line"/>
      <point x="1018" y="184" type="line"/>
      <point x="940" y="90"/>
      <point x="793" y="26"/>
      <point x="652" y="26" type="curve" smooth="yes"/>
      <point x="345" y="26"/>
      <point x="151" y="287"/>
      <point x="214" y="672" type="curve" smooth="yes"/>
      <point x="222" y="714" type="line"/>
      <point x="174" y="714" type="line"/>
      <point x="168" y="672" type="line" smooth="yes"/>
      <point x="100" y="269"/>
      <point x="319" y="-20"/>
      <point x="640" y="-20" type="curve" smooth="yes"/>
      <point x="801" y="-20"/>
      <point x="961" y="51"/>
      <point x="1062" y="174" type="curve"/>
    </contour>
    <contour>
      <point x="1254" y="1330" type="line"/>
      <point x="1181" y="1444"/>
      <point x="1048" y="1510"/>
      <point x="894" y="1510" type="curve" smooth="yes"/>
      <point x="551" y="1510"/>
      <point x="256" y="1207"/>
      <point x="186" y="786" type="curve" smooth="yes"/>
      <point x="172" y="702" type="line"/>
      <point x="218" y="702" type="line"/>
      <point x="232" y="786" type="line" smooth="yes"/>
      <point x="297" y="1175"/>
      <point x="577" y="1463"/>
      <point x="886" y="1464" type="curve" smooth="yes"/>
      <point x="1024" y="1463"/>
      <point x="1148" y="1405"/>
      <point x="1202" y="1308" type="curve"/>
      <point x="1098" y="670" type="line"/>
      <point x="1144" y="670" type="line"/>
    </contour>
    <contour>
      <point x="1502" y="1490" type="line"/>
      <point x="1436" y="1490" type="line"/>
      <point x="1218" y="1338" type="line"/>
      <point x="1208" y="1278" type="line"/>
      <point x="1448" y="1446" type="line"/>
      <point x="1140" y="-418" type="line"/>
      <point x="1186" y="-418" type="line"/>
    </contour>
  </outline>
</glyph>
<glyph name="oi" format="2">
  <advance width="1062"/>
  <unicode hex="01A3"/>
  <outline>
    <contour>
      <point x="410" y="20" type="curve" smooth="yes"/>
      <point x="178" y="23"/>
      <point x="48" y="228"/>
      <point x="96" y="514" type="curve" smooth="yes"/>
      <point x="100" y="542" type="line" smooth="yes"/>
      <point x="167" y="871"/>
      <point x="356" y="1088"/>
      <point x="592" y="1088" type="curve" smooth="yes"/>
      <point x="666" y="1088"/>
      <point x="731" y="1068"/>
      <point x="782" y="1034" type="curve"/>
      <point x="686" y="444" type="line"/>
      <point x="732" y="444" type="line"/>
      <point x="834" y="1062" type="line"/>
      <point x="763" y="1108"/>
      <point x="688" y="1135"/>
      <point x="600" y="1134" type="curve" smooth="yes"/>
      <point x="336" y="1135"/>
      <point x="113" y="900"/>
      <point x="54" y="542" type="curve" smooth="yes"/>
      <point x="50" y="522" type="line" smooth="yes"/>
      <point x="-1" y="204"/>
      <point x="153" y="-24"/>
      <point x="402" y="-26" type="curve" smooth="yes"/>
      <point x="496" y="-27"/>
      <point x="577" y="3"/>
      <point x="668" y="58" type="curve"/>
      <point x="780" y="738" type="line"/>
      <point x="734" y="738" type="line"/>
      <point x="626" y="82" type="line"/>
      <point x="561" y="44"/>
      <point x="490" y="20"/>
    </contour>
    <contour>
      <point x="1094" y="1118" type="line"/>
      <point x="1030" y="1118" type="line"/>
      <point x="808" y="984" type="line"/>
      <point x="800" y="930" type="line"/>
      <point x="1040" y="1074" type="line"/>
      <point x="794" y="-418" type="line"/>
      <point x="840" y="-418" type="line"/>
    </contour>
  </outline>
</glyph>
<glyph name="YR" format="2">
  <advance width="1352"/>
  <unicode hex="01A6"/>
  <outline>
    <contour>
      <point x="254" y="1384" type="line"/>
      <point x="302" y="1384" type="line"/>
      <point x="334" y="1588" type="line"/>
      <point x="288" y="1588" type="line"/>
    </contour>
    <contour>
      <point x="272" y="1490" type="line"/>
      <point x="26" y="0" type="line"/>
      <point x="72" y="0" type="line"/>
      <point x="312" y="1442" type="line"/>
      <point x="702" y="1442" type="line" smooth="yes"/>
      <point x="924" y="1443"/>
      <point x="1057" y="1293"/>
      <point x="1020" y="1064" type="curve" smooth="yes"/>
      <point x="983" y="838"/>
      <point x="799" y="689"/>
      <point x="630" y="690" type="curve" smooth="yes"/>
      <point x="162" y="690" type="line"/>
      <point x="156" y="642" type="line"/>
      <point x="670" y="642" type="line"/>
      <point x="684" y="648" type="line"/>
      <point x="879" y="692"/>
      <point x="1031" y="852"/>
      <point x="1066" y="1064" type="curve" smooth="yes"/>
      <point x="1108" y="1320"/>
      <point x="959" y="1489"/>
      <point x="708" y="1490" type="curve" smooth="yes"/>
    </contour>
    <contour>
      <point x="1030" y="-372" type="line"/>
      <point x="1080" y="-372" type="line"/>
      <point x="1080" y="-366" type="line"/>
      <point x="694" y="664" type="line"/>
      <point x="642" y="664" type="line"/>
    </contour>
  </outline>
</glyph>
<glyph name="Tonetwo" format="2">
  <advance width="1254"/>
  <unicode hex="01A7"/>
  <anchor x="533" y="0" name="bottom"/>
  <anchor x="533" y="0" name="cedilla"/>
  <anchor x="780" y="1490" name="top"/>
  <outline>
    <contour>
      <point x="535" y="-24" type="curve" smooth="yes"/>
      <point x="806" y="-24"/>
      <point x="1011" y="130"/>
      <point x="1061" y="350" type="curve"/>
      <point x="1015" y="350" type="line"/>
      <point x="969" y="156"/>
      <point x="780" y="24"/>
      <point x="535" y="24" type="curve" smooth="yes"/>
      <point x="278" y="24"/>
      <point x="139" y="167"/>
      <point x="174" y="378" type="curve" smooth="yes"/>
      <point x="200" y="538"/>
      <point x="315" y="635"/>
      <point x="569" y="710" type="curve" smooth="yes"/>
      <point x="745" y="762" type="line" smooth="yes"/>
      <point x="992" y="835"/>
      <point x="1127" y="956"/>
      <point x="1156" y="1128" type="curve" smooth="yes"/>
      <point x="1192" y="1348"/>
      <point x="1031" y="1512"/>
      <point x="777" y="1512" type="curve" smooth="yes"/>
      <point x="522" y="1512"/>
      <point x="321.994" y="1347"/>
      <point x="270" y="1118" type="curve"/>
      <point x="316" y="1118" type="line"/>
      <point x="365" y="1321"/>
      <point x="547" y="1466"/>
      <point x="778" y="1466" type="curve" smooth="yes"/>
      <point x="1005" y="1466"/>
      <point x="1142" y="1324"/>
      <point x="1110" y="1128" type="curve" smooth="yes"/>
      <point x="1085" y="977"/>
      <point x="967" y="873"/>
      <point x="743" y="808" type="curve" smooth="yes"/>
      <point x="564" y="756" type="line" smooth="yes"/>
      <point x="294" y="678"/>
      <point x="158" y="561"/>
      <point x="128" y="378" type="curve" smooth="yes"/>
      <point x="89.005" y="145"/>
      <point x="252" y="-24"/>
    </contour>
  </outline>
</glyph>
<glyph name="tonetwo" format="2">
  <advance width="1009"/>
  <unicode hex="01A8"/>
  <anchor x="403" y="0" name="bottom"/>
  <anchor x="405" y="0" name="cedilla"/>
  <anchor x="584" y="1118" name="top"/>
  <outline>
    <contour>
      <point x="197" y="882" type="curve"/>
      <point x="241" y="870" type="line"/>
      <point x="310" y="1015"/>
      <point x="420" y="1088"/>
      <point x="573" y="1088" type="curve" smooth="yes"/>
      <point x="752" y="1088"/>
      <point x="857" y="989"/>
      <point x="832" y="840" type="curve" smooth="yes"/>
      <point x="813" y="724"/>
      <point x="726" y="641"/>
      <point x="569" y="603" type="curve" smooth="yes"/>
      <point x="386" y="559" type="line" smooth="yes"/>
      <point x="216" y="518"/>
      <point x="111" y="420"/>
      <point x="88" y="282" type="curve" smooth="yes"/>
      <point x="58" y="100"/>
      <point x="191" y="-24"/>
      <point x="409" y="-24" type="curve" smooth="yes"/>
      <point x="608" y="-24"/>
      <point x="755" y="78"/>
      <point x="823" y="256" type="curve"/>
      <point x="779" y="267" type="line"/>
      <point x="720" y="108"/>
      <point x="595" y="22"/>
      <point x="417" y="22" type="curve" smooth="yes"/>
      <point x="224" y="22"/>
      <point x="108" y="127"/>
      <point x="134" y="282" type="curve" smooth="yes"/>
      <point x="153" y="398"/>
      <point x="239" y="478"/>
      <point x="388" y="514" type="curve" smooth="yes"/>
      <point x="569" y="558" type="line" smooth="yes"/>
      <point x="748" y="601"/>
      <point x="855" y="701"/>
      <point x="878" y="840" type="curve" smooth="yes"/>
      <point x="907" y="1016"/>
      <point x="785" y="1134"/>
      <point x="581" y="1134" type="curve" smooth="yes"/>
      <point x="409" y="1134"/>
      <point x="279" y="1049"/>
    </contour>
  </outline>
</glyph>
<glyph name="thook" format="2">
  <advance width="711"/>
  <unicode hex="01AD"/>
  <anchor x="407" y="1118" name="_topr"/>
  <anchor x="344" y="0" name="bottom"/>
  <anchor x="445" y="1490" name="top"/>
  <anchor x="407" y="1118" name="topr"/>
  <outline>
    <contour>
      <point x="429" y="-20" type="curve" smooth="yes"/>
      <point x="464" y="-20"/>
      <point x="491" y="-14"/>
      <point x="522" y="-2" type="curve"/>
      <point x="515" y="40" type="line"/>
      <point x="487" y="31"/>
      <point x="464" y="26"/>
      <point x="436" y="26" type="curve" smooth="yes"/>
      <point x="324" y="26"/>
      <point x="239" y="105"/>
      <point x="261" y="236" type="curve" smooth="yes"/>
      <point x="403" y="1096" type="line"/>
      <point x="357" y="1096" type="line"/>
      <point x="215" y="236" type="line" smooth="yes"/>
      <point x="189" y="79"/>
      <point x="291" y="-20"/>
    </contour>
    <contour>
      <point x="189" y="1072" type="line"/>
      <point x="631" y="1072" type="line"/>
      <point x="639" y="1118" type="line"/>
      <point x="197" y="1118" type="line"/>
    </contour>
    <component base="_part.top_r_hook" xOffset="71"/>
  </outline>
</glyph>
<glyph name="Trthook" format="2">
  <advance width="1263"/>
  <unicode hex="01AE"/>
  <anchor x="538" y="0" name="bottom"/>
  <anchor x="562" y="0" name="bottomr"/>
  <anchor x="539" y="0" name="cedilla"/>
  <anchor x="665" y="768" name="cross"/>
  <anchor x="562" y="0" name="cyrtic"/>
  <anchor x="550" y="0" name="right"/>
  <anchor x="785" y="1490" name="top"/>
  <outline>
    <contour>
      <point x="558" y="0" type="line"/>
      <point x="512" y="0" type="line"/>
      <point x="482" y="-168" type="line" smooth="yes"/>
      <point x="455" y="-330"/>
      <point x="514" y="-416"/>
      <point x="640" y="-416" type="curve"/>
      <point x="698" y="-416" type="line"/>
      <point x="706" y="-370" type="line"/>
      <point x="654" y="-370" type="line"/>
      <point x="549" y="-369"/>
      <point x="506" y="-305"/>
      <point x="530" y="-168" type="curve" smooth="yes"/>
    </contour>
    <component base="T"/>
  </outline>
</glyph>
<glyph name="Uhorn" format="2">
  <advance width="1535"/>
  <unicode hex="01AF"/>
  <anchor x="643" y="0" name="bottom"/>
  <anchor x="1263" y="504" name="ogonek"/>
  <anchor x="705" y="0" name="right"/>
  <anchor x="1378" y="1490" name="rtophorn"/>
  <anchor x="890" y="1490" name="top"/>
  <outline>
    <contour>
      <point x="1404" y="1444" type="line"/>
      <point x="1521" y="1444" type="line" smooth="yes"/>
      <point x="1600" y="1444"/>
      <point x="1651" y="1488"/>
      <point x="1664" y="1567" type="curve" smooth="yes"/>
      <point x="1686" y="1698" type="line"/>
      <point x="1640" y="1698" type="line"/>
      <point x="1618" y="1567" type="line" smooth="yes"/>
      <point x="1609" y="1513"/>
      <point x="1583" y="1490"/>
      <point x="1529" y="1490" type="curve" smooth="yes"/>
      <point x="1412" y="1490" type="line"/>
    </contour>
    <component base="U"/>
  </outline>
</glyph>
<glyph name="uhorn" format="2">
  <advance width="1232"/>
  <unicode hex="01B0"/>
  <anchor x="506" y="0" name="bottom"/>
  <anchor x="906" y="0" name="ogonek"/>
  <anchor x="1045" y="1118" name="rtophorn"/>
  <anchor x="691" y="1118" name="top"/>
  <outline>
    <contour>
      <point x="1055" y="1072" type="line"/>
      <point x="1153" y="1072" type="line" smooth="yes"/>
      <point x="1232" y="1072"/>
      <point x="1284" y="1116"/>
      <point x="1297" y="1195" type="curve" smooth="yes"/>
      <point x="1325" y="1366" type="line"/>
      <point x="1279" y="1366" type="line"/>
      <point x="1251" y="1195" type="line" smooth="yes"/>
      <point x="1242" y="1141"/>
      <point x="1215" y="1118"/>
      <point x="1161" y="1118" type="curve" smooth="yes"/>
      <point x="1063" y="1118" type="line"/>
    </contour>
    <component base="u"/>
  </outline>
</glyph>
<glyph name="Upsilon2" format="2">
  <advance width="1524"/>
  <unicode hex="01B1"/>
  <outline>
    <contour>
      <point x="178" y="728" type="curve" smooth="yes"/>
      <point x="106" y="305"/>
      <point x="324" y="-20"/>
      <point x="666" y="-20" type="curve" smooth="yes"/>
      <point x="1025" y="-20"/>
      <point x="1329" y="287"/>
      <point x="1400" y="728" type="curve" smooth="yes"/>
      <point x="1451" y="1038"/>
      <point x="1358" y="1286"/>
      <point x="1096" y="1432" type="curve"/>
      <point x="1098" y="1442" type="line"/>
      <point x="1520" y="1442" type="line"/>
      <point x="1528" y="1490" type="line"/>
      <point x="1058" y="1490" type="line"/>
      <point x="1048" y="1422" type="line"/>
      <point x="1265" y="1297"/>
      <point x="1416" y="1087"/>
      <point x="1356" y="730" type="curve" smooth="yes"/>
      <point x="1289" y="335"/>
      <point x="1013" y="28"/>
      <point x="674" y="26" type="curve" smooth="yes"/>
      <point x="339" y="25"/>
      <point x="160" y="335"/>
      <point x="226" y="730" type="curve" smooth="yes"/>
      <point x="288" y="1089"/>
      <point x="504" y="1296"/>
      <point x="762" y="1422" type="curve"/>
      <point x="774" y="1490" type="line"/>
      <point x="306" y="1490" type="line"/>
      <point x="298" y="1442" type="line"/>
      <point x="720" y="1442" type="line"/>
      <point x="718" y="1432" type="line"/>
      <point x="394" y="1279"/>
      <point x="235" y="1053"/>
    </contour>
  </outline>
</glyph>
<glyph name="Vcursive" format="2">
  <advance width="1216"/>
  <unicode hex="01B2"/>
  <outline>
    <contour>
      <point x="504" y="-24" type="curve" smooth="yes"/>
      <point x="815" y="-23"/>
      <point x="1028" y="160"/>
      <point x="1080" y="474" type="curve" smooth="yes"/>
      <point x="1208" y="1262" type="line" smooth="yes"/>
      <point x="1234" y="1429"/>
      <point x="1180" y="1510"/>
      <point x="1040" y="1510" type="curve" smooth="yes"/>
      <point x="1008" y="1510"/>
      <point x="979" y="1505"/>
      <point x="952" y="1496" type="curve"/>
      <point x="944" y="1450" type="line"/>
      <point x="973" y="1460"/>
      <point x="996" y="1463"/>
      <point x="1026" y="1464" type="curve" smooth="yes"/>
      <point x="1146" y="1463"/>
      <point x="1185" y="1406"/>
      <point x="1162" y="1262" type="curve" smooth="yes"/>
      <point x="1032" y="474" type="line" smooth="yes"/>
      <point x="986" y="193"/>
      <point x="790" y="23"/>
      <point x="514" y="24" type="curve" smooth="yes"/>
      <point x="237" y="23"/>
      <point x="110" y="185"/>
      <point x="158" y="474" type="curve" smooth="yes"/>
      <point x="322" y="1490" type="line"/>
      <point x="280" y="1490" type="line"/>
      <point x="110" y="474" type="line" smooth="yes"/>
      <point x="60" y="168"/>
      <point x="211" y="-23"/>
    </contour>
  </outline>
</glyph>
<glyph name="Yhook" format="2">
  <advance width="1274"/>
  <unicode hex="01B3"/>
  <outline>
    <contour>
      <point x="588" y="724" type="line"/>
      <point x="622" y="724" type="line"/>
      <point x="628" y="760" type="line"/>
      <point x="594" y="760" type="line"/>
    </contour>
    <contour>
      <point x="176" y="1490" type="line"/>
      <point x="580" y="706" type="line"/>
      <point x="464" y="0" type="line"/>
      <point x="510" y="0" type="line"/>
      <point x="626" y="706" type="line"/>
      <point x="1218" y="1404" type="line" smooth="yes"/>
      <point x="1272" y="1466"/>
      <point x="1353" y="1476"/>
      <point x="1396" y="1442" type="curve"/>
      <point x="1434" y="1474" type="line"/>
      <point x="1373" y="1529"/>
      <point x="1258" y="1523"/>
      <point x="1180" y="1430" type="curve" smooth="yes"/>
      <point x="606" y="752" type="line"/>
      <point x="228" y="1490" type="line"/>
    </contour>
  </outline>
</glyph>
<glyph name="yhook" format="2">
  <advance width="1382"/>
  <unicode hex="01B4"/>
  <anchor x="666" y="0" name="bottom"/>
  <anchor x="494" y="0" name="ogonek"/>
  <anchor x="649" y="1118" name="top"/>
  <outline>
    <contour>
      <point x="1057" y="1118" type="line"/>
      <point x="1107" y="1118" type="line"/>
      <point x="1198" y="1282" type="line" smooth="yes"/>
      <point x="1292" y="1456"/>
      <point x="1351" y="1510"/>
      <point x="1427" y="1510" type="curve" smooth="yes"/>
      <point x="1454" y="1510"/>
      <point x="1481" y="1504"/>
      <point x="1497" y="1495" type="curve"/>
      <point x="1523" y="1534" type="line"/>
      <point x="1501" y="1546"/>
      <point x="1464" y="1556"/>
      <point x="1428" y="1556" type="curve" smooth="yes"/>
      <point x="1333" y="1556"/>
      <point x="1257" y="1486"/>
      <point x="1156" y="1301" type="curve" smooth="yes"/>
    </contour>
    <component base="y"/>
  </outline>
</glyph>
<glyph name="Ezh" format="2">
  <advance width="1424"/>
  <unicode hex="01B7"/>
  <anchor x="899" y="1676" name="top"/>
  <outline>
    <contour>
      <point x="47" y="72" type="line"/>
      <point x="-3" y="-230"/>
      <point x="215" y="-442"/>
      <point x="529" y="-442" type="curve" smooth="yes"/>
      <point x="893" y="-442"/>
      <point x="1146" y="-157"/>
      <point x="1199" y="154" type="curve" smooth="yes"/>
      <point x="1255" y="492"/>
      <point x="1024" y="751"/>
      <point x="625" y="768" type="curve"/>
      <point x="625" y="774" type="line"/>
      <point x="1365" y="1452" type="line"/>
      <point x="1371" y="1490" type="line"/>
      <point x="361" y="1490" type="line"/>
      <point x="353" y="1442" type="line"/>
      <point x="1315" y="1442" type="line"/>
      <point x="1321" y="1470" type="line"/>
      <point x="555" y="768" type="line"/>
      <point x="547" y="722" type="line"/>
      <point x="617" y="722" type="line" smooth="yes"/>
      <point x="983" y="707"/>
      <point x="1204" y="472"/>
      <point x="1153" y="154" type="curve" smooth="yes"/>
      <point x="1100" y="-169"/>
      <point x="838" y="-396"/>
      <point x="527" y="-396" type="curve" smooth="yes"/>
      <point x="242" y="-396"/>
      <point x="50" y="-201"/>
      <point x="93" y="72" type="curve"/>
    </contour>
  </outline>
</glyph>
<glyph name="Ezhreversed" format="2">
  <advance width="1424"/>
  <unicode hex="01B8"/>
  <anchor x="895" y="1676" name="top"/>
  <outline>
    <contour>
      <point x="1215" y="72" type="curve"/>
      <point x="1169" y="72" type="line"/>
      <point x="1123" y="-199"/>
      <point x="865" y="-396"/>
      <point x="569" y="-396" type="curve" smooth="yes"/>
      <point x="269" y="-396"/>
      <point x="84" y="-169"/>
      <point x="137" y="144" type="curve" smooth="yes"/>
      <point x="190" y="471"/>
      <point x="488" y="705"/>
      <point x="863" y="722" type="curve" smooth="yes"/>
      <point x="931" y="722" type="line"/>
      <point x="937" y="768" type="line"/>
      <point x="405" y="1470" type="line"/>
      <point x="401" y="1442" type="line"/>
      <point x="1363" y="1442" type="line"/>
      <point x="1371" y="1490" type="line"/>
      <point x="361" y="1490" type="line"/>
      <point x="355" y="1452" type="line"/>
      <point x="869" y="774" type="line"/>
      <point x="867" y="768" type="line"/>
      <point x="464" y="751"/>
      <point x="147" y="492"/>
      <point x="89" y="144" type="curve" smooth="yes"/>
      <point x="40" y="-157"/>
      <point x="200" y="-442"/>
      <point x="563" y="-442" type="curve" smooth="yes"/>
      <point x="877" y="-442"/>
      <point x="1165" y="-230"/>
    </contour>
  </outline>
</glyph>
<glyph name="ezhreversed" format="2">
  <advance width="1225"/>
  <unicode hex="01B9"/>
  <anchor x="673" y="1118" name="top"/>
  <outline>
    <contour>
      <point x="431" y="-392" type="curve" smooth="yes"/>
      <point x="683" y="-392"/>
      <point x="902" y="-227"/>
      <point x="940" y="0" type="curve"/>
      <point x="894" y="0" type="line"/>
      <point x="861" y="-200"/>
      <point x="665" y="-346"/>
      <point x="439" y="-346" type="curve" smooth="yes"/>
      <point x="188" y="-346"/>
      <point x="73" y="-165"/>
      <point x="107" y="42" type="curve" smooth="yes"/>
      <point x="148" y="287"/>
      <point x="374" y="433"/>
      <point x="646" y="433" type="curve" smooth="yes"/>
      <point x="702" y="433" type="line"/>
      <point x="709" y="478" type="line"/>
      <point x="334" y="1071" type="line"/>
      <point x="334" y="1072" type="line"/>
      <point x="1055" y="1072" type="line"/>
      <point x="1063" y="1118" type="line"/>
      <point x="277" y="1118" type="line"/>
      <point x="271" y="1080" type="line"/>
      <point x="654" y="475" type="line"/>
      <point x="653" y="474" type="line"/>
      <point x="346" y="474"/>
      <point x="105" y="308"/>
      <point x="61" y="42" type="curve" smooth="yes"/>
      <point x="22" y="-195"/>
      <point x="158" y="-392"/>
    </contour>
  </outline>
</glyph>
<glyph name="ezhtail" format="2">
  <advance width="1004"/>
  <unicode hex="01BA"/>
  <outline>
    <contour>
      <point x="197" y="1120" type="line" name="hr00"/>
      <point x="189" y="1072" type="line"/>
      <point x="957" y="1072" type="line"/>
      <point x="328" y="592" type="line"/>
      <point x="320" y="544" type="line"/>
      <point x="334" y="544" type="line"/>
      <point x="1020" y="1066" type="line"/>
      <point x="1029" y="1118" type="line"/>
    </contour>
    <contour>
      <point x="7" y="-162" type="curve" smooth="yes"/>
      <point x="30" y="-26"/>
      <point x="120" y="49"/>
      <point x="350" y="106" type="curve" smooth="yes"/>
      <point x="628" y="175"/>
      <point x="724" y="239"/>
      <point x="745" y="370" type="curve" smooth="yes"/>
      <point x="771" y="526"/>
      <point x="658" y="590"/>
      <point x="364" y="590" type="curve" smooth="yes"/>
      <point x="340" y="590" type="line"/>
      <point x="328" y="544" type="line"/>
      <point x="356" y="544" type="line" smooth="yes"/>
      <point x="623" y="544"/>
      <point x="720" y="495"/>
      <point x="699" y="370" type="curve" smooth="yes"/>
      <point x="682" y="263"/>
      <point x="600" y="212"/>
      <point x="341" y="150" type="curve" smooth="yes"/>
      <point x="96" y="91"/>
      <point x="-15" y="-5"/>
      <point x="-41" y="-162" type="curve" smooth="yes"/>
      <point x="-72" y="-348"/>
      <point x="44" y="-442"/>
      <point x="271" y="-442" type="curve" smooth="yes"/>
      <point x="495" y="-442"/>
      <point x="673" y="-305"/>
      <point x="726" y="-94" type="curve"/>
      <point x="678" y="-94" type="line"/>
      <point x="633" y="-278"/>
      <point x="476" y="-396"/>
      <point x="278" y="-396" type="curve" smooth="yes"/>
      <point x="76" y="-396"/>
      <point x="-19" y="-319"/>
    </contour>
  </outline>
</glyph>
<glyph name="Tonefive" format="2">
  <advance width="1168"/>
  <unicode hex="01BC"/>
  <outline>
    <contour>
      <point x="515" y="1490" type="line"/>
      <point x="283" y="1490" type="line"/>
      <point x="275" y="1444" type="line"/>
      <point x="507" y="1444" type="line"/>
    </contour>
    <component base="five" xOffset="41"/>
  </outline>
</glyph>
<glyph name="tonefive" format="2">
  <advance width="832"/>
  <unicode hex="01BD"/>
  <outline>
    <contour>
      <point x="190" y="524" type="line" name="hr00"/>
      <point x="252" y="613"/>
      <point x="370" y="675"/>
      <point x="484" y="674" type="curve" smooth="yes"/>
      <point x="656" y="671"/>
      <point x="744" y="548"/>
      <point x="712" y="352" type="curve" smooth="yes"/>
      <point x="678" y="159"/>
      <point x="529" y="29"/>
      <point x="338" y="30" type="curve" smooth="yes"/>
      <point x="171" y="29"/>
      <point x="76" y="137"/>
      <point x="94" y="300" type="curve"/>
      <point x="46" y="288" type="line"/>
      <point x="31" y="108"/>
      <point x="147" y="-17"/>
      <point x="344" y="-18" type="curve" smooth="yes"/>
      <point x="554" y="-17"/>
      <point x="723" y="132"/>
      <point x="760" y="360" type="curve" smooth="yes"/>
      <point x="792" y="573"/>
      <point x="678" y="720"/>
      <point x="484" y="720" type="curve" smooth="yes"/>
      <point x="382" y="720"/>
      <point x="284" y="679"/>
      <point x="216" y="612" type="curve"/>
      <point x="330" y="1036" type="line"/>
      <point x="836" y="1036" type="line"/>
      <point x="846" y="1082" type="line"/>
      <point x="296" y="1082" type="line"/>
      <point x="146" y="532" type="line"/>
    </contour>
    <contour>
      <point x="374" y="1082" type="line"/>
      <point x="126" y="1082" type="line"/>
      <point x="118" y="1036" type="line"/>
      <point x="366" y="1036" type="line"/>
    </contour>
  </outline>
</glyph>
<glyph name="glottalstopbarinv" format="2">
  <advance width="1032"/>
  <unicode hex="01BE"/>
  <outline>
    <contour>
      <point x="822" y="286" type="curve" smooth="yes"/>
      <point x="797" y="133"/>
      <point x="632" y="28"/>
      <point x="432" y="28" type="curve" smooth="yes"/>
      <point x="209" y="28"/>
      <point x="113" y="172"/>
      <point x="140" y="334" type="curve"/>
      <point x="94" y="334" type="line"/>
      <point x="63" y="153"/>
      <point x="183" y="-19"/>
      <point x="424" y="-18" type="curve" smooth="yes"/>
      <point x="660" y="-19"/>
      <point x="837" y="100"/>
      <point x="868" y="286" type="curve" smooth="yes"/>
      <point x="916" y="569"/>
      <point x="519" y="495"/>
      <point x="572" y="816" type="curve" smooth="yes"/>
      <point x="658" y="1334" type="line"/>
      <point x="610" y="1334" type="line"/>
      <point x="526" y="816" type="line" smooth="yes"/>
      <point x="468" y="468"/>
      <point x="862" y="529"/>
    </contour>
    <contour>
      <point x="862" y="1070" type="line"/>
      <point x="320" y="1070" type="line"/>
      <point x="312" y="1022" type="line"/>
      <point x="854" y="1022" type="line"/>
    </contour>
  </outline>
</glyph>
<glyph name="wynn" format="2">
  <advance width="1142"/>
  <unicode hex="01BF"/>
  <outline>
    <contour>
      <point x="248" y="952" type="line"/>
      <point x="264" y="1118" type="line"/>
      <point x="226" y="1118" type="line"/>
      <point x="-2" y="-416" type="line"/>
      <point x="46" y="-416" type="line"/>
    </contour>
    <contour>
      <point x="226" y="890" type="line"/>
      <point x="354" y="1023"/>
      <point x="488" y="1088"/>
      <point x="622" y="1088" type="curve" smooth="yes"/>
      <point x="852" y="1088"/>
      <point x="964" y="919"/>
      <point x="926" y="644" type="curve" smooth="yes"/>
      <point x="918" y="594" type="line" smooth="yes"/>
      <point x="868" y="244"/>
      <point x="631" y="50"/>
      <point x="58" y="-118" type="curve"/>
      <point x="50" y="-164" type="line"/>
      <point x="640" y="-4"/>
      <point x="905" y="221"/>
      <point x="966" y="596" type="curve" smooth="yes"/>
      <point x="974" y="642" type="line" smooth="yes"/>
      <point x="1022" y="942"/>
      <point x="884" y="1135"/>
      <point x="630" y="1134" type="curve" smooth="yes"/>
      <point x="485" y="1135"/>
      <point x="345" y="1068"/>
      <point x="210" y="932" type="curve"/>
    </contour>
  </outline>
</glyph>
<glyph name="pipe" format="2">
  <advance width="382"/>
  <unicode hex="01C0"/>
  <outline>
    <contour>
      <point x="374" y="1516" type="line"/>
      <point x="328" y="1516" type="line"/>
      <point x="76" y="0" type="line"/>
      <point x="122" y="0" type="line"/>
    </contour>
  </outline>
</glyph>
<glyph name="uni01F6" format="2">
  <advance width="2270"/>
  <unicode hex="01F6"/>
  <outline>
    <contour>
      <point x="1563" y="-24" type="curve" smooth="yes"/>
      <point x="1802" y="-23"/>
      <point x="1995" y="102"/>
      <point x="2052" y="440" type="curve" smooth="yes"/>
      <point x="2169" y="1146" type="line"/>
      <point x="2121" y="1146" type="line"/>
      <point x="2005" y="444" type="line" smooth="yes"/>
      <point x="1958" y="161"/>
      <point x="1810" y="24"/>
      <point x="1564" y="24" type="curve" smooth="yes"/>
      <point x="1322" y="24"/>
      <point x="1208" y="157"/>
      <point x="1254" y="440" type="curve" smooth="yes"/>
      <point x="1428" y="1490" type="line"/>
      <point x="1382" y="1490" type="line"/>
      <point x="1263" y="768" type="line"/>
      <point x="315" y="768" type="line"/>
      <point x="434" y="1490" type="line"/>
      <point x="386" y="1490" type="line"/>
      <point x="139" y="0" type="line"/>
      <point x="187" y="0" type="line"/>
      <point x="307" y="722" type="line"/>
      <point x="1255" y="722" type="line"/>
      <point x="1209" y="444" type="line" smooth="yes"/>
      <point x="1155" y="120"/>
      <point x="1309" y="-23"/>
    </contour>
  </outline>
</glyph>
<glyph name="uni01F7" format="2">
  <advance width="980"/>
  <unicode hex="01F7"/>
  <outline>
    <contour>
      <point x="260" y="1488" type="line"/>
      <point x="214" y="1488" type="line"/>
      <point x="-104" y="-418" type="line"/>
      <point x="-56" y="-418" type="line"/>
    </contour>
    <contour>
      <point x="-42" y="-136" type="line"/>
      <point x="540" y="-12"/>
      <point x="883" y="321"/>
      <point x="976" y="856" type="curve" smooth="yes"/>
      <point x="982" y="888" type="line" smooth="yes"/>
      <point x="1054" y="1304"/>
      <point x="913" y="1510"/>
      <point x="584" y="1510" type="curve" smooth="yes"/>
      <point x="449" y="1510"/>
      <point x="318" y="1476"/>
      <point x="216" y="1412" type="curve"/>
      <point x="230" y="1370" type="line"/>
      <point x="327" y="1431"/>
      <point x="454" y="1463"/>
      <point x="580" y="1464" type="curve" smooth="yes"/>
      <point x="881" y="1463"/>
      <point x="1008" y="1270"/>
      <point x="936" y="892" type="curve" smooth="yes"/>
      <point x="928" y="854" type="line" smooth="yes"/>
      <point x="831" y="349"/>
      <point x="522" y="39"/>
      <point x="-34" y="-90" type="curve"/>
    </contour>
  </outline>
</glyph>
<glyph name="uni021C" format="2">
  <advance width="1210"/>
  <unicode hex="021C"/>
  <outline>
    <contour>
      <point x="174" y="368" type="line"/>
      <point x="708" y="515"/>
      <point x="1095" y="802"/>
      <point x="1148" y="1120" type="curve" smooth="yes"/>
      <point x="1187" y="1356"/>
      <point x="1036" y="1510"/>
      <point x="764" y="1510" type="curve" smooth="yes"/>
      <point x="489" y="1510"/>
      <point x="263" y="1345"/>
      <point x="224" y="1116" type="curve"/>
      <point x="270" y="1116" type="line"/>
      <point x="302" y="1312"/>
      <point x="508" y="1463"/>
      <point x="764" y="1464" type="curve" smooth="yes"/>
      <point x="1000" y="1463"/>
      <point x="1135" y="1332"/>
      <point x="1102" y="1128" type="curve" smooth="yes"/>
      <point x="1057" y="833"/>
      <point x="683" y="559"/>
      <point x="182" y="418" type="curve"/>
    </contour>
    <contour>
      <point x="854" y="718" type="line"/>
      <point x="975" y="654"/>
      <point x="1026" y="516"/>
      <point x="994" y="320" type="curve" smooth="yes"/>
      <point x="937" y="-17"/>
      <point x="710" y="-185"/>
      <point x="48" y="-386" type="curve"/>
      <point x="40" y="-436" type="line"/>
      <point x="742" y="-228"/>
      <point x="979" y="-46"/>
      <point x="1040" y="322" type="curve" smooth="yes"/>
      <point x="1074" y="530"/>
      <point x="1023" y="672"/>
      <point x="888" y="754" type="curve"/>
    </contour>
  </outline>
</glyph>
<glyph name="uni021D" format="2">
  <advance width="1030"/>
  <unicode hex="021D"/>
  <outline>
    <contour>
      <point x="142" y="264" type="line"/>
      <point x="532" y="308"/>
      <point x="863" y="533"/>
      <point x="910" y="818" type="curve" smooth="yes"/>
      <point x="942" y="1007"/>
      <point x="829" y="1135"/>
      <point x="616" y="1134" type="curve" smooth="yes"/>
      <point x="402" y="1135"/>
      <point x="218" y="1003"/>
      <point x="182" y="792" type="curve"/>
      <point x="228" y="792" type="line"/>
      <point x="257" y="975"/>
      <point x="430" y="1088"/>
      <point x="618" y="1088" type="curve" smooth="yes"/>
      <point x="804" y="1088"/>
      <point x="888" y="979"/>
      <point x="866" y="824" type="curve" smooth="yes"/>
      <point x="828" y="560"/>
      <point x="517" y="353"/>
      <point x="152" y="312" type="curve"/>
    </contour>
    <contour>
      <point x="680" y="494" type="line"/>
      <point x="766" y="422"/>
      <point x="800" y="305"/>
      <point x="772" y="140" type="curve" smooth="yes"/>
      <point x="718" y="-189"/>
      <point x="484" y="-363"/>
      <point x="34" y="-388" type="curve"/>
      <point x="28" y="-436" type="line"/>
      <point x="516" y="-404"/>
      <point x="761" y="-219"/>
      <point x="818" y="142" type="curve" smooth="yes"/>
      <point x="847" y="320"/>
      <point x="813" y="441"/>
      <point x="718" y="526" type="curve"/>
    </contour>
  </outline>
</glyph>
<glyph name="uni0220" format="2">
  <advance width="1062"/>
  <unicode hex="0220"/>
  <outline>
    <contour>
      <point x="804" y="-418" type="line"/>
      <point x="1030" y="946" type="line" smooth="yes"/>
      <point x="1095" y="1341"/>
      <point x="973" y="1510"/>
      <point x="634" y="1510" type="curve" smooth="yes"/>
      <point x="484" y="1510"/>
      <point x="358" y="1476"/>
      <point x="254" y="1412" type="curve"/>
      <point x="270" y="1370" type="line"/>
      <point x="373" y="1435"/>
      <point x="492" y="1463"/>
      <point x="632" y="1464" type="curve" smooth="yes"/>
      <point x="951" y="1463"/>
      <point x="1044" y="1319"/>
      <point x="984" y="950" type="curve" smooth="yes"/>
      <point x="756" y="-418" type="line"/>
    </contour>
    <contour>
      <point x="302" y="1490" type="line"/>
      <point x="256" y="1490" type="line"/>
      <point x="8" y="0" type="line"/>
      <point x="56" y="0" type="line"/>
    </contour>
  </outline>
</glyph>
<glyph name="uni0222" format="2">
  <advance width="1158"/>
  <unicode hex="0222"/>
  <outline>
    <contour>
      <point x="606" y="830" type="line" smooth="yes"/>
      <point x="265" y="831"/>
      <point x="78" y="685"/>
      <point x="32" y="406" type="curve" smooth="yes"/>
      <point x="-13" y="129"/>
      <point x="151" y="-20"/>
      <point x="476" y="-20" type="curve" smooth="yes"/>
      <point x="488" y="-20" type="line" smooth="yes"/>
      <point x="826" y="-20"/>
      <point x="1025" y="117"/>
      <point x="1074" y="406" type="curve" smooth="yes"/>
      <point x="1118" y="675"/>
      <point x="971" y="831"/>
      <point x="640" y="830" type="curve" smooth="yes"/>
    </contour>
    <contour>
      <point x="632" y="784" type="line" smooth="yes"/>
      <point x="943" y="784"/>
      <point x="1067" y="650"/>
      <point x="1026" y="406" type="curve" smooth="yes"/>
      <point x="985" y="153"/>
      <point x="802" y="26"/>
      <point x="498" y="26" type="curve" smooth="yes"/>
      <point x="482" y="26" type="line" smooth="yes"/>
      <point x="175" y="26"/>
      <point x="37" y="154"/>
      <point x="78" y="406" type="curve" smooth="yes"/>
      <point x="119" y="652"/>
      <point x="285" y="784"/>
      <point x="598" y="784" type="curve" smooth="yes"/>
    </contour>
    <contour>
      <point x="606" y="830" type="line" smooth="yes"/>
      <point x="324" y="831"/>
      <point x="187" y="940"/>
      <point x="224" y="1166" type="curve" smooth="yes"/>
      <point x="252" y="1334"/>
      <point x="355" y="1433"/>
      <point x="484" y="1460" type="curve"/>
      <point x="494" y="1510" type="line"/>
      <point x="329" y="1477"/>
      <point x="211" y="1365"/>
      <point x="178" y="1166" type="curve" smooth="yes"/>
      <point x="136" y="916"/>
      <point x="298" y="784"/>
      <point x="598" y="784" type="curve" smooth="yes"/>
      <point x="632" y="784" type="line" smooth="yes"/>
      <point x="944" y="784"/>
      <point x="1137" y="912"/>
      <point x="1178" y="1166" type="curve" smooth="yes"/>
      <point x="1211" y="1367"/>
      <point x="1109" y="1493"/>
      <point x="952" y="1518" type="curve"/>
      <point x="944" y="1470" type="line"/>
      <point x="1080" y="1449"/>
      <point x="1161" y="1344"/>
      <point x="1132" y="1166" type="curve" smooth="yes"/>
      <point x="1095" y="941"/>
      <point x="921" y="831"/>
      <point x="642" y="830" type="curve" smooth="yes"/>
    </contour>
  </outline>
</glyph>
<glyph name="uni0223" format="2">
  <advance width="1212"/>
  <unicode hex="0223"/>
  <outline>
    <contour>
      <point x="606" y="830" type="line" smooth="yes"/>
      <point x="270" y="829"/>
      <point x="79" y="689"/>
      <point x="32" y="412" type="curve" smooth="yes"/>
      <point x="-13" y="141"/>
      <point x="153" y="-20"/>
      <point x="476" y="-20" type="curve" smooth="yes"/>
      <point x="542" y="-20" type="line" smooth="yes"/>
      <point x="872" y="-20"/>
      <point x="1082" y="135"/>
      <point x="1128" y="412" type="curve" smooth="yes"/>
      <point x="1172" y="681"/>
      <point x="1019" y="829"/>
      <point x="694" y="830" type="curve" smooth="yes"/>
    </contour>
    <contour>
      <point x="686" y="782" type="line" smooth="yes"/>
      <point x="992" y="783"/>
      <point x="1123" y="660"/>
      <point x="1080" y="412" type="curve" smooth="yes"/>
      <point x="1039" y="164"/>
      <point x="849" y="26"/>
      <point x="552" y="26" type="curve" smooth="yes"/>
      <point x="482" y="26" type="line" smooth="yes"/>
      <point x="178" y="26"/>
      <point x="37" y="161"/>
      <point x="78" y="412" type="curve" smooth="yes"/>
      <point x="119" y="655"/>
      <point x="296" y="783"/>
      <point x="598" y="782" type="curve" smooth="yes"/>
    </contour>
    <contour>
      <point x="710" y="830" type="curve" smooth="yes"/>
      <point x="590" y="830" type="line" smooth="yes"/>
      <point x="306" y="829"/>
      <point x="175" y="954"/>
      <point x="214" y="1188" type="curve" smooth="yes"/>
      <point x="242" y="1361"/>
      <point x="334" y="1468"/>
      <point x="476" y="1498" type="curve"/>
      <point x="484" y="1548" type="line"/>
      <point x="306" y="1512"/>
      <point x="201" y="1393"/>
      <point x="168" y="1188" type="curve" smooth="yes"/>
      <point x="126" y="934"/>
      <point x="281" y="783"/>
      <point x="584" y="782" type="curve" smooth="yes"/>
      <point x="702" y="782" type="line" smooth="yes"/>
      <point x="1012" y="783"/>
      <point x="1207" y="927"/>
      <point x="1250" y="1188" type="curve" smooth="yes"/>
      <point x="1285" y="1391"/>
      <point x="1202" y="1527"/>
      <point x="1026" y="1556" type="curve"/>
      <point x="1018" y="1512" type="line"/>
      <point x="1171" y="1484"/>
      <point x="1234" y="1375"/>
      <point x="1204" y="1188" type="curve" smooth="yes"/>
      <point x="1168" y="962"/>
      <point x="985" y="829"/>
    </contour>
  </outline>
</glyph>
<glyph name="zhook" format="2">
  <advance width="1072"/>
  <unicode hex="0225"/>
  <outline>
    <contour>
      <point x="802" y="-186" type="line"/>
      <point x="848" y="-186" type="line"/>
      <point x="853" y="-156" type="line" smooth="yes"/>
      <point x="874" y="-29"/>
      <point x="815" y="46"/>
      <point x="689" y="46" type="curve" smooth="yes"/>
      <point x="131" y="46" type="line"/>
      <point x="132" y="52" type="line"/>
      <point x="968" y="1070" type="line"/>
      <point x="976" y="1118" type="line"/>
      <point x="292" y="1118" type="line"/>
      <point x="284" y="1072" type="line"/>
      <point x="911" y="1072" type="line"/>
      <point x="910" y="1066" type="line"/>
      <point x="73" y="46" type="line"/>
      <point x="65" y="0" type="line"/>
      <point x="677" y="0" type="line" smooth="yes"/>
      <point x="790" y="0"/>
      <point x="824" y="-52"/>
      <point x="803" y="-182" type="curve" smooth="yes"/>
    </contour>
  </outline>
</glyph>
<glyph name="jdotless" format="2">
  <advance width="448"/>
  <unicode hex="0237"/>
  <anchor x="418" y="0" name="_right"/>
  <anchor x="33" y="-442" name="bottom"/>
  <anchor x="238" y="628" name="cross"/>
  <anchor x="320" y="1118" name="top"/>
  <outline>
    <contour>
      <point x="297" y="1118" type="line"/>
      <point x="85" y="-162" type="line" smooth="yes"/>
      <point x="63" y="-293"/>
      <point x="-49" y="-372"/>
      <point x="-160" y="-372" type="curve" smooth="yes"/>
      <point x="-178" y="-372" type="line"/>
      <point x="-185" y="-418" type="line"/>
      <point x="-167" y="-418" type="line" smooth="yes"/>
      <point x="-30" y="-418"/>
      <point x="105" y="-320"/>
      <point x="131" y="-162" type="curve" smooth="yes"/>
      <point x="343" y="1118" type="line"/>
    </contour>
  </outline>
</glyph>
<glyph name="uni0238" format="2">
  <advance width="1748"/>
  <unicode hex="0238"/>
  <outline>
    <contour>
      <point x="1668" y="556" type="line" smooth="yes"/>
      <point x="1727" y="910"/>
      <point x="1599" y="1135"/>
      <point x="1360" y="1134" type="curve" smooth="yes"/>
      <point x="1209" y="1135"/>
      <point x="1050" y="1047"/>
      <point x="938" y="910" type="curve"/>
      <point x="822" y="202" type="line"/>
      <point x="889" y="64"/>
      <point x="1017" y="-23"/>
      <point x="1168" y="-24" type="curve" smooth="yes"/>
      <point x="1407" y="-23"/>
      <point x="1609" y="199"/>
      <point x="1664" y="530" type="curve" smooth="yes"/>
    </contour>
    <contour>
      <point x="1618" y="530" type="line" smooth="yes"/>
      <point x="1567" y="228"/>
      <point x="1393" y="23"/>
      <point x="1182" y="24" type="curve" smooth="yes"/>
      <point x="1040" y="23"/>
      <point x="905" y="113"/>
      <point x="844" y="248" type="curve"/>
      <point x="946" y="864" type="line"/>
      <point x="1050" y="999"/>
      <point x="1217" y="1088"/>
      <point x="1360" y="1088" type="curve" smooth="yes"/>
      <point x="1573" y="1088"/>
      <point x="1676" y="882"/>
      <point x="1622" y="556" type="curve" smooth="yes"/>
    </contour>
    <contour>
      <point x="792" y="196" type="line"/>
      <point x="766" y="0" type="line"/>
      <point x="806" y="0" type="line"/>
      <point x="1052" y="1490" type="line"/>
      <point x="1006" y="1490" type="line"/>
    </contour>
    <contour>
      <point x="76" y="530" type="line" smooth="yes"/>
      <point x="23" y="197"/>
      <point x="151" y="-23"/>
      <point x="388" y="-24" type="curve" smooth="yes"/>
      <point x="540" y="-23"/>
      <point x="697" y="64"/>
      <point x="810" y="202" type="curve"/>
      <point x="926" y="910" type="line"/>
      <point x="861" y="1047"/>
      <point x="732" y="1135"/>
      <point x="580" y="1134" type="curve" smooth="yes"/>
      <point x="342" y="1135"/>
      <point x="136" y="915"/>
      <point x="80" y="558" type="curve" smooth="yes"/>
    </contour>
    <contour>
      <point x="126" y="556" type="line" smooth="yes"/>
      <point x="188" y="881"/>
      <point x="351" y="1088"/>
      <point x="566" y="1088" type="curve" smooth="yes"/>
      <point x="707" y="1088"/>
      <point x="845" y="999"/>
      <point x="904" y="864" type="curve"/>
      <point x="802" y="248" type="line"/>
      <point x="696" y="113"/>
      <point x="532" y="23"/>
      <point x="392" y="24" type="curve" smooth="yes"/>
      <point x="179" y="23"/>
      <point x="65" y="229"/>
      <point x="122" y="532" type="curve" smooth="yes"/>
    </contour>
  </outline>
</glyph>
<glyph name="uni023A" format="2">
  <advance width="1310"/>
  <unicode hex="023A"/>
  <anchor x="562" y="0" name="bottom"/>
  <anchor x="1151" y="0" name="ogonek"/>
  <anchor x="720" y="1490" name="tonos"/>
  <anchor x="809" y="1490" name="top"/>
  <outline>
    <contour>
      <point x="1180.791" y="1678" type="line"/>
      <point x="1130.791" y="1678" type="line"/>
      <point x="157.546" y="-190" type="line"/>
      <point x="207.546" y="-190" type="line"/>
    </contour>
    <component base="A"/>
  </outline>
</glyph>
